<svg xmlns="http://www.w3.org/2000/svg" width="121.34" height="118.797" viewBox="0 0 121.34 118.797">
  <g id="グループ_798" data-name="グループ 798" transform="translate(-305.5 -373.94)">
    <g id="グループ_797" data-name="グループ 797" transform="translate(305.5 373.94)">
      <path id="パス_1588" data-name="パス 1588" d="M375.058,432.894h-1.71a6,6,0,0,1-5.495-3.837l-.029-.075a5.947,5.947,0,0,1,1.153-6.564l1.234-1.234a2.685,2.685,0,0,0,0-3.793l-3.793-3.793a2.684,2.684,0,0,0-3.8,0l-1.234,1.234a5.947,5.947,0,0,1-6.561,1.153l-.075-.032a6,6,0,0,1-3.837-5.495v-1.71a2.683,2.683,0,0,0-2.681-2.681h-5.368a2.683,2.683,0,0,0-2.681,2.681v1.71a6,6,0,0,1-3.837,5.495l-.075.032a5.947,5.947,0,0,1-6.561-1.153l-1.234-1.234a2.683,2.683,0,0,0-3.8,0l-3.793,3.793a2.685,2.685,0,0,0,0,3.793l1.234,1.234a5.947,5.947,0,0,1,1.153,6.564l-.029.075a6,6,0,0,1-5.495,3.837h-1.71a2.682,2.682,0,0,0-2.684,2.681v5.365a2.684,2.684,0,0,0,2.684,2.684h17.227a13.311,13.311,0,0,1-1.127-5.732,13.637,13.637,0,0,1,13.674-13.044,13.389,13.389,0,0,1,12.016,18.776h17.227a2.684,2.684,0,0,0,2.684-2.684v-5.365A2.682,2.682,0,0,0,375.058,432.894Zm34.521-41.1a.96.96,0,0,0-.953-.8h-1.97a2,2,0,0,1-1.338-1.326,17.235,17.235,0,0,0-1.456-3.3.943.943,0,0,1,.142-1.144l1.575-1.575a.971.971,0,0,0,.1-1.257,21,21,0,0,0-4.267-4.276.968.968,0,0,0-1.257.1l-1.58,1.58a.943.943,0,0,1-1.144.141,17.079,17.079,0,0,0-4.715-1.84h0v-2.973a.958.958,0,0,0-.8-.953,19.989,19.989,0,0,0-6.061,0,.961.961,0,0,0-.806.953V378.1h0a17.113,17.113,0,0,0-4.715,1.84.943.943,0,0,1-1.144-.141l-1.58-1.58a.967.967,0,0,0-1.257-.1,21.149,21.149,0,0,0-4.267,4.276.971.971,0,0,0,.1,1.257l1.577,1.575a.942.942,0,0,1,.139,1.144,17.225,17.225,0,0,0-1.453,3.3,2.006,2.006,0,0,1-1.341,1.326h-1.967a.958.958,0,0,0-.953.8,20.08,20.08,0,0,0,0,6.151.958.958,0,0,0,.953.8h1.967a2.006,2.006,0,0,1,1.341,1.326,17.2,17.2,0,0,0,1.453,3.3.946.946,0,0,1-.139,1.147L372.19,406.1a.968.968,0,0,0-.1,1.254,21.074,21.074,0,0,0,4.267,4.276.967.967,0,0,0,1.257-.1l1.58-1.58a.942.942,0,0,1,1.144-.139,17.2,17.2,0,0,0,4.715,1.837h0v2.973a.961.961,0,0,0,.806.953,19.989,19.989,0,0,0,6.061,0,.958.958,0,0,0,.8-.953v-2.973h0a17.182,17.182,0,0,0,4.712-1.837.942.942,0,0,1,1.144.139l1.58,1.58a.968.968,0,0,0,1.257.1,20.927,20.927,0,0,0,4.267-4.276.968.968,0,0,0-.1-1.254L404,404.523a.947.947,0,0,1-.142-1.147,17.208,17.208,0,0,0,1.456-3.3,2,2,0,0,1,1.338-1.326h1.97a.96.96,0,0,0,.953-.8,20.08,20.08,0,0,0,0-6.151Zm-15.02,3.984a5.748,5.748,0,1,1-6.584-6.584A5.776,5.776,0,0,1,394.559,395.781Z" transform="translate(-290.658 -373.94)" fill="#173042"/>
      <path id="パス_1589" data-name="パス 1589" d="M426.317,402.938a28.209,28.209,0,0,1-5.732,5.746,8.2,8.2,0,0,1-4.888,1.627c-.142,0-.274-.046-.413-.055v31.863H317.056v-52h58.821a26.763,26.763,0,0,1,.014-8.13,8.018,8.018,0,0,1,1.393-3.426H311.278a5.778,5.778,0,0,0-5.778,5.778v72.226a5.78,5.78,0,0,0,5.778,5.778h43.1l-2.167,13H341.613a4.334,4.334,0,0,0,0,8.667h49.114a4.334,4.334,0,0,0,0-8.667H380.133l-2.167-13h43.1a5.78,5.78,0,0,0,5.778-5.778V402.036A7.606,7.606,0,0,1,426.317,402.938ZM366.17,458.009a4.334,4.334,0,1,1,4.334-4.334A4.335,4.335,0,0,1,366.17,458.009Z" transform="translate(-305.5 -365.213)" fill="#173042"/>
    </g>
  </g>
</svg>
