<svg xmlns="http://www.w3.org/2000/svg" width="873.334" height="546.324" viewBox="0 0 873.334 546.324">
  <g id="グループ_1073" data-name="グループ 1073" transform="translate(-152.992 -157.364)">
    <g id="グループ_799" data-name="グループ 799" transform="translate(171.518 157.364)">
      <path id="パス_1590" data-name="パス 1590" d="M1023.89,702.429c-49.946,0-777.532.179-777.953-1.124l-.071-.165a.881.881,0,0,1-.071-.241c-.278-.651-112.1-183.571,61.743-310.909,68.021-49.824-4.257-82.715,49.834-138.182,62.164-63.74,130,6.772,199.129-22.131,12.213-5.1,24.469-13.314,36.737-25.916,28.453-29.2,67.492-42.7,107.8-45.734,77.237-5.772,164.157,26.7,209.014,74.154,9.031,9.557,50.1,59,17.726,126.968-20.439,42.911,65.184,83.894,95.609,132.894C1100.743,616.627,1024.592,700.8,1023.89,702.429Z" transform="translate(-210.139 -157.364)" fill="#ebf3fa"/>
    </g>
    <g id="グループ_802" data-name="グループ 802" transform="translate(363.534 282.218)" opacity="0.5">
      <g id="グループ_800" data-name="グループ 800" transform="translate(32.091 0)" opacity="0.5">
        <path id="パス_1591" data-name="パス 1591" d="M940.754,620.133s-5.666-47.461-29.986-75.784a5.308,5.308,0,0,0-9.314,3.593c0,.083,0,.166.008.251C901.776,556.659,929.006,592.371,940.754,620.133Z" transform="translate(-901.453 -542.505)" fill="#aec3ff"/>
      </g>
      <g id="グループ_801" data-name="グループ 801" transform="translate(0 4.763)" opacity="0.5">
        <path id="パス_1592" data-name="パス 1592" d="M876.808,643.65s-24.234-59.322-65.627-85.557a5.631,5.631,0,0,0-7.635,1.443c-1.1,1.6-1.6,4.11-.36,8.023C806.484,577.992,852.649,613.114,876.808,643.65Z" transform="translate(-802.46 -557.197)" fill="#aec3ff"/>
      </g>
    </g>
    <g id="グループ_807" data-name="グループ 807" transform="translate(725.966 303.287)">
      <g id="グループ_803" data-name="グループ 803">
        <path id="パス_1593" data-name="パス 1593" d="M1934.25,662.562s-21.7-13.359-10.635-29.813c0,0,8.722-10.024,17.719-12.322,0,0-5.781,24.98-1.066,25.769s4.435-28.3,4.435-28.3,23.865-10.287,33.01-9.019c0,0-15.531,23.983-10.767,23.587s22.084-24.6,22.084-24.6,24.175-3.45,27.438,10.927-3.252,21.228-6.843,21.969-26.386-.5-25.916,2.488,15.676,8.363,24.376,6.053c0,0-10.446,23.007-22.837,21.307s-15.923-9.56-23.6-10.471-13.39.929-9.625,3.162,16.855,1.378,22.856,6.923,10.9,9.012-.748,10.9-32.322-.447-36.1-9.5Z" transform="translate(-1920.471 -607.499)" fill="#82b378"/>
      </g>
      <g id="グループ_806" data-name="グループ 806" transform="translate(0.245 15.279)">
        <g id="グループ_804" data-name="グループ 804" transform="translate(6.531)">
          <path id="パス_1594" data-name="パス 1594" d="M2019.449,654.63s-63.034,17.567-71.074,39.784c0,0-.121,10.083-6.819,21.377l-.184,4.443s7.141-14.837,10.781-16.763C1952.154,703.471,1939.042,683.346,2019.449,654.63Z" transform="translate(-1941.373 -654.63)" fill="#82b378"/>
        </g>
        <g id="グループ_805" data-name="グループ 805" transform="translate(0 58.512)">
          <path id="パス_1595" data-name="パス 1595" d="M1927.942,837.774s-10.2,14.17-5.46,32.127l2.5-.561s-1.587-19.629,3.838-29.244S1927.942,837.774,1927.942,837.774Z" transform="translate(-1921.227 -835.125)" fill="#82b378"/>
        </g>
      </g>
    </g>
    <g id="グループ_812" data-name="グループ 812" transform="translate(614.133 232.751)">
      <g id="グループ_808" data-name="グループ 808">
        <path id="パス_1596" data-name="パス 1596" d="M1613.3,514.98s-36.44,3.224-37.808-25.21c0,0,1.449-19.02,9.837-29.379,0,0,14.762,33.719,20.867,30.585s-19.159-36.387-19.159-36.387,18.659-32.308,30.276-38.688c0,0,2.682,40.932,7.827,36.391s4.333-47.263,4.333-47.263,24.878-24.7,40.961-10.945,14.457,27.231,10.958,31.164-30.808,22.05-27.707,25.086,25.22-3.812,33.257-13.931c0,0,7.7,35.448-8.026,44.115s-26.531,2.645-36.151,8.178-14.621,12.551-8.371,11.894,20.588-12.865,32.253-11.626,20.28,1.029,8.488,13.2-37.6,27.2-49.717,20.01Z" transform="translate(-1575.495 -389.915)" fill="#a8d29f"/>
      </g>
      <g id="グループ_811" data-name="グループ 811" transform="translate(36.686 18.316)">
        <g id="グループ_809" data-name="グループ 809">
          <path id="パス_1597" data-name="パス 1597" d="M1737.507,446.415s-57.516,74.274-47.724,106.749c0,0,8.506,11.713,10.478,30.461l3.6,5.273s-4.5-23.206-1.958-28.545C1701.9,560.353,1669.547,548.423,1737.507,446.415Z" transform="translate(-1688.661 -446.415)" fill="#a8d29f"/>
        </g>
        <g id="グループ_810" data-name="グループ 810" transform="translate(11.6 131.611)">
          <path id="パス_1598" data-name="パス 1598" d="M1724.444,858s.411,25.057,21.26,41.674l2.392-2.785s-18.658-21.241-20.656-36.963S1724.444,858,1724.444,858Z" transform="translate(-1724.444 -852.401)" fill="#a8d29f"/>
        </g>
      </g>
    </g>
    <g id="グループ_831" data-name="グループ 831" transform="translate(214.273 555.014)">
      <g id="グループ_817" data-name="グループ 817" transform="translate(77.99 58.248)">
        <g id="グループ_813" data-name="グループ 813" transform="translate(12.523)">
          <path id="パス_1599" data-name="パス 1599" d="M625.969,1588.384s-10.207-11.908-.63-19.471c0,0,7-4.235,12.7-3.891,0,0-8.083,13.554-5.468,14.9s7.918-15.752,7.918-15.752,15.92-1.544,21.041.918c0,0-13.61,11.137-10.743,11.8s17.566-10.268,17.566-10.268,14.817,2.521,14.027,11.56-5.9,11.83-8.14,11.59-15.37-5.251-15.656-3.413,7.616,7.847,13.148,8.128c0,0-10.446,11.521-17.389,8.2s-7.535-8.6-11.863-10.572-8.022-1.972-6.235.044,9.619,3.975,12.094,8.353,4.7,7.33-2.487,6.25-18.859-6.337-19.371-12.355Z" transform="translate(-621.24 -1563.694)" fill="#bbd0ff"/>
        </g>
        <g id="グループ_816" data-name="グループ 816" transform="translate(0 14.662)">
          <g id="グループ_814" data-name="グループ 814" transform="translate(8.295)">
            <path id="パス_1600" data-name="パス 1600" d="M666.286,1608.993s-40.244-1.551-49.131,9.958a29.108,29.108,0,0,1-8.014,11.247l-.943,2.569s6.974-7.353,9.469-7.8C617.667,1624.97,613.765,1610.712,666.286,1608.993Z" transform="translate(-608.198 -1608.923)" fill="#bbd0ff"/>
          </g>
          <g id="グループ_815" data-name="グループ 815" transform="translate(0 20.263)">
            <path id="パス_1601" data-name="パス 1601" d="M591.847,1672.441a25.27,25.27,0,0,0-9.238,17.8l1.568.14s2.759-11.8,7.745-16.418S591.847,1672.441,591.847,1672.441Z" transform="translate(-582.609 -1671.428)" fill="#bbd0ff"/>
          </g>
        </g>
      </g>
      <g id="グループ_822" data-name="グループ 822" transform="translate(0 25.918)">
        <g id="グループ_818" data-name="グループ 818">
          <path id="パス_1602" data-name="パス 1602" d="M401.584,1506.009s16.236-9.093,8.659-21.432c0,0-6.062-7.577-12.556-9.525,0,0,3.464,18.4,0,18.834s-2.381-20.783-2.381-20.783-17.1-8.226-23.813-7.577c0,0,10.608,17.969,7.144,17.535s-15.37-18.618-15.37-18.618-17.535-3.247-20.349,7.144,1.732,15.587,4.329,16.237,19.267.433,18.835,2.6-11.69,5.628-17.968,3.68c0,0,6.928,17.1,16.02,16.236s11.907-6.495,17.536-6.928,9.741,1.082,6.927,2.6-12.34.5-16.886,4.361-8.226,6.246.217,7.978,23.6.649,26.628-5.845Z" transform="translate(-342.029 -1463.963)" fill="#aec3ff"/>
        </g>
        <g id="グループ_821" data-name="グループ 821" transform="translate(8.898 10.872)">
          <g id="グループ_819" data-name="グループ 819">
            <path id="パス_1603" data-name="パス 1603" d="M369.477,1497.5s45.462,14.721,50.658,31.174a34.535,34.535,0,0,0,4.33,15.8v3.248s-4.763-11.041-7.361-12.557C417.1,1535.168,427.278,1520.88,369.477,1497.5Z" transform="translate(-369.477 -1497.5)" fill="#aec3ff"/>
          </g>
          <g id="グループ_820" data-name="グループ 820" transform="translate(52.815 44.956)">
            <path id="パス_1604" data-name="パス 1604" d="M534.57,1638.2s7.011,10.647,3.014,23.606l-1.8-.484s1.751-14.274-1.917-21.453S534.57,1638.2,534.57,1638.2Z" transform="translate(-532.398 -1636.179)" fill="#aec3ff"/>
          </g>
        </g>
      </g>
      <g id="グループ_827" data-name="グループ 827" transform="translate(71.316 0)">
        <g id="グループ_823" data-name="グループ 823">
          <path id="パス_1605" data-name="パス 1605" d="M576.091,1439.437s-21.4-11.985-11.415-28.252c0,0,7.991-9.988,16.551-12.556,0,0-4.566,24.256,0,24.827s3.139-27.4,3.139-27.4,22.544-10.844,31.39-9.988c0,0-13.983,23.686-9.417,23.115s20.261-24.541,20.261-24.541,23.115-4.281,26.825,9.417-2.283,20.547-5.707,21.4-25.4.571-24.827,3.425,15.41,7.419,23.686,4.851c0,0-9.132,22.544-21.117,21.4s-15.7-8.561-23.115-9.132-12.842,1.427-9.132,3.425,16.266.654,22.259,5.749,10.844,8.234-.285,10.516-31.105.857-35.1-7.7Z" transform="translate(-562.02 -1384.014)" fill="#d2e0ff"/>
        </g>
        <g id="グループ_826" data-name="グループ 826" transform="translate(2.767 14.331)">
          <g id="グループ_824" data-name="グループ 824" transform="translate(5.596)">
            <path id="パス_1606" data-name="パス 1606" d="M660.3,1428.221s-59.927,19.4-66.776,41.093a45.521,45.521,0,0,1-5.707,20.832v4.28s6.278-14.554,9.7-16.551C597.521,1477.875,584.108,1459.041,660.3,1428.221Z" transform="translate(-587.818 -1428.221)" fill="#d2e0ff"/>
          </g>
          <g id="グループ_825" data-name="グループ 825" transform="translate(0 59.261)">
            <path id="パス_1607" data-name="パス 1607" d="M576.151,1613.689s-9.242,14.034-3.973,31.117l2.378-.638s-2.308-18.817,2.527-28.28S576.151,1613.689,576.151,1613.689Z" transform="translate(-570.554 -1611.025)" fill="#d2e0ff"/>
          </g>
        </g>
      </g>
      <g id="グループ_828" data-name="グループ 828" transform="translate(42.741 102.495)">
        <path id="パス_1608" data-name="パス 1608" d="M515.8,1742.109a41.924,41.924,0,0,0,41.924-41.924H473.873A41.925,41.925,0,0,0,515.8,1742.109Z" transform="translate(-473.873 -1700.185)" fill="#c0d4ff"/>
      </g>
      <g id="グループ_829" data-name="グループ 829" transform="translate(42.162 141.381)">
        <path id="パス_1609" data-name="パス 1609" d="M557.094,1825.309H472.087a5.172,5.172,0,0,1,5.173-5.172h74.662a5.172,5.172,0,0,1,5.172,5.172Z" transform="translate(-472.087 -1820.137)" fill="#c0d4ff"/>
      </g>
      <g id="グループ_830" data-name="グループ 830" transform="translate(41.362 102.495)">
        <rect id="長方形_100" data-name="長方形 100" width="86.181" height="1.286" fill="#86a2e2"/>
      </g>
    </g>
    <g id="グループ_832" data-name="グループ 832" transform="translate(565.995 462.457)">
      <path id="パス_1610" data-name="パス 1610" d="M1445.919,1100.609l-18.761,223.069s-1.965,13.522,8.092,13.546c16.538.039,82.313,0,82.313,0s-12.446-2.815-12.3-9.148c.178-7.465,21.927-229.578,21.927-229.578Z" transform="translate(-1427.003 -1098.498)" fill="#798ee8"/>
    </g>
    <g id="グループ_833" data-name="グループ 833" transform="translate(571.402 458.313)">
      <path id="パス_1611" data-name="パス 1611" d="M1535.027,1324.529c-3.253.01-66.932.118-83.036-.089-7.019-.087-8.249-6.24-8.307-10.223a19.945,19.945,0,0,1,.213-3.32l.488-5.8,1.243-14.777,1.1-13.056,1.411-16.776,1.189-14.16,13.33-158.506,81.277-2.109s-9.16,92.953-15.639,160.615c-.724,7.539-1.412,14.767-2.048,21.515q-.31,3.232-.6,6.311c-.6,6.4-1.15,12.281-1.628,17.471-.252,2.736-.484,5.278-.694,7.606-.827,9.125-1.312,14.952-1.318,16.06a9.384,9.384,0,0,0,.158,1.806C1523.5,1324.207,1533.807,1324.529,1535.027,1324.529Z" transform="translate(-1443.681 -1085.714)" fill="#aec3ff"/>
    </g>
    <g id="グループ_834" data-name="グループ 834" transform="translate(387.528 343.085)">
      <path id="パス_1612" data-name="パス 1612" d="M876.477,730.267l45.7,183.558,6.257,25.139,21.284,85.5h395.418l-78.448-294.193Z" transform="translate(-876.477 -730.267)" fill="#aec3ff"/>
    </g>
    <g id="グループ_835" data-name="グループ 835" transform="translate(381.194 343.085)">
      <path id="パス_1613" data-name="パス 1613" d="M863.271,730.266l-6.333,2.111,71.152,298.468,8.42-6.385Z" transform="translate(-856.938 -730.266)" fill="#798ee8"/>
    </g>
    <g id="グループ_836" data-name="グループ 836" transform="translate(452.347 637.279)">
      <path id="パス_1614" data-name="パス 1614" d="M1076.425,1644.166h392.984l10.852-6.385H1084.846Z" transform="translate(-1076.425 -1637.781)" fill="#849def"/>
    </g>
    <g id="グループ_837" data-name="グループ 837" transform="translate(590.351 697.128)">
      <rect id="長方形_101" data-name="長方形 101" width="85.087" height="4.043" transform="translate(85.087 4.043) rotate(180)" fill="#aec3ff"/>
    </g>
    <g id="グループ_838" data-name="グループ 838" transform="translate(573.349 643.663)">
      <path id="パス_1615" data-name="パス 1615" d="M1530.146,1657.473l-.439,3.091-80.02,16.166,1.1-13.056.523-6.2Z" transform="translate(-1449.687 -1657.473)" fill="#8c9df4"/>
    </g>
    <g id="グループ_839" data-name="グループ 839" transform="translate(571.405 671.831)" opacity="0.5">
      <path id="パス_1616" data-name="パス 1616" d="M1535.033,1769.662c-3.253.01-66.932.118-83.036-.089-7.019-.087-8.249-6.24-8.307-10.223l79.642-14.984c-.827,9.125-1.312,14.952-1.318,16.06a9.384,9.384,0,0,0,.158,1.806C1523.505,1769.34,1533.812,1769.662,1535.033,1769.662Z" transform="translate(-1443.689 -1744.366)" fill="#8c9df4"/>
    </g>
    <g id="グループ_840" data-name="グループ 840" transform="translate(387.527 343.085)">
      <path id="パス_1617" data-name="パス 1617" d="M876.474,730.266h390.208L1329.994,966.7H935.336Z" transform="translate(-876.474 -730.266)" fill="#8c9df4"/>
    </g>
    <g id="グループ_841" data-name="グループ 841" transform="translate(403.688 355.752)">
      <path id="パス_1618" data-name="パス 1618" d="M1345.282,982.866H979.928l-13.056-52.011-5.051-20.124-2.059-8.206-13.42-53.45-.693-2.783-7.095-28.252L935.381,805.4l-2.706-10.784-2.21-8.794-4.138-16.481h360.089l4.544,16.481,2.423,8.794,2.973,10.784,3.484,12.642,22.961,83.281v0l1.943,7.057.906,3.274,15.85,57.5Z" transform="translate(-926.327 -769.34)" fill="#505aba"/>
    </g>
    <g id="グループ_842" data-name="グループ 842" transform="translate(447.456 381.463)">
      <path id="パス_1619" data-name="パス 1619" d="M1291.723,1027.045H1103.74l-10.328-50.624-4-15.919-1.629-6.491-10.616-42.282-.548-2.2-5.613-22.349-2.511-10-2.14-8.531-1.748-6.957-3.273-13.038h183.939Z" transform="translate(-1061.338 -848.652)" fill="#5e6ecc"/>
    </g>
    <g id="グループ_843" data-name="グループ 843" transform="translate(446.389 579.524)">
      <path id="パス_1620" data-name="パス 1620" d="M1206.3,1459.62l-133.739,58.444-14.511-58.444Z" transform="translate(-1058.047 -1459.62)" fill="#8c9df4"/>
    </g>
    <g id="グループ_910" data-name="グループ 910" transform="translate(723.723 444.273)">
      <g id="グループ_844" data-name="グループ 844" transform="translate(161.511)">
        <path id="パス_1621" data-name="パス 1621" d="M2425.744,1048.9c.019-.526.427-6.2,9.067-6.5,0,0-4.249.507-4.983,2.375,0,0,2.893-2.308,5.249-1.566s3.74,4.87,3.753,6.228-1.295,5.734-2.79,6.106a4.56,4.56,0,0,1-1.811,0,20.229,20.229,0,0,1,1.161,2.072c3.448,7.077-.108,13.994-3.027,13.23-1.872-.49-2.4,2.7-2.4,2.7l-18.187-14.723S2418.455,1045.011,2425.744,1048.9Z" transform="translate(-2411.775 -1042.406)" fill="#2c3a64"/>
      </g>
      <g id="グループ_845" data-name="グループ 845" transform="translate(124.245 87.57)">
        <path id="パス_1622" data-name="パス 1622" d="M2298.489,1319.954c1.52,1.345,5.555-3.275,6.11-3.888a.355.355,0,0,1,.059-.088l-1.228-3.42s-5.292-.2-6.168.672S2296.823,1318.522,2298.489,1319.954Z" transform="translate(-2296.819 -1312.537)" fill="#ffb27d"/>
      </g>
      <g id="グループ_846" data-name="グループ 846" transform="translate(169.148 94.959)">
        <path id="パス_1623" data-name="パス 1623" d="M2435.334,1455.367l3.863,1.439s16.779-23.271,18.845-43.746c.369-3.655-.388-11.4-.1-13.06.133-.773.3-1.7.483-2.769.545-3.125,1.3-7.4,2.154-12.271,1.975-11.206,4.532-25.531,6.519-36.061l-1.041-.334-11.263-3.633-2.327-7.392-8.386-2.208s-1.873,3.665-3.548,20.976c-.309,2.271-.59,4.775-.8,7.49a148.268,148.268,0,0,0,.8,30.324c.385,3.009,1.981,14.836,1.795,18.5C2441.478,1429.356,2435.334,1455.367,2435.334,1455.367Z" transform="translate(-2435.334 -1335.331)" fill="#2b478b"/>
      </g>
      <g id="グループ_847" data-name="グループ 847" transform="translate(173.544 94.959)">
        <path id="パス_1624" data-name="パス 1624" d="M2448.9,1363.8l18.21,36.2c.133-.773.3-1.7.483-2.769.545-3.125,1.3-7.4,2.154-12.271,1.975-11.206,4.532-25.531,6.519-36.061l-1.041-.334-11.263-3.633-2.327-7.392-8.386-2.208s-1.873,3.665-3.548,20.976C2449.387,1358.578,2449.106,1361.082,2448.9,1363.8Z" transform="translate(-2448.895 -1335.331)" fill="#233862"/>
      </g>
      <g id="グループ_848" data-name="グループ 848" transform="translate(181.555 90.748)">
        <path id="パス_1625" data-name="パス 1625" d="M2473.607,1331.2l.422-3.615c7.063,1.876,25.933-5.242,25.933-5.242s6.842,6.015,5.944,20.431c-.438,7.037-1.239,36.938-2.076,45.786-.3,3.207,1.779,11.459,2.615,13.686,8.21,21.879-1.265,48.823-1.265,48.823l-2.459-.991s-15.555-56.4-17.16-62.371c-3.032-11.3-5.473-25.99-7.1-37.332C2478.24,1350.381,2473.607,1331.2,2473.607,1331.2Z" transform="translate(-2473.607 -1322.341)" fill="#2b478b"/>
      </g>
      <g id="グループ_849" data-name="グループ 849" transform="translate(169.949 29.47)">
        <path id="パス_1626" data-name="パス 1626" d="M2444.052,1161.506c12.142.666,9.474-17.435,8.733-17.343-1.485-.776-4.154-4.545-5.7-10.849l-.523.243-8.761,4.119s.93,2.851,1.618,5.579c.536,2.135.921,4.2.6,4.775-.691.28-1.1.457-1.1.457a.025.025,0,0,1,0,.009C2438.827,1148.72,2440.813,1161.329,2444.052,1161.506Z" transform="translate(-2437.805 -1133.314)" fill="#ffb27d"/>
      </g>
      <g id="グループ_850" data-name="グループ 850" transform="translate(169.949 29.715)">
        <path id="パス_1627" data-name="パス 1627" d="M2437.8,1138.187s.932,2.849,1.618,5.579c5.121-1.429,6.676-6.812,7.144-9.7Z" transform="translate(-2437.804 -1134.068)" fill="#ed985f"/>
      </g>
      <g id="グループ_851" data-name="グループ 851" transform="translate(161.08 14.566)">
        <path id="パス_1628" data-name="パス 1628" d="M2418.236,1109.622s12.252-2.836,10.369-10.438-1.57-13.089-9.473-11.6-8.7,4.765-8.687,7.456S2415,1110.163,2418.236,1109.622Z" transform="translate(-2410.446 -1087.338)" fill="#ffb27d"/>
      </g>
      <g id="グループ_852" data-name="グループ 852" transform="translate(159.846 13.18)">
        <path id="パス_1629" data-name="パス 1629" d="M2407.184,1087.833c1.317-2.756,2.867-2.609,3.837-2.12a8.79,8.79,0,0,1,11.4-.975,14.962,14.962,0,0,0,6.884,7.4s-1.882,1.927-7.338,1.885a8.978,8.978,0,0,1-4.866-1.832,29.33,29.33,0,0,0,6.388,4.765c-6.829-1.307-11.408-9.213-11.878-10.052a9.859,9.859,0,0,0-1.778,4.208c-.126,2.087.592,6.14-.6,6.293C2409.234,1097.4,2405.209,1091.966,2407.184,1087.833Z" transform="translate(-2406.639 -1083.064)" fill="#2c3a64"/>
      </g>
      <g id="グループ_853" data-name="グループ 853" transform="translate(198.834 210.514)">
        <path id="パス_1630" data-name="パス 1630" d="M2526.907,1702.757h19.456a10.683,10.683,0,0,0-.55-5.215c-.974-2.159-2.5-3.14-2.134-5.752a7.008,7.008,0,0,1-6.064,2.32c-.344.559-2.224,3.549-3.376,4.376C2532.968,1699.4,2527.3,1699.074,2526.907,1702.757Z" transform="translate(-2526.907 -1691.79)" fill="#233862"/>
      </g>
      <g id="グループ_854" data-name="グループ 854" transform="translate(157.059 211.387)">
        <path id="パス_1631" data-name="パス 1631" d="M2398.041,1704.576H2417.5s.727-3.1-.55-5.215c-1.131-1.868-.7-2.933.14-4.478a7.563,7.563,0,0,1-3.277.617,6.848,6.848,0,0,1-2.893-1.018,69.923,69.923,0,0,1-5.543,5.823C2404.1,1701.219,2398.433,1700.894,2398.041,1704.576Z" transform="translate(-2398.041 -1694.482)" fill="#233862"/>
      </g>
      <g id="グループ_855" data-name="グループ 855" transform="translate(144.349 40.022)">
        <path id="パス_1632" data-name="パス 1632" d="M2422.756,1193.6c-1.047-3.393-2.127-6.65-3.223-9.654a131.91,131.91,0,0,0-5.417-13.16c-2.555-5.255-13.977-4.925-13.977-4.925a27.953,27.953,0,0,1-8.246,12.871c-3.223-1.893-5.624-8.547-5.624-8.547l-7.055,3.754h0c-.025.026-2.184,1.3-4.086,6.774-2.832,8.142-7.423,19.7-10.61,23.241a24.269,24.269,0,0,1-5.557,3.4v0c-.056.085-.1.129-.129.129a26.2,26.2,0,0,0,2.179,4.087,11.116,11.116,0,0,0,3.894,3.834c1.2-.58,3.367-1.434,4.285-2,3.321-2.029,8.267-4.955,12.135-11.122l1.08,14.5,1.951,26.235c3,.934,5.859,1.663,8.568,2.223a32.019,32.019,0,0,1,.889-4.829c-.03,1.38,1.583,4.02,2.54,5.456,24.915,3.991,36.595-6.876,36.595-6.876C2431.979,1229.376,2427.781,1209.918,2422.756,1193.6Z" transform="translate(-2358.833 -1165.862)" fill="#8c9df4"/>
      </g>
      <g id="グループ_856" data-name="グループ 856" transform="translate(177.409 38.56)">
        <path id="パス_1633" data-name="パス 1633" d="M2466.542,1161.355s2.073.139,2.518,1.465c0,0-2.705,10.888-8.244,12.87Z" transform="translate(-2460.816 -1161.355)" fill="#707fe5"/>
      </g>
      <g id="グループ_857" data-name="グループ 857" transform="translate(170.252 42.055)">
        <path id="パス_1634" data-name="パス 1634" d="M2445.9,1182.975s-5.292-9.55-5.271-10.84c0,0-2.011,1.782-1.879,3.107C2438.745,1175.242,2443.2,1182.381,2445.9,1182.975Z" transform="translate(-2438.739 -1172.135)" fill="#707fe5"/>
      </g>
      <g id="グループ_858" data-name="グループ 858" transform="translate(170.137 49.021)">
        <path id="パス_1635" data-name="パス 1635" d="M2459.845,1193.625c-.15.516-10.951,26.328-20.636,35.842-4.24,4.166,9.271,2.962,9.4,2.188S2459.845,1193.625,2459.845,1193.625Z" transform="translate(-2438.385 -1193.625)" fill="#707fe5"/>
      </g>
      <g id="グループ_859" data-name="グループ 859" transform="translate(168.258 52.414)">
        <path id="パス_1636" data-name="パス 1636" d="M2432.589,1243.44l.924,14.561c29.541-6.862,27.063-53.912,27.063-53.912l-14.834,30.632-13.02,8.51S2432.675,1243.3,2432.589,1243.44Z" transform="translate(-2432.589 -1204.089)" fill="#707fe5"/>
      </g>
      <g id="グループ_860" data-name="グループ 860" transform="translate(144.303 81.557)">
        <path id="パス_1637" data-name="パス 1637" d="M2358.7,1294.031c.008.031.021.047.039.047-.01-.023-.018-.041-.023-.054C2358.692,1293.977,2358.687,1293.977,2358.7,1294.031Z" transform="translate(-2358.693 -1293.99)" fill="#aec3ff"/>
      </g>
      <g id="グループ_905" data-name="グループ 905" transform="translate(0 53.989)">
        <g id="グループ_861" data-name="グループ 861">
          <path id="パス_1638" data-name="パス 1638" d="M2072.476,1216.506l5.882,26.218c.937,4.176-2.224,7.559-7.062,7.559H1930.052c-4.838,0-9.517-3.383-10.455-7.559l-5.882-26.218a4.587,4.587,0,0,1-.085-.479c-.607-3.954,2.5-7.081,7.148-7.081h141.244c4.652,0,9.159,3.127,10.325,7.081A4.846,4.846,0,0,1,2072.476,1216.506Z" transform="translate(-1913.554 -1208.947)" fill="#f99746"/>
        </g>
        <g id="グループ_904" data-name="グループ 904" transform="translate(11.767 13.139)">
          <g id="グループ_868" data-name="グループ 868" transform="translate(0 0.066)">
            <g id="グループ_863" data-name="グループ 863">
              <g id="グループ_862" data-name="グループ 862">
                <path id="パス_1639" data-name="パス 1639" d="M1954.9,1265.991h-1.385l-3.66-16.313h1.385Z" transform="translate(-1949.854 -1249.679)" fill="#ebf3fa"/>
              </g>
            </g>
            <g id="グループ_865" data-name="グループ 865" transform="translate(3.63 2.116)">
              <g id="グループ_864" data-name="グループ 864">
                <path id="パス_1640" data-name="パス 1640" d="M1972.012,1260.824h-9.926l-1.036-4.617h9.926Z" transform="translate(-1961.05 -1256.207)" fill="#ebf3fa"/>
              </g>
            </g>
            <g id="グループ_867" data-name="グループ 867" transform="translate(5.114 8.733)">
              <g id="グループ_866" data-name="グループ 866">
                <path id="パス_1641" data-name="パス 1641" d="M1979.733,1281.236h-13.068l-1.036-4.617H1978.7Z" transform="translate(-1965.63 -1276.619)" fill="#ebf3fa"/>
              </g>
            </g>
          </g>
          <g id="グループ_875" data-name="グループ 875" transform="translate(27.869 0.066)">
            <g id="グループ_870" data-name="グループ 870" transform="translate(3.882)">
              <g id="グループ_869" data-name="グループ 869">
                <path id="パス_1642" data-name="パス 1642" d="M2052.841,1265.991h-1.385l-3.66-16.313h1.385Z" transform="translate(-2047.796 -1249.679)" fill="#ebf3fa"/>
              </g>
            </g>
            <g id="グループ_872" data-name="グループ 872" transform="translate(0.086 2.116)">
              <g id="グループ_871" data-name="グループ 871">
                <path id="パス_1643" data-name="パス 1643" d="M2047.048,1260.824h-9.926l-1.036-4.617h9.926Z" transform="translate(-2036.086 -1256.207)" fill="#ebf3fa"/>
              </g>
            </g>
            <g id="グループ_874" data-name="グループ 874" transform="translate(0 8.733)">
              <g id="グループ_873" data-name="グループ 873">
                <path id="パス_1644" data-name="パス 1644" d="M2049.924,1281.236h-13.067l-1.036-4.617h13.067Z" transform="translate(-2035.821 -1276.619)" fill="#ebf3fa"/>
              </g>
            </g>
          </g>
          <g id="グループ_882" data-name="グループ 882" transform="translate(50.62 0.066)">
            <g id="グループ_877" data-name="グループ 877" transform="translate(12.884)">
              <g id="グループ_876" data-name="グループ 876">
                <path id="パス_1645" data-name="パス 1645" d="M2150.792,1265.991h-1.385l-3.66-16.313h1.385Z" transform="translate(-2145.747 -1249.679)" fill="#ebf3fa"/>
              </g>
            </g>
            <g id="グループ_879" data-name="グループ 879" transform="translate(1.657 2.116)">
              <g id="グループ_878" data-name="グループ 878">
                <path id="パス_1646" data-name="パス 1646" d="M2122.075,1260.824h-9.926l-1.036-4.617h9.926Z" transform="translate(-2111.113 -1256.207)" fill="#ebf3fa"/>
              </g>
            </g>
            <g id="グループ_881" data-name="グループ 881" transform="translate(0 8.733)">
              <g id="グループ_880" data-name="グループ 880">
                <path id="パス_1647" data-name="パス 1647" d="M2120.105,1281.236h-13.068l-1.036-4.617h13.068Z" transform="translate(-2106.002 -1276.619)" fill="#ebf3fa"/>
              </g>
            </g>
          </g>
          <g id="グループ_889" data-name="グループ 889" transform="translate(72.242)">
            <g id="グループ_884" data-name="グループ 884">
              <g id="グループ_883" data-name="グループ 883">
                <path id="パス_1648" data-name="パス 1648" d="M2189.327,1250.861h-16.312l-.311-1.385h16.313Z" transform="translate(-2172.703 -1249.477)" fill="#ebf3fa"/>
              </g>
            </g>
            <g id="グループ_886" data-name="グループ 886" transform="translate(2.718 2.684)">
              <g id="グループ_885" data-name="グループ 885">
                <path id="パス_1649" data-name="パス 1649" d="M2185.706,1257.757l2.227,9.926h-4.617l-2.227-9.926Z" transform="translate(-2181.089 -1257.757)" fill="#ebf3fa"/>
              </g>
            </g>
            <g id="グループ_888" data-name="グループ 888" transform="translate(9.336 2.684)">
              <g id="グループ_887" data-name="グループ 887">
                <path id="パス_1650" data-name="パス 1650" d="M2206.119,1257.757l2.932,13.068h-4.617l-2.932-13.068Z" transform="translate(-2201.502 -1257.757)" fill="#ebf3fa"/>
              </g>
            </g>
          </g>
          <g id="グループ_896" data-name="グループ 896" transform="translate(97.917 1.688)">
            <g id="グループ_891" data-name="グループ 891" transform="translate(0 5.841)">
              <g id="グループ_890" data-name="グループ 890">
                <path id="パス_1651" data-name="パス 1651" d="M2268.527,1274.088h-16.312l-.311-1.385h16.312Z" transform="translate(-2251.904 -1272.703)" fill="#ebf3fa"/>
              </g>
            </g>
            <g id="グループ_893" data-name="グループ 893" transform="translate(1.158 1.571)">
              <g id="グループ_892" data-name="グループ 892">
                <path id="パス_1652" data-name="パス 1652" d="M2260.092,1259.529l2.227,9.926H2257.7l-2.227-9.926Z" transform="translate(-2255.476 -1259.529)" fill="#ebf3fa"/>
              </g>
            </g>
            <g id="グループ_895" data-name="グループ 895" transform="translate(7.423)">
              <g id="グループ_894" data-name="グループ 894">
                <path id="パス_1653" data-name="パス 1653" d="M2279.418,1254.685l2.932,13.067h-4.617l-2.932-13.067Z" transform="translate(-2274.802 -1254.685)" fill="#ebf3fa"/>
              </g>
            </g>
          </g>
          <g id="グループ_903" data-name="グループ 903" transform="translate(123.292 0.633)">
            <g id="グループ_898" data-name="グループ 898" transform="translate(0.313 14.485)">
              <g id="グループ_897" data-name="グループ 897">
                <path id="パス_1654" data-name="パス 1654" d="M2347.768,1297.5h-16.313l-.311-1.385h16.313Z" transform="translate(-2331.145 -1296.112)" fill="#ebf3fa"/>
              </g>
            </g>
            <g id="グループ_900" data-name="グループ 900" transform="translate(0 3.142)">
              <g id="グループ_899" data-name="グループ 899">
                <path id="パス_1655" data-name="パス 1655" d="M2334.795,1261.122l2.227,9.926H2332.4l-2.227-9.926Z" transform="translate(-2330.178 -1261.122)" fill="#ebf3fa"/>
              </g>
            </g>
            <g id="グループ_902" data-name="グループ 902" transform="translate(5.912)">
              <g id="グループ_901" data-name="グループ 901">
                <path id="パス_1656" data-name="パス 1656" d="M2353.033,1251.431l2.932,13.068h-4.617l-2.932-13.068Z" transform="translate(-2348.416 -1251.431)" fill="#ebf3fa"/>
              </g>
            </g>
          </g>
        </g>
      </g>
      <g id="グループ_909" data-name="グループ 909" transform="translate(142.406 47.034)">
        <g id="グループ_906" data-name="グループ 906" transform="translate(0 43.574)">
          <path id="パス_1657" data-name="パス 1657" d="M2355.17,1324.281a18.9,18.9,0,0,0,5.619-.681s-4.691-.067-3.694-1.55c.181-.27,2.514-.065,5.118-.065a9.077,9.077,0,0,1,3.571,1.531c1.886-.249,3.6-.615,4.156-.734a.918.918,0,0,0,.2-.059l1.666,4.853s-.351.087-.964.2a65.376,65.376,0,0,0-7.747,2.368,7.75,7.75,0,0,1-8.712-1.871,4.859,4.859,0,0,1-1.544-3.056C2352.9,1324.24,2354.188,1324.285,2355.17,1324.281Z" transform="translate(-2352.84 -1321.911)" fill="#ffb27d"/>
        </g>
        <g id="グループ_907" data-name="グループ 907" transform="translate(13.648 34.658)">
          <path id="パス_1658" data-name="パス 1658" d="M2394.942,1306.065l1.024,3.741s1.286-.235,3.334-.614c.614-.119.964-.206.964-.206,1.637-.32,3.594-.758,5.729-1.227h.031c3.653-.877,7.746-1.929,11.2-3.1.309-.108.614-.217.91-.325,2.039-.753-1.9-11.1-3.687-9.818-.472.343-.98.7-1.511,1.06-2.957,2.009-6.722,4.246-10.066,6.131-1.637.936-3.187,1.784-4.474,2.485C2396.316,1305.333,2394.942,1306.065,2394.942,1306.065Z" transform="translate(-2394.942 -1294.406)" fill="#ffb27d"/>
        </g>
        <g id="グループ_908" data-name="グループ 908" transform="translate(31.637)">
          <path id="パス_1659" data-name="パス 1659" d="M2450.433,1223.323a12.054,12.054,0,0,0,6.4,10.507c7.649-2.761,11.741-14.168,14.9-22,.439-1.08.848-2.163,1.256-3.215a79.889,79.889,0,0,0,3.334-11.111c.438-1.988-8.068-12.015-9.151-9.646-1.665,3.77-3.419,8.653-5.056,13.506-.907,2.66-1.784,5.322-2.661,7.776-.5,1.491-1,2.893-1.462,4.179a40.418,40.418,0,0,1-2.455,5.7,14.158,14.158,0,0,1-3.6,3.246C2451.472,1222.606,2450.964,1222.96,2450.433,1223.323Z" transform="translate(-2450.433 -1187.495)" fill="#8c9df4"/>
        </g>
      </g>
    </g>
    <g id="グループ_911" data-name="グループ 911" transform="translate(403.688 355.752)">
      <path id="パス_1660" data-name="パス 1660" d="M1290.961,785.821h-360.5l-4.138-16.481h360.089Z" transform="translate(-926.327 -769.34)" fill="#3d4ca5"/>
    </g>
    <g id="グループ_915" data-name="グループ 915" transform="translate(420.096 361.318)">
      <g id="グループ_912" data-name="グループ 912" transform="translate(0 0.169)">
        <path id="パス_1661" data-name="パス 1661" d="M982.937,789.685a2,2,0,0,1-2.088,2.695,4.144,4.144,0,0,1-3.788-2.654,2,2,0,0,1,2.088-2.7A4.144,4.144,0,0,1,982.937,789.685Z" transform="translate(-976.939 -787.031)" fill="#ebf3fa"/>
      </g>
      <g id="グループ_913" data-name="グループ 913" transform="translate(12.157 0.085)">
        <path id="パス_1662" data-name="パス 1662" d="M1020.438,789.425a2,2,0,0,1-2.088,2.695,4.142,4.142,0,0,1-3.787-2.654,2,2,0,0,1,2.088-2.695A4.142,4.142,0,0,1,1020.438,789.425Z" transform="translate(-1014.441 -786.771)" fill="#ebf3fa"/>
      </g>
      <g id="グループ_914" data-name="グループ 914" transform="translate(24.314)">
        <path id="パス_1663" data-name="パス 1663" d="M1057.939,789.164a2,2,0,0,1-2.088,2.7,4.143,4.143,0,0,1-3.788-2.654,2,2,0,0,1,2.088-2.695A4.143,4.143,0,0,1,1057.939,789.164Z" transform="translate(-1051.942 -786.51)" fill="#ebf3fa"/>
      </g>
    </g>
    <g id="グループ_916" data-name="グループ 916" transform="translate(454.618 409.988)">
      <path id="パス_1664" data-name="パス 1664" d="M1083.431,936.645s42.433.161,73.2,23.75,26.335,44.756,51.867,50.06c41.84,8.693,15.866-35.96,70.2-31.315l27.955,107.373H1118.671l-14.324-66.543Z" transform="translate(-1083.431 -936.645)" fill="#f99746"/>
    </g>
    <g id="グループ_917" data-name="グループ 917" transform="translate(454.616 409.601)">
      <path id="パス_1665" data-name="パス 1665" d="M1218.184,1011.168a48.467,48.467,0,0,1-9.765-1.14c-14.092-2.928-19.288-10.834-25.866-20.843-5.451-8.294-12.234-18.615-26.158-29.29-8.741-6.7-24.162-15.723-47.984-20.649a140.729,140.729,0,0,0-24.986-3.021l0-.774a141.6,141.6,0,0,1,25.14,3.037c13.228,2.735,32.345,8.563,48.3,20.793,14.028,10.754,20.851,21.137,26.334,29.479,6.733,10.245,11.6,17.647,25.376,20.51,19.621,4.078,24.057-3.634,29.2-12.561,5.725-9.945,12.216-21.22,40.956-18.761l-.066.772c-28.255-2.416-34.61,8.63-40.219,18.375-2.6,4.517-5.056,8.784-9.412,11.42A20.438,20.438,0,0,1,1218.184,1011.168Z" transform="translate(-1083.426 -935.451)" fill="#fff"/>
    </g>
    <g id="グループ_918" data-name="グループ 918" transform="translate(464.527 447.776)">
      <path id="パス_1666" data-name="パス 1666" d="M1114,1054.656l10.787,42.985,14.544,67.649h187.983l-9.479-35.126s-27.826-15.51-65.563-1.992-79.513,1.042-82.2-29.364C1167.035,1064.526,1135.535,1048.011,1114,1054.656Z" transform="translate(-1113.998 -1053.21)" fill="#ed7b2e"/>
    </g>
    <g id="グループ_919" data-name="グループ 919" transform="translate(464.413 447.319)">
      <path id="パス_1667" data-name="パス 1667" d="M1161.254,1074.041c-10.805-16.706-30.731-25.1-47.38-19.967l-.228-.74c16.974-5.237,37.269,3.3,48.258,20.287Z" transform="translate(-1113.646 -1051.802)" fill="#fff"/>
    </g>
    <g id="グループ_924" data-name="グループ 924" transform="translate(529.722 472.049)">
      <g id="グループ_920" data-name="グループ 920" transform="translate(46.203 8.398)">
        <rect id="長方形_102" data-name="長方形 102" width="6.14" height="6.14" transform="translate(0.631) rotate(5.898)" fill="#fff"/>
      </g>
      <g id="グループ_921" data-name="グループ 921" transform="translate(1.66 1.265)">
        <rect id="長方形_103" data-name="長方形 103" width="1.018" height="105.109" transform="translate(0 0.996) rotate(-78.267)" fill="#fff"/>
      </g>
      <g id="グループ_922" data-name="グループ 922" transform="translate(0)">
        <path id="パス_1668" data-name="パス 1668" d="M1315.118,1129.67a1.763,1.763,0,1,1,1.573,1.935A1.764,1.764,0,0,1,1315.118,1129.67Z" transform="translate(-1315.109 -1128.088)" fill="#fff"/>
      </g>
      <g id="グループ_923" data-name="グループ 923" transform="translate(102.914 21.374)">
        <path id="パス_1669" data-name="パス 1669" d="M1632.581,1195.6a1.763,1.763,0,1,1,1.573,1.935A1.763,1.763,0,0,1,1632.581,1195.6Z" transform="translate(-1632.572 -1194.021)" fill="#fff"/>
      </g>
    </g>
    <g id="グループ_929" data-name="グループ 929" transform="translate(487.117 401.077)">
      <g id="グループ_925" data-name="グループ 925" transform="translate(15.537 15.619)">
        <rect id="長方形_104" data-name="長方形 104" width="6.14" height="6.14" transform="matrix(0.728, 0.686, -0.686, 0.728, 4.212, 0)" fill="#fff"/>
      </g>
      <g id="グループ_926" data-name="グループ 926" transform="translate(1.404 1.403)">
        <rect id="長方形_105" data-name="長方形 105" width="1.018" height="49.261" transform="matrix(0.706, -0.708, 0.708, 0.706, 0, 0.721)" fill="#fff"/>
      </g>
      <g id="グループ_927" data-name="グループ 927">
        <path id="パス_1670" data-name="パス 1670" d="M1184.077,909.808a1.764,1.764,0,1,1,.258,2.48A1.764,1.764,0,0,1,1184.077,909.808Z" transform="translate(-1183.683 -909.156)" fill="#fff"/>
      </g>
      <g id="グループ_928" data-name="グループ 928" transform="translate(34.901 34.765)">
        <path id="パス_1671" data-name="パス 1671" d="M1291.736,1017.05a1.763,1.763,0,1,1,.258,2.48A1.763,1.763,0,0,1,1291.736,1017.05Z" transform="translate(-1291.342 -1016.398)" fill="#fff"/>
      </g>
    </g>
    <g id="グループ_934" data-name="グループ 934" transform="translate(616.497 439.167)">
      <g id="グループ_930" data-name="グループ 930" transform="translate(4.163 12.093)">
        <rect id="長方形_106" data-name="長方形 106" width="6.14" height="6.14" transform="translate(0 5.652) rotate(-66.996)" fill="#fff"/>
      </g>
      <g id="グループ_931" data-name="グループ 931" transform="translate(1.297 1.554)">
        <rect id="長方形_107" data-name="長方形 107" width="31.419" height="1.018" transform="matrix(0.416, -0.909, 0.909, 0.416, 0, 28.568)" fill="#fff"/>
      </g>
      <g id="グループ_932" data-name="グループ 932" transform="translate(0 28.571)">
        <path id="パス_1672" data-name="パス 1672" d="M1583.984,1118.222a1.763,1.763,0,1,1,2.237-1.1A1.764,1.764,0,0,1,1583.984,1118.222Z" transform="translate(-1582.787 -1114.789)" fill="#fff"/>
      </g>
      <g id="グループ_933" data-name="グループ 933" transform="translate(13.07)">
        <path id="パス_1673" data-name="パス 1673" d="M1624.3,1030.087a1.763,1.763,0,1,1,2.237-1.1A1.763,1.763,0,0,1,1624.3,1030.087Z" transform="translate(-1623.104 -1026.654)" fill="#fff"/>
      </g>
    </g>
    <g id="グループ_959" data-name="グループ 959" transform="translate(549.332 388.31)">
      <g id="グループ_935" data-name="グループ 935" transform="translate(0)">
        <path id="パス_1674" data-name="パス 1674" d="M1482.546,872.833l9.554,39.487c.409,1.689-1.186,3.059-3.562,3.059H1390.26c-2.376,0-4.634-1.37-5.042-3.059l-9.554-39.487c-.409-1.69,1.186-3.06,3.562-3.06H1477.5C1479.88,869.773,1482.137,871.143,1482.546,872.833Z" transform="translate(-1375.6 -869.773)" fill="#d2e0ff"/>
      </g>
      <g id="グループ_958" data-name="グループ 958" transform="translate(11.985 15.252)">
        <g id="グループ_938" data-name="グループ 938" transform="translate(0 0.447)">
          <g id="グループ_936" data-name="グループ 936">
            <path id="パス_1675" data-name="パス 1675" d="M1425.562,928.658H1415.1l-2.531-10.46h10.46Z" transform="translate(-1412.571 -918.199)" fill="#2b478b"/>
          </g>
          <g id="グループ_937" data-name="グループ 937" transform="translate(6.495 5.23)">
            <path id="パス_1676" data-name="パス 1676" d="M1445.6,944.791h-10.46l-2.531-10.46h10.46Z" transform="translate(-1432.607 -934.332)" fill="#2b478b"/>
          </g>
        </g>
        <g id="グループ_943" data-name="グループ 943" transform="translate(24.419 0.447)">
          <g id="グループ_939" data-name="グループ 939">
            <path id="パス_1677" data-name="パス 1677" d="M1500.888,928.658h-10.46L1487.9,918.2h10.46Z" transform="translate(-1487.897 -918.199)" fill="#2b478b"/>
          </g>
          <g id="グループ_942" data-name="グループ 942" transform="translate(5.941 4.783)">
            <g id="グループ_940" data-name="グループ 940" transform="translate(0.555 0.447)">
              <path id="パス_1678" data-name="パス 1678" d="M1520.924,944.791h-10.46l-2.531-10.46h10.46Z" transform="translate(-1507.934 -934.332)" fill="#739af0"/>
            </g>
            <g id="グループ_941" data-name="グループ 941">
              <path id="パス_1679" data-name="パス 1679" d="M1520.323,944.307H1508.97l-2.747-11.353h11.353Zm-10.676-.893h9.567l-2.315-9.567h-9.566Z" transform="translate(-1506.223 -932.954)" fill="#1f3b72"/>
            </g>
          </g>
        </g>
        <g id="グループ_950" data-name="グループ 950" transform="translate(48.284)">
          <g id="グループ_944" data-name="グループ 944" transform="translate(0.554 0.447)">
            <path id="パス_1680" data-name="パス 1680" d="M1576.214,928.658h-10.46l-2.531-10.46h10.46Z" transform="translate(-1563.224 -918.199)" fill="#739af0"/>
          </g>
          <g id="グループ_945" data-name="グループ 945">
            <path id="パス_1681" data-name="パス 1681" d="M1575.613,928.174h-11.353l-2.747-11.353h11.352Zm-10.676-.893h9.567l-2.315-9.566h-9.566Z" transform="translate(-1561.514 -916.821)" fill="#2b478b"/>
          </g>
          <g id="グループ_946" data-name="グループ 946" transform="translate(7.049 5.676)">
            <path id="パス_1682" data-name="パス 1682" d="M1596.25,944.791h-10.46l-2.531-10.46h10.46Z" transform="translate(-1583.26 -934.332)" fill="#739af0"/>
          </g>
          <g id="グループ_947" data-name="グループ 947" transform="translate(6.495 5.23)">
            <path id="パス_1683" data-name="パス 1683" d="M1595.649,944.307H1584.3l-2.747-11.353H1592.9Zm-10.676-.893h9.567l-2.315-9.567h-9.567Z" transform="translate(-1581.55 -932.954)" fill="#2b478b"/>
          </g>
          <g id="グループ_949" data-name="グループ 949" transform="translate(6.461 5.227)">
            <g id="グループ_948" data-name="グループ 948">
              <path id="パス_1684" data-name="パス 1684" d="M1589.08,939.05h-6.16l-1.477-6.1h6.16Z" transform="translate(-1581.443 -932.945)" fill="#2b478b"/>
            </g>
          </g>
        </g>
        <g id="グループ_957" data-name="グループ 957" transform="translate(73.257 0.447)">
          <g id="グループ_952" data-name="グループ 952">
            <g id="グループ_951" data-name="グループ 951">
              <path id="パス_1685" data-name="パス 1685" d="M1651.54,928.658h-10.46l-2.531-10.46h10.46Z" transform="translate(-1638.55 -918.199)" fill="#2b478b"/>
            </g>
          </g>
          <g id="グループ_954" data-name="グループ 954" transform="translate(6.495 5.23)">
            <g id="グループ_953" data-name="グループ 953">
              <path id="パス_1686" data-name="パス 1686" d="M1671.577,944.791h-10.46l-2.531-10.46h10.46Z" transform="translate(-1658.586 -934.332)" fill="#2b478b"/>
            </g>
          </g>
          <g id="グループ_956" data-name="グループ 956" transform="translate(6.754 5.458)">
            <g id="グループ_955" data-name="グループ 955">
              <path id="パス_1687" data-name="パス 1687" d="M1665.326,939.785h-4.792l-1.149-4.749h4.792Z" transform="translate(-1659.385 -935.036)" fill="#739af0"/>
            </g>
          </g>
        </g>
      </g>
    </g>
    <g id="グループ_991" data-name="グループ 991" transform="translate(310.016 375.541)">
      <g id="グループ_960" data-name="グループ 960">
        <path id="パス_1688" data-name="パス 1688" d="M711.732,970.905H675.515a11.529,11.529,0,0,1-10.682-8.745L637.584,839.13c-1.07-4.83,1.978-8.745,6.808-8.745h36.217a11.529,11.529,0,0,1,10.682,8.745l27.249,123.03C719.61,966.99,716.562,970.905,711.732,970.905Z" transform="translate(-637.37 -830.385)" fill="#3d4ca5"/>
      </g>
      <g id="グループ_962" data-name="グループ 962" transform="translate(4.43 27.664)">
        <g id="グループ_961" data-name="グループ 961">
          <rect id="長方形_108" data-name="長方形 108" width="53.707" height="0.233" fill="#aec3ff"/>
        </g>
      </g>
      <g id="グループ_964" data-name="グループ 964" transform="translate(10.85 56.654)">
        <g id="グループ_963" data-name="グループ 963">
          <rect id="長方形_109" data-name="長方形 109" width="53.707" height="0.233" fill="#aec3ff"/>
        </g>
      </g>
      <g id="グループ_966" data-name="グループ 966" transform="translate(17.271 85.644)">
        <g id="グループ_965" data-name="グループ 965">
          <rect id="長方形_110" data-name="長方形 110" width="53.707" height="0.233" fill="#aec3ff"/>
        </g>
      </g>
      <g id="グループ_967" data-name="グループ 967" transform="translate(34.577 7.828)">
        <path id="パス_1689" data-name="パス 1689" d="M746.739,865.82c.069-.621-2.708-11.288-2.708-11.288l9.844,7.974-4.837-.172Z" transform="translate(-744.031 -854.532)" fill="#fff"/>
      </g>
      <g id="グループ_970" data-name="グループ 970" transform="translate(43.66 108.867)">
        <g id="グループ_969" data-name="グループ 969">
          <g id="グループ_968" data-name="グループ 968">
            <path id="パス_1690" data-name="パス 1690" d="M795.344,1185.26H776.269l-4.219-19.048h19.075Zm-18.223-1.061h16.9l-3.749-16.927h-16.9Z" transform="translate(-772.05 -1166.211)" fill="#d2e0ff"/>
          </g>
        </g>
      </g>
      <g id="グループ_971" data-name="グループ 971" transform="translate(31.276 99.095)">
        <path id="パス_1691" data-name="パス 1691" d="M755.822,1154.058H737.834l-3.984-17.988h17.988Z" transform="translate(-733.85 -1136.069)" fill="#f77d48"/>
      </g>
      <g id="グループ_973" data-name="グループ 973" transform="translate(47.698 108.925)">
        <g id="グループ_972" data-name="グループ 972">
          <rect id="長方形_111" data-name="長方形 111" width="22.797" height="1.537" transform="translate(0 17.988) rotate(-52.098)" fill="#f77d48"/>
        </g>
      </g>
      <g id="グループ_990" data-name="グループ 990" transform="translate(10.361 7.828)">
        <g id="グループ_974" data-name="グループ 974">
          <path id="パス_1692" data-name="パス 1692" d="M672.037,865.82c.069-.621-2.707-11.288-2.707-11.288l9.844,7.974-4.837-.172Z" transform="translate(-669.33 -854.532)" fill="#d2e0ff"/>
        </g>
        <g id="グループ_981" data-name="グループ 981" transform="translate(4.497 29.832)">
          <g id="グループ_976" data-name="グループ 976">
            <g id="グループ_975" data-name="グループ 975">
              <path id="パス_1693" data-name="パス 1693" d="M685.225,949.145h-1.45l-.573-2.589h9.838l.551,2.486h-1.45l-.23-1.036h-6.939Z" transform="translate(-683.202 -946.556)" fill="#d2e0ff"/>
            </g>
          </g>
          <g id="グループ_978" data-name="グループ 978" transform="translate(4.355 0.725)">
            <g id="グループ_977" data-name="グループ 977">
              <path id="パス_1694" data-name="パス 1694" d="M699.9,956.974h-1.45l-1.812-8.182h1.45Z" transform="translate(-696.636 -948.792)" fill="#d2e0ff"/>
            </g>
          </g>
          <g id="グループ_980" data-name="グループ 980" transform="translate(4.769 7.974)">
            <g id="グループ_979" data-name="グループ 979">
              <path id="パス_1695" data-name="パス 1695" d="M702.068,972.605h-3.832l-.321-1.45h3.832Z" transform="translate(-697.915 -971.155)" fill="#d2e0ff"/>
            </g>
          </g>
        </g>
        <g id="グループ_983" data-name="グループ 983" transform="translate(31.731 28.343)">
          <g id="グループ_982" data-name="グループ 982">
            <path id="パス_1696" data-name="パス 1696" d="M768.521,953.781l-1.31-.943,6.912-10.874,1.31.944Z" transform="translate(-767.211 -941.963)" fill="#d2e0ff"/>
          </g>
        </g>
        <g id="グループ_988" data-name="グループ 988" transform="translate(10.18 55.465)">
          <g id="グループ_985" data-name="グループ 985">
            <g id="グループ_984" data-name="グループ 984">
              <path id="パス_1697" data-name="パス 1697" d="M706.984,1035.666a6.624,6.624,0,0,1-6.13-5.019,3.906,3.906,0,0,1,3.907-5.018,6.624,6.624,0,0,1,6.13,5.018A3.906,3.906,0,0,1,706.984,1035.666Zm-1.929-8.711a2.874,2.874,0,0,0-2.875,3.692,4.875,4.875,0,0,0,4.511,3.693,2.874,2.874,0,0,0,2.875-3.693A4.874,4.874,0,0,0,705.055,1026.955Z" transform="translate(-700.732 -1025.629)" fill="#d2e0ff"/>
            </g>
          </g>
          <g id="グループ_987" data-name="グループ 987" transform="translate(8.303 7.449)">
            <g id="グループ_986" data-name="グループ 986">
              <path id="パス_1698" data-name="パス 1698" d="M733.844,1055.551a.823.823,0,0,1-.522-.2l-6.673-5.618a.693.693,0,0,1-.192-.937.666.666,0,0,1,.941.016l6.673,5.618a.694.694,0,0,1,.191.938A.527.527,0,0,1,733.844,1055.551Z" transform="translate(-726.345 -1048.607)" fill="#d2e0ff"/>
            </g>
          </g>
        </g>
        <g id="グループ_989" data-name="グループ 989" transform="translate(35.187 55.004)">
          <path id="パス_1699" data-name="パス 1699" d="M783.124,1024.2l2.484,4.546h4.78l-3.245,2.81,2.484,4.546-4.49-2.81-3.245,2.81.47-4.546-4.49-2.81h4.78Z" transform="translate(-777.873 -1024.204)" fill="#d2e0ff"/>
        </g>
      </g>
    </g>
    <g id="グループ_1020" data-name="グループ 1020" transform="translate(661.419 364.266)">
      <g id="グループ_992" data-name="グループ 992" transform="translate(148.205 32.87)">
        <path id="パス_1700" data-name="パス 1700" d="M2191.439,898.438s.131,7.164-.944,7.031-2.534-6.006-2.545-5.918.486,6.177-.865,6.481-2.723-6.446-2.723-6.446.907,5.792-.044,5.947-2.447-5.464-2.839-5.48,1.26,4.817.1,5.062-3.743-6.551-2.867-7.418,2.239.06,2.239.06,1.683-1.248,2.977-.54c0,0,3.032-.606,3.943.738A2.4,2.4,0,0,1,2191.439,898.438Z" transform="translate(-2178.537 -897)" fill="#ed917e"/>
      </g>
      <g id="グループ_1019" data-name="グループ 1019">
        <g id="グループ_993" data-name="グループ 993">
          <path id="パス_1701" data-name="パス 1701" d="M1902.022,802.471l24.577,88.617c1.052,3.792-1.347,6.865-5.358,6.865h-165.89a9.992,9.992,0,0,1-9.165-6.865l-24.577-88.617c-1.051-3.792,1.347-6.866,5.357-6.866h165.89A9.993,9.993,0,0,1,1902.022,802.471Z" transform="translate(-1721.361 -795.605)" fill="#d2e0ff"/>
        </g>
        <g id="グループ_998" data-name="グループ 998" transform="translate(9.033 13.809)">
          <g id="グループ_994" data-name="グループ 994" transform="translate(15.249 11.614)">
            <path id="パス_1702" data-name="パス 1702" d="M1823.63,895.451h-21.424l-5.942-21.424h21.424Z" transform="translate(-1796.265 -874.027)" fill="#b3c2ff"/>
          </g>
          <g id="グループ_995" data-name="グループ 995" transform="translate(21.951 16.861)">
            <path id="パス_1703" data-name="パス 1703" d="M1830.9,901.144h-10.93l-3.031-10.929h10.929Z" transform="translate(-1816.94 -890.214)" fill="#505aba"/>
          </g>
          <g id="グループ_996" data-name="グループ 996" transform="translate(20.509 11.121)">
            <rect id="長方形_112" data-name="長方形 112" width="26.433" height="1.682" transform="matrix(0.586, -0.811, 0.811, 0.586, 0, 21.426)" fill="#f77d48"/>
          </g>
          <g id="グループ_997" data-name="グループ 997">
            <path id="パス_1704" data-name="パス 1704" d="M1776.592,859.625h-21.424l-5.941-21.424h21.424Z" transform="translate(-1749.227 -838.201)" fill="#f77d48"/>
          </g>
        </g>
        <g id="グループ_1011" data-name="グループ 1011" transform="translate(26.569 54.903)">
          <g id="グループ_999" data-name="グループ 999">
            <path id="パス_1705" data-name="パス 1705" d="M1825.321,982.19H1808.1l-4.777-17.224h17.224Z" transform="translate(-1803.32 -964.966)" fill="#f77d48"/>
          </g>
          <g id="グループ_1000" data-name="グループ 1000" transform="translate(17.064)">
            <path id="パス_1706" data-name="パス 1706" d="M1877.959,982.19h-17.224l-4.777-17.224h17.224Z" transform="translate(-1855.959 -964.966)" fill="#ed7d2b"/>
          </g>
          <g id="グループ_1001" data-name="グループ 1001" transform="translate(34.288)">
            <path id="パス_1707" data-name="パス 1707" d="M1931.09,982.19h-17.224l-4.777-17.224h17.224Z" transform="translate(-1909.09 -964.966)" fill="#ff8939"/>
          </g>
          <g id="グループ_1002" data-name="グループ 1002" transform="translate(51.512)">
            <path id="パス_1708" data-name="パス 1708" d="M1984.222,982.19H1967l-4.777-17.224h17.224Z" transform="translate(-1962.221 -964.966)" fill="#739af0"/>
          </g>
          <g id="グループ_1003" data-name="グループ 1003" transform="translate(68.736)">
            <path id="パス_1709" data-name="パス 1709" d="M2037.353,982.19h-17.224l-4.777-17.224h17.224Z" transform="translate(-2015.353 -964.966)" fill="#8c9df4"/>
          </g>
          <g id="グループ_1004" data-name="グループ 1004" transform="translate(85.959)">
            <path id="パス_1710" data-name="パス 1710" d="M2090.484,982.19H2073.26l-4.777-17.224h17.224Z" transform="translate(-2068.483 -964.966)" fill="#6b80dd"/>
          </g>
          <g id="グループ_1005" data-name="グループ 1005" transform="translate(103.183)">
            <path id="パス_1711" data-name="パス 1711" d="M2143.616,982.19h-17.224l-4.777-17.224h17.224Z" transform="translate(-2121.615 -964.966)" fill="#505aba"/>
          </g>
          <g id="グループ_1006" data-name="グループ 1006" transform="translate(120.407)">
            <path id="パス_1712" data-name="パス 1712" d="M2196.747,982.19h-17.224l-4.777-17.224h17.224Z" transform="translate(-2174.746 -964.966)" fill="#2b478b"/>
          </g>
          <g id="グループ_1007" data-name="グループ 1007" transform="translate(4.777 17.224)">
            <path id="パス_1713" data-name="パス 1713" d="M1840.056,1035.321h-17.224l-4.777-17.224h17.224Z" transform="translate(-1818.056 -1018.098)" fill="#a4b5ff"/>
          </g>
          <g id="グループ_1008" data-name="グループ 1008" transform="translate(21.841 17.224)">
            <path id="パス_1714" data-name="パス 1714" d="M1892.695,1035.321h-17.224l-4.777-17.224h17.224Z" transform="translate(-1870.694 -1018.098)" fill="#8c9df4"/>
          </g>
          <g id="グループ_1009" data-name="グループ 1009" transform="translate(39.065 17.224)">
            <path id="パス_1715" data-name="パス 1715" d="M1945.826,1035.321H1928.6l-4.777-17.224h17.224Z" transform="translate(-1923.825 -1018.098)" fill="#505aba"/>
          </g>
          <g id="グループ_1010" data-name="グループ 1010" transform="translate(56.288 17.224)">
            <path id="パス_1716" data-name="パス 1716" d="M1998.957,1035.321h-17.224l-4.777-17.224h17.224Z" transform="translate(-1976.956 -1018.098)" fill="#2b478b"/>
          </g>
        </g>
        <g id="グループ_1012" data-name="グループ 1012" transform="translate(76.635 16.69)">
          <path id="パス_1717" data-name="パス 1717" d="M2050.948,851.6h-90.223a3.2,3.2,0,0,1-2.88-2.254h0a1.66,1.66,0,0,1,1.629-2.254H2049.7a3.2,3.2,0,0,1,2.879,2.254h0A1.659,1.659,0,0,1,2050.948,851.6Z" transform="translate(-1957.762 -847.088)" fill="#ff8939"/>
        </g>
        <g id="グループ_1013" data-name="グループ 1013" transform="translate(79.793 28.074)">
          <path id="パス_1718" data-name="パス 1718" d="M2060.688,886.713h-90.222a3.2,3.2,0,0,1-2.88-2.254h0a1.659,1.659,0,0,1,1.629-2.254h90.222a3.2,3.2,0,0,1,2.879,2.254h0A1.659,1.659,0,0,1,2060.688,886.713Z" transform="translate(-1967.501 -882.205)" fill="#739af0"/>
        </g>
        <g id="グループ_1014" data-name="グループ 1014" transform="translate(82.95 39.457)">
          <path id="パス_1719" data-name="パス 1719" d="M2070.426,921.829H1980.2a3.2,3.2,0,0,1-2.879-2.254h0a1.659,1.659,0,0,1,1.629-2.254h90.223a3.2,3.2,0,0,1,2.879,2.254h0A1.66,1.66,0,0,1,2070.426,921.829Z" transform="translate(-1977.24 -917.32)" fill="#505aba"/>
        </g>
        <g id="グループ_1018" data-name="グループ 1018" transform="translate(64.26 15.629)">
          <g id="グループ_1015" data-name="グループ 1015">
            <path id="パス_1720" data-name="パス 1720" d="M1919.588,843.816h2.716a2.725,2.725,0,0,1,2.8,1.941,1.347,1.347,0,0,1-.942,1.846l2.285,2.307h-1.262l-2.1-2.124h-1.323l.589,2.124h-1.071Zm3.476,3.021c.766,0,1.143-.4.966-1.036a1.447,1.447,0,0,0-1.542-1.01h-1.558l.567,2.046Z" transform="translate(-1919.588 -843.816)" fill="#505aba"/>
          </g>
          <g id="グループ_1016" data-name="グループ 1016" transform="translate(3.009 11.402)">
            <path id="パス_1721" data-name="パス 1721" d="M1928.993,882.139a2.289,2.289,0,0,1,2.269-3.152,4.2,4.2,0,0,1,2.572.827l-.455.81a3.092,3.092,0,0,0-1.887-.653c-1.123,0-1.7.984-1.375,2.168a2.865,2.865,0,0,0,2.676,2.177,1.954,1.954,0,0,0,1.343-.461l-.316-1.141h-1.558l-.258-.931h2.594l.71,2.56a2.95,2.95,0,0,1-2.279.949A4.258,4.258,0,0,1,1928.993,882.139Z" transform="translate(-1928.869 -878.987)" fill="#505aba"/>
          </g>
          <g id="グループ_1017" data-name="グループ 1017" transform="translate(6.539 23.577)">
            <path id="パス_1722" data-name="パス 1722" d="M1939.758,916.545h2.734a2.794,2.794,0,0,1,1.743.54,1.912,1.912,0,0,1,.694,1.027,1.083,1.083,0,0,1-.494,1.358,2.155,2.155,0,0,1,1.625,1.5c.3,1.088-.433,1.671-1.791,1.671h-2.821Zm3.229,2.568c.688,0,1.074-.27.915-.845a1.2,1.2,0,0,0-1.286-.775h-1.541l.449,1.62Zm1.028,2.577c.731,0,1.1-.287.938-.853-.142-.513-.636-.818-1.481-.818h-1.7l.464,1.671Z" transform="translate(-1939.758 -916.545)" fill="#505aba"/>
          </g>
        </g>
      </g>
    </g>
    <g id="グループ_1046" data-name="グループ 1046" transform="translate(454.352 248.671)">
      <g id="グループ_1041" data-name="グループ 1041">
        <g id="グループ_1021" data-name="グループ 1021" transform="translate(43.462 118.014)">
          <path id="パス_1723" data-name="パス 1723" d="M1217.117,818.276a1.7,1.7,0,0,0-.3,1.813.014.014,0,0,0,0,.009c.437,1.209,1.882,2.558,3.56,3.906.214.173.405.331.571.477.043.038.087.076.128.115s.066.061.1.089c1.565,1.443.976,1.773,3.788,4.7,3.206,3.335,5.413,3.4,6.041,3.092.531-.259-.548-2.028-1.744-4.017-.058-.1-.115-.193-.174-.29-.159-.264-.317-.533-.475-.8-1.4-2.393-1.042-3.516-.709-7.078.27-2.894,4.5-16.169,4.5-16.169l-6.143-1.058s-1.85,10.57-3.889,12.2c-1.09.868-2.31.878-3.358,1.522q-.111.067-.218.138A8.072,8.072,0,0,0,1217.117,818.276Z" transform="translate(-1216.68 -803.067)" fill="#ffb27d"/>
        </g>
        <g id="グループ_1022" data-name="グループ 1022" transform="translate(43.462 131.872)">
          <path id="パス_1724" data-name="パス 1724" d="M1217.117,847.166a1.7,1.7,0,0,0-.3,1.813.014.014,0,0,0,0,.009,13.053,13.053,0,0,0,3.566,3.893c.212.176.4.338.566.489.043.038.087.076.128.115s.066.061.1.089c1.565,1.443.976,1.773,3.788,4.7,3.206,3.335,5.413,3.4,6.041,3.092.531-.259-.548-2.028-1.744-4.017a13.663,13.663,0,0,1-5.715-4.211c-1.86-2.374-3.123-5.4-4.389-7.257l-.361-.067A8.055,8.055,0,0,0,1217.117,847.166Z" transform="translate(-1216.68 -845.815)" fill="#233862"/>
        </g>
        <g id="グループ_1023" data-name="グループ 1023" transform="translate(88.524 116.144)">
          <path id="パス_1725" data-name="パス 1725" d="M1360.6,810.541c.379,1.9,3.083,1.58,6.1.842s2.3.139,6.6-.336,5.6-2.079,5.731-2.718c.117-.567-2.006-.767-4.285-1.03-.287-.032-.574-.067-.862-.1-2.572-.323-4.455-1.983-6.792-3.346-2.213-1.291-5.515-6.551-5.515-6.551l-5.895.467s3.093,4.7,4.29,6.741a7.123,7.123,0,0,1,.579,4.017A7.562,7.562,0,0,0,1360.6,810.541Z" transform="translate(-1355.686 -797.3)" fill="#ffb27d"/>
        </g>
        <g id="グループ_1024" data-name="グループ 1024" transform="translate(93.348 126.144)">
          <path id="パス_1726" data-name="パス 1726" d="M1376.758,832.23c3.02-.738,2.3.139,6.6-.336s5.6-2.079,5.731-2.718c.117-.567-2.006-.767-4.285-1.03l-.021.044a12.121,12.121,0,0,1-6.156,1.913c-2.916.071-6-.765-8.019-.732a7.562,7.562,0,0,0,.045,2.016C1371.035,833.284,1373.738,832.968,1376.758,832.23Z" transform="translate(-1370.565 -828.146)" fill="#233862"/>
        </g>
        <g id="グループ_1025" data-name="グループ 1025" transform="translate(50.625 82.244)">
          <path id="パス_1727" data-name="パス 1727" d="M1259,702.176,1253.488,717l-7.194,19.361a11.659,11.659,0,0,1-3.822-.349,16.577,16.577,0,0,1-3.7-1.8s2-20.788,5.724-32.722a21.256,21.256,0,0,1,3.206-6.935C1253.484,687.732,1259,702.176,1259,702.176Z" transform="translate(-1238.776 -692.727)" fill="#e58638"/>
        </g>
        <g id="グループ_1026" data-name="グループ 1026" transform="translate(11.945 65.183)">
          <path id="パス_1728" data-name="パス 1728" d="M1172.758,643.059c-3.137-1.012-11.321-.016-20.2,1.591a6.022,6.022,0,0,1-6.217-2.808h0L1124,640.1s-7.372,16.349-3.336,26.766a3.919,3.919,0,0,0,3.9,2.519h0s13.5.019,17.818.019c11.11,0,23.513-7.637,25.118-7.958,2.626-.525,3.677,4.727,6.3,10.242s24.687,24.424,24.687,24.424a19.415,19.415,0,0,0,4.791-.491,4.721,4.721,0,0,0,2.058-1.3S1180.9,645.685,1172.758,643.059Z" transform="translate(-1119.458 -640.098)" fill="#f99746"/>
        </g>
        <g id="グループ_1027" data-name="グループ 1027" transform="translate(0.082)">
          <path id="パス_1729" data-name="パス 1729" d="M1119.238,440.347a7.924,7.924,0,0,0-4.267-1.11,11.844,11.844,0,0,1-2.06-.125c-8.526-1.25-13.661,11.135-13.962,14.877-.553,6.871-4.187,7.918-9.3,12.221-10.258,8.628-7.25,18.653-1.641,22.378,3.366,2.235,9.3,0,9.3,0,.084.059,16.223-9.022,24.179-13.4C1133.407,473.49,1124.03,443.2,1119.238,440.347Z" transform="translate(-1082.864 -439.024)" fill="#152949"/>
        </g>
        <g id="グループ_1028" data-name="グループ 1028" transform="translate(21.145 19.924)">
          <path id="パス_1730" data-name="パス 1730" d="M1158.724,512.992c.035.023-3.914,1.371-6.555.2-2.484-1.1-4.366-5.185-4.329-5.187,1.13-.052,2.371-1.04,3.326-7.523l.481.173,8.091,2.911s-.586,2.6-.966,5.068C1158.454,510.711,1158.282,512.7,1158.724,512.992Z" transform="translate(-1147.839 -500.483)" fill="#ffb27d"/>
        </g>
        <g id="グループ_1029" data-name="グループ 1029" transform="translate(24.953 20.096)">
          <path id="パス_1731" data-name="パス 1731" d="M1167.677,503.927s-.323,1.4-.794,4.018a9.136,9.136,0,0,1-7.3-6.929Z" transform="translate(-1159.586 -501.016)" fill="#ed975d"/>
        </g>
        <g id="グループ_1030" data-name="グループ 1030" transform="translate(24.143 6.112)">
          <path id="パス_1732" data-name="パス 1732" d="M1167.193,477.351s-11.07-1.486-10.039-8.366.3-11.7,7.409-11.047,8.088,3.488,8.3,5.868S1170.1,477.56,1167.193,477.351Z" transform="translate(-1157.086 -457.878)" fill="#ffb27d"/>
        </g>
        <g id="グループ_1031" data-name="グループ 1031" transform="translate(20.967 5.504)">
          <path id="パス_1733" data-name="パス 1733" d="M1165.84,458.767s-7.087,6.107-11.907,6.6-6.645-1.055-6.645-1.055a18.824,18.824,0,0,0,4.551-6.166,3.391,3.391,0,0,1,2.794-2C1158.075,455.85,1164.6,455.715,1165.84,458.767Z" transform="translate(-1147.288 -456.002)" fill="#152949"/>
        </g>
        <g id="グループ_1032" data-name="グループ 1032" transform="translate(35.089 6.398)">
          <path id="パス_1734" data-name="パス 1734" d="M1190.852,460.084a17.446,17.446,0,0,1,3.117,3.993,13.4,13.4,0,0,1,.363,7.123s3.694-7.182,1.6-10.672C1193.717,456.828,1190.852,460.084,1190.852,460.084Z" transform="translate(-1190.852 -458.76)" fill="#152949"/>
        </g>
        <g id="グループ_1033" data-name="グループ 1033" transform="translate(11.645 27.186)">
          <path id="パス_1735" data-name="パス 1735" d="M1148.24,544.44c-.335,22.409-.092,17.726-2.543,19.853-.591.512-2.251.817-4.436.961-6.871.456-18.95-.676-19.41-1.946-1.585-4.394-.466-5.759-1.788-12.486-.138-.716-.308-1.49-.509-2.333-1.1-4.62-2.176-6.192,1.736-13.614,3.547-6.724,7.232-12.181,7.564-11.984,9.359,5.555,10.113.886,10.113.886S1148.4,533.51,1148.24,544.44Z" transform="translate(-1118.533 -522.886)" fill="#8c9df4"/>
        </g>
        <g id="グループ_1034" data-name="グループ 1034" transform="translate(50.625 91.012)">
          <path id="パス_1736" data-name="パス 1736" d="M1253.488,735.283l-7.194,19.361a11.659,11.659,0,0,1-3.822-.349,16.579,16.579,0,0,1-3.7-1.8s2-20.788,5.724-32.722Z" transform="translate(-1238.776 -719.774)" fill="#f99746"/>
        </g>
        <g id="グループ_1035" data-name="グループ 1035" transform="translate(32.079 28.076)">
          <path id="パス_1737" data-name="パス 1737" d="M1181.567,525.631s9.63,1.633,10.761,5.779,4.853,29.312,4.853,29.312-2.715,2.652-4.977.39-7.117-23.546-7.117-23.546Z" transform="translate(-1181.567 -525.631)" fill="#8c9df4"/>
        </g>
        <g id="グループ_1036" data-name="グループ 1036" transform="translate(13.174 45.79)">
          <path id="パス_1738" data-name="パス 1738" d="M1144.449,604.039c-6.871.456-18.95-.676-19.41-1.946-1.585-4.394-.466-5.759-1.788-12.486l3.314-9.333s-.548,10.392,2.517,13.126,12.548,5.277,14.038,7.56A8.355,8.355,0,0,1,1144.449,604.039Z" transform="translate(-1123.251 -580.275)" fill="#707fe5"/>
        </g>
        <g id="グループ_1037" data-name="グループ 1037" transform="translate(26.5 64.134)">
          <path id="パス_1739" data-name="パス 1739" d="M1164.356,637.91s6.779-1.509,7.873-.908,3.767,2.792,4.1,3.555-2.435-.579-3.336-.82a8.025,8.025,0,0,0-2.879.631,9.571,9.571,0,0,1-5.16.518Z" transform="translate(-1164.356 -636.861)" fill="#ffb27d"/>
        </g>
        <g id="グループ_1038" data-name="グループ 1038" transform="translate(0 27.186)">
          <path id="パス_1740" data-name="パス 1740" d="M1104.571,522.887s-9.1.56-12.254,4.955c-4.436,6.187-13.235,32.552-8.192,36.069,5.679,3.96,25.847,1.036,25.847,1.036s.671-3.137-.263-4.655-16.108-3.969-16.808-4.669,8.754-13.657,8.754-15.758S1104.571,522.887,1104.571,522.887Z" transform="translate(-1082.611 -522.887)" fill="#8c9df4"/>
        </g>
        <g id="グループ_1039" data-name="グループ 1039" transform="translate(34.701 66.162)">
          <path id="パス_1741" data-name="パス 1741" d="M1189.654,643.118a13.126,13.126,0,0,0,1.886,2.051,1.388,1.388,0,0,0,.766.164l-.957-1.723Z" transform="translate(-1189.654 -643.118)" fill="#ffb27d"/>
        </g>
        <g id="グループ_1040" data-name="グループ 1040" transform="translate(34.373 64.276)">
          <path id="パス_1742" data-name="パス 1742" d="M1188.642,637.3l4.13,2.005a.736.736,0,0,1-.684.264,9.837,9.837,0,0,1-1.791-.492Z" transform="translate(-1188.642 -637.298)" fill="#ffb27d"/>
        </g>
      </g>
      <g id="グループ_1045" data-name="グループ 1045" transform="translate(26.5 45.506)">
        <g id="グループ_1042" data-name="グループ 1042" transform="translate(0 23.485)">
          <path id="パス_1743" data-name="パス 1743" d="M1207.493,651.841h-43.137v.952h42.754Z" transform="translate(-1164.356 -651.841)" fill="#152949"/>
        </g>
        <g id="グループ_1043" data-name="グループ 1043" transform="translate(10.087)">
          <path id="パス_1744" data-name="パス 1744" d="M1195.472,603.833h32.667l9.827-24.436h-32.616Z" transform="translate(-1195.472 -579.397)" fill="#152949"/>
        </g>
        <g id="グループ_1044" data-name="グループ 1044" transform="translate(31.334 10.663)">
          <path id="パス_1745" data-name="パス 1745" d="M1264.187,613.845a1.132,1.132,0,0,0-1.11-1.555,2.229,2.229,0,0,0-2,1.555,1.132,1.132,0,0,0,1.109,1.555A2.229,2.229,0,0,0,1264.187,613.845Z" transform="translate(-1261.013 -612.29)" fill="#ebf3fa"/>
        </g>
      </g>
    </g>
    <g id="グループ_1047" data-name="グループ 1047" transform="translate(509.213 467.796)">
      <rect id="長方形_113" data-name="長方形 113" width="4.442" height="4.442" transform="translate(2.916 0) rotate(41.028)" fill="#fff"/>
    </g>
    <g id="グループ_1070" data-name="グループ 1070" transform="translate(375.148 469.211)">
      <g id="グループ_1048" data-name="グループ 1048" transform="translate(26.654 49.299)">
        <path id="パス_1746" data-name="パス 1746" d="M987.986,1279.922c-.668-2.22-1-2.42-1-2.42s-20.769,2.589-24.3,2.361c-2.091-.135-27.037-8.453-27.037-8.453l-15.144,14.525s37.561,6.188,42.855,5.783c8.749-.67,22.1-8.392,22.1-8.392S988.511,1281.665,987.986,1279.922Z" transform="translate(-920.51 -1271.409)" fill="#e58638"/>
      </g>
      <g id="グループ_1049" data-name="グループ 1049" transform="translate(37.362 220.645)">
        <path id="パス_1747" data-name="パス 1747" d="M953.54,1802.933s.29,7.039,1.641,8.75l18.8.109a2.942,2.942,0,0,0-2.81-2.859,12.612,12.612,0,0,1-9.132-7.205C959.948,1797.159,953.54,1802.933,953.54,1802.933Z" transform="translate(-953.54 -1799.969)" fill="#214c7f"/>
      </g>
      <g id="グループ_1050" data-name="グループ 1050" transform="translate(0 219.735)">
        <path id="パス_1748" data-name="パス 1748" d="M838.753,1800.021s-1.311,9.35.469,9.514c.237.021,7.577.14,10.755.193,3.738.063,9.88-.069,9.88-.069a.977.977,0,0,0,.885-1.47,3.942,3.942,0,0,0-2.825-1.812c-3.274-.63-8.731-3.035-10.644-7.411C845.261,1794.362,838.753,1800.021,838.753,1800.021Z" transform="translate(-838.288 -1797.161)" fill="#214c7f"/>
      </g>
      <g id="グループ_1051" data-name="グループ 1051" transform="translate(0.465 108.852)">
        <path id="パス_1749" data-name="パス 1749" d="M886.4,1473.037s-5.228,18.294-20.211,50.061-15.631,47.077-15.631,47.077a13.169,13.169,0,0,1-5.277.481,14.184,14.184,0,0,1-5.553-1.8s.971-37.812,8.048-53.843,8.52-59.9,8.52-59.9Z" transform="translate(-839.723 -1455.114)" fill="#707fe5"/>
      </g>
      <g id="グループ_1052" data-name="グループ 1052" transform="translate(21.459 111.035)">
        <path id="パス_1750" data-name="パス 1750" d="M938.555,1461.85a456.179,456.179,0,0,1-4.485,63.107c-4.9,34.78-2.609,50.955-2.609,50.955s-1.3.946-5.3.93c-4.678-.018-7.074-1.951-7.074-1.951s-7.015-34.793-5-52.2-9.606-59.735-9.606-59.735Z" transform="translate(-904.483 -1461.85)" fill="#8c9df4"/>
      </g>
      <g id="グループ_1053" data-name="グループ 1053" transform="translate(32.394 30.744)">
        <path id="パス_1751" data-name="パス 1751" d="M949.969,1223.854c-.05,2.223-.346,4.643-1.235,5.828l-4.988,2.618-5.531-4.1a24.7,24.7,0,0,0,1.531-11.063c-.049-.4-.246-2.914-.246-2.963l2.766,1.383,7.507,3.754a1.577,1.577,0,0,0,.049.345C949.87,1220.4,949.969,1222.026,949.969,1223.854Z" transform="translate(-938.214 -1214.173)" fill="#ffb27d"/>
      </g>
      <g id="グループ_1054" data-name="グループ 1054" transform="translate(16.063 42.324)">
        <path id="パス_1752" data-name="パス 1752" d="M888.286,1322.1c1.81,8.279,40.553,4.645,40.048-.409-.019-.169-.12-2.508-.26-5.661-.294-6.82-.741-17.478-.8-18.31,0-.014,0-.029,0-.043-.7-7.037-1.367-13.921-1.411-18.416a63.856,63.856,0,0,0-1.29-11.5c-.659-3.341-1.468-6.373-2.171-8.736a9.66,9.66,0,0,0-5.661-6.2,8.388,8.388,0,0,0-.938-.327c-4.558-1.324-9.158-3.008-10.866-2.507-4.63,1.362-9.783,9.564-12.219,19.956C888.156,1289.391,887.1,1316.707,888.286,1322.1Z" transform="translate(-887.838 -1249.893)" fill="#f99746"/>
      </g>
      <g id="グループ_1055" data-name="グループ 1055" transform="translate(34.27 32.127)">
        <path id="パス_1753" data-name="パス 1753" d="M953.88,1226.736c-2.815-1.136-8.2-3.7-9.681-6.619-.642-1.284.346-1.679,1.976-1.679l7.507,3.754a1.578,1.578,0,0,0,.049.345C953.781,1223.279,953.88,1224.908,953.88,1226.736Z" transform="translate(-944.002 -1218.438)" fill="#fca56b"/>
      </g>
      <g id="グループ_1056" data-name="グループ 1056" transform="translate(28.763 13.229)">
        <path id="パス_1754" data-name="パス 1754" d="M945.817,1182.331s-13.482,4.206-15.972-4.231-5.907-13.575,2.6-16.618,11.133-.318,12.649,2.3S949.26,1181.02,945.817,1182.331Z" transform="translate(-927.015 -1160.141)" fill="#ffb27d"/>
      </g>
      <g id="グループ_1057" data-name="グループ 1057" transform="translate(22.879 8.623)">
        <path id="パス_1755" data-name="パス 1755" d="M932.293,1153.363s-.86,9.818-2.89,9.391-3.872-.742-3.574,2.217.393,6.517-5.864,7.04-12.532-15.753-10.813-18.808C914.111,1144.388,939.462,1142.609,932.293,1153.363Z" transform="translate(-908.863 -1145.932)" fill="#163560"/>
      </g>
      <g id="グループ_1058" data-name="グループ 1058" transform="translate(32.604 76.426)">
        <path id="パス_1756" data-name="パス 1756" d="M962.558,1387.126c-.294-6.82-.741-17.478-.8-18.31,0-.014,0-.029,0-.043l-22.888-13.685S937.981,1387.035,962.558,1387.126Z" transform="translate(-938.863 -1355.088)" fill="#e58638"/>
      </g>
      <g id="グループ_1065" data-name="グループ 1065" transform="translate(22.556)">
        <g id="グループ_1062" data-name="グループ 1062" transform="translate(91.124)">
          <g id="グループ_1059" data-name="グループ 1059">
            <path id="パス_1757" data-name="パス 1757" d="M1210.542,1119.334l4.124,3.589s-7.069,7.569-6.412,15.533l-10.555,8.912-8.739-7.608,7.308-12.122S1204.1,1127.354,1210.542,1119.334Z" transform="translate(-1188.96 -1119.334)" fill="#163560"/>
          </g>
          <g id="グループ_1060" data-name="グループ 1060" transform="translate(10.279 12.14)">
            <path id="パス_1758" data-name="パス 1758" d="M1221.245,1157.59a2.348,2.348,0,1,1,.23,3.313A2.348,2.348,0,0,1,1221.245,1157.59Z" transform="translate(-1220.668 -1156.783)" fill="#fff"/>
          </g>
          <g id="グループ_1061" data-name="グループ 1061" transform="translate(10.863 1.509)">
            <rect id="長方形_114" data-name="長方形 114" width="0.895" height="18.987" transform="matrix(0.754, 0.657, -0.657, 0.754, 12.466, 0)" fill="#fff"/>
          </g>
        </g>
        <g id="グループ_1063" data-name="グループ 1063" transform="translate(89.212 20.426)">
          <rect id="長方形_115" data-name="長方形 115" width="11.591" height="2.912" transform="matrix(0.754, 0.656, -0.656, 0.754, 1.912, 0)" fill="#6c7aff"/>
        </g>
        <g id="グループ_1064" data-name="グループ 1064" transform="translate(0 22.623)">
          <path id="パス_1759" data-name="パス 1759" d="M910.185,1298.242l-.424-.369a5.515,5.515,0,0,1-.54-7.78l87.857-100.973,8.744,7.608L917.965,1297.7A5.514,5.514,0,0,1,910.185,1298.242Z" transform="translate(-907.867 -1189.121)" fill="#163560"/>
        </g>
      </g>
      <g id="グループ_1066" data-name="グループ 1066" transform="translate(73.686 71.471)">
        <path id="パス_1760" data-name="パス 1760" d="M1066.216,1347.869a9.684,9.684,0,0,0,2.084-2.534,3.508,3.508,0,0,1,3.25-1.843c1.793.132,4.983-3.689,4.983-3.689.463,1.01,2.065,4.8-.226,6.72-1.868,1.566-6.366,4.278-9.095,6.063C1064.283,1354.5,1066.216,1347.869,1066.216,1347.869Z" transform="translate(-1065.59 -1339.803)" fill="#ffb27d"/>
      </g>
      <g id="グループ_1067" data-name="グループ 1067" transform="translate(30.642 50.625)">
        <path id="パス_1761" data-name="パス 1761" d="M976.7,1303.85s-22.7,3.859-24.714,2.88c-3.211-1.563,1.246-24.6,1.246-24.6s.192-5.221-5.906-6.452c-5.3-1.07-10.411,2.9-10.411,2.9s-4.65,4.16-4.055,8.775c1.317,10.229,3.365,31.033,10.206,34.222,8.824,4.113,34.359-11.406,34.359-11.406a4.467,4.467,0,0,0,.729-2.975A6.935,6.935,0,0,0,976.7,1303.85Z" transform="translate(-932.811 -1275.498)" fill="#f99746"/>
      </g>
      <g id="グループ_1068" data-name="グループ 1068" transform="translate(95.078 52.156)">
        <path id="パス_1762" data-name="パス 1762" d="M1131.579,1287.529s5.73-2.088,5.225-5.019-2.291-2.56-3.368-1.549S1132.956,1287.159,1131.579,1287.529Z" transform="translate(-1131.579 -1280.224)" fill="#ffb27d"/>
      </g>
      <g id="グループ_1069" data-name="グループ 1069" transform="translate(76.001 72.548)">
        <path id="パス_1763" data-name="パス 1763" d="M1072.731,1348.614a13.388,13.388,0,0,1,1.615-3.281c.834-.985,1.187-2.653,1.566-2.1s-.3,2.552,0,3.31S1072.731,1348.614,1072.731,1348.614Z" transform="translate(-1072.731 -1343.125)" fill="#ffb27d"/>
      </g>
    </g>
    <g id="グループ_1071" data-name="グループ 1071" transform="translate(856.184 665.754)">
      <rect id="長方形_116" data-name="長方形 116" width="102.654" height="35.654" fill="#aec3ff"/>
    </g>
    <g id="グループ_1072" data-name="グループ 1072" transform="translate(152.992 701.171)">
      <rect id="長方形_117" data-name="長方形 117" width="873.334" height="2.517" rx="1.259" transform="translate(0)" fill="#233862"/>
    </g>
  </g>
</svg>
