<svg xmlns="http://www.w3.org/2000/svg" width="131.236" height="138.918" viewBox="0 0 131.236 138.918">
  <g id="グループ_558" data-name="グループ 558" transform="translate(-240.871 -171.839)">
    <g id="グループ_557" data-name="グループ 557" transform="translate(240.871 171.839)">
      <g id="グループ_556" data-name="グループ 556">
        <path id="パス_1237" data-name="パス 1237" d="M358.349,199.753a9.325,9.325,0,0,0-13.061-1.556L318.943,218.84a7.435,7.435,0,0,1-4.586,1.586l-18.879.019a4.653,4.653,0,1,1-.007-9.305l15.819-.015a9.305,9.305,0,0,0-.019-18.611l-17.52.015-11.959.015-6.741,0-2.445,0a22.353,22.353,0,0,0-13.783,4.772L245.9,207.469a1.861,1.861,0,0,0-.313,2.617l25.106,31.75a1.845,1.845,0,0,0,1.44.707l30.369.257,8.4.071a22.352,22.352,0,0,0,14.036-4.813l31.884-25.21A9.322,9.322,0,0,0,358.349,199.753Z" transform="translate(-229.124 -115.561)" fill="#173042"/>
        <path id="パス_1238" data-name="パス 1238" d="M250.031,272.133a1.856,1.856,0,0,0-2.613-.305l-5.84,4.616a1.859,1.859,0,0,0-.305,2.613l24.507,30.994a1.859,1.859,0,0,0,2.613.305l5.84-4.615a1.867,1.867,0,0,0,.305-2.617Zm71.54-100.294a32.779,32.779,0,1,0,32.781,32.777A32.779,32.779,0,0,0,321.571,171.839Zm-1.824,26.476,7.567,3.893a11.416,11.416,0,0,1,6.1,12.149,11.106,11.106,0,0,1-6.547,8.55v1.009a4.653,4.653,0,1,1-9.305,0V223.2a13.735,13.735,0,0,1-8.289-7.563,4.653,4.653,0,1,1,8.535-3.707,4.487,4.487,0,0,0,4.5,2.673,1.983,1.983,0,0,0,1.924-1.72,2.227,2.227,0,0,0-1.176-2.4l-7.567-3.893a11.477,11.477,0,0,1-6.041-12.406,11.155,11.155,0,0,1,8.118-8.907v-.692a4.653,4.653,0,1,1,9.305,0v1.708a13.647,13.647,0,0,1,6.637,6.849,4.654,4.654,0,0,1-8.535,3.715,4.468,4.468,0,0,0-4.5-2.676,1.991,1.991,0,0,0-1.88,1.716A2.143,2.143,0,0,0,319.747,198.315Z" transform="translate(-240.871 -171.839)" fill="#173042"/>
      </g>
    </g>
  </g>
</svg>
