<svg xmlns="http://www.w3.org/2000/svg" width="845.963" height="468.509" viewBox="0 0 845.963 468.509">
  <g id="グループ_592" data-name="グループ 592" transform="translate(-123.545 -146)">
    <path id="パス_1239" data-name="パス 1239" d="M343.14,146.849c119.524-6.912,244.84,29.092,226.42,81.284s98.481-18.538,145.132.279c33.213,13.4,19.936,54.179,36,70.613,36.841,37.679,74.52-9.769,121.409,18.7S899.5,612.418,880.4,612.38l-723.077-1.32-8.652.279s-53.029-76.474-5.024-121.13,15.045-65.075,9.211-82.335c-6.7-19.816-22.328-54.425,45.772-79.823s50.517-80.66,48.843-92.1-23.861-82.187,95.663-89.1Z" transform="translate(0)" fill="#eafcfc"/>
    <rect id="長方形_63" data-name="長方形 63" width="54.775" height="423.974" transform="translate(711.567 187.158)" fill="#9bc1f9" opacity="0.6"/>
    <rect id="長方形_64" data-name="長方形 64" width="54.775" height="294.652" transform="translate(635.071 316.48)" fill="#9bc1f9" opacity="0.6"/>
    <rect id="長方形_65" data-name="長方形 65" width="54.775" height="332.116" transform="translate(789.164 279.016)" fill="#9bc1f9" opacity="0.6"/>
    <rect id="長方形_66" data-name="長方形 66" width="54.775" height="345.177" transform="translate(558.574 265.954)" fill="#9bc1f9" opacity="0.6"/>
    <rect id="長方形_67" data-name="長方形 67" width="54.775" height="242.834" transform="translate(482.078 368.298)" fill="#9bc1f9" opacity="0.6"/>
    <g id="グループ_559" data-name="グループ 559" transform="translate(482.078 284.872)">
      <rect id="長方形_68" data-name="長方形 68" width="54.775" height="326.26" transform="translate(229.488 0)" fill="#9bc1f9" opacity="0.3" style="mix-blend-mode: multiply;isolation: isolate"/>
      <rect id="長方形_69" data-name="長方形 69" width="54.775" height="226.743" transform="translate(152.992 99.517)" fill="#9bc1f9" opacity="0.3" style="mix-blend-mode: multiply;isolation: isolate"/>
      <rect id="長方形_70" data-name="長方形 70" width="54.775" height="255.573" transform="translate(307.085 70.687)" fill="#9bc1f9" opacity="0.3" style="mix-blend-mode: multiply;isolation: isolate"/>
      <rect id="長方形_71" data-name="長方形 71" width="54.775" height="265.623" transform="translate(76.496 60.636)" fill="#9bc1f9" opacity="0.3" style="mix-blend-mode: multiply;isolation: isolate"/>
      <rect id="長方形_72" data-name="長方形 72" width="54.775" height="186.867" transform="translate(0 139.392)" fill="#9bc1f9" opacity="0.3" style="mix-blend-mode: multiply;isolation: isolate"/>
    </g>
    <path id="パス_1240" data-name="パス 1240" d="M1823.958,308.447l-43.647,33.01,16.649,1.062-104.19,183.373-57.689-86.49-81.608,190.354L1500.982,555.2l-65.425,92.482,4.117,16.552,61.28-86.2,55.487,78.81,81.308-189.655,55.973,83.917,115.35-203.014,10.709,11.517Z" transform="translate(-953.395 -118.045)" fill="#5183bf"/>
    <g id="グループ_561" data-name="グループ 561" transform="translate(191.003 298.401)">
      <path id="パス_1241" data-name="パス 1241" d="M611.6,893.7c-62.634-49.877-115.261-114.389-155.109-190.138l-86.148,69.2c46.072,87.583,106.921,162.173,179.34,219.842Z" transform="translate(-370.344 -703.564)" fill="#3c8f7c"/>
      <path id="パス_1242" data-name="パス 1242" d="M484.274,769.735l-53.513,43.674c4.248,7.92,2.706,18.6-3.622,24.023,40.5,71.614,91.26,133.836,150.366,184.325,4.833-7.253,13.941-8.661,20.487-3.349l39.043-61.413c-6.023-4.889-6.884-14.879-2.054-22.126C583.077,890.532,538.5,835.892,502.937,773,496.613,778.42,488.184,777.022,484.274,769.735Z" transform="translate(-411.615 -751.648)" fill="#96d9c9"/>
      <g id="グループ_560" data-name="グループ 560" transform="translate(84.129 112.109)">
        <path id="パス_1243" data-name="パス 1243" d="M738.751,1183.405c13.373-17.258,13.245-42.72.63-57.951-12.649-15.192-34.26-15.907-49.211-.549-14.927,15.327-16.353,42.571-2.133,59.675C702.242,1201.7,725.406,1200.636,738.751,1183.405Z" transform="translate(-678.134 -1113.719)" fill="#50bfa5"/>
        <path id="パス_1244" data-name="パス 1244" d="M777.809,1172.978q-2.52,2.8-5.042,5.6c4.02,7.369,3.169,14.984-1.165,19.959-4.376,5.01-9.276,5.474-16.745,1.048-5.425-3.065-8.032-3.969-9.685-2.178-1.4,1.512-1.862,4.256,1.1,8a20.444,20.444,0,0,0,4.644,4.348,5.023,5.023,0,0,1,1.328,6.378h0a3.605,3.605,0,0,1-5.351,1.552,28.542,28.542,0,0,1-4.891-4.539q-2.181,2.407-4.362,4.813-2.284-2.864-4.541-5.758l4.748-5.146c-3.84-7.416-3.077-14.788,1.38-19.465,4.92-5.167,10.608-3.58,17.129.51,4.522,2.822,7.143,3.267,9.016,1.183,1.974-2.2,1.331-5.555-1.156-8.726a22.173,22.173,0,0,0-5.642-5.068c-1.919-1.208-2.441-4.165-1.15-6.374l.141-.242c1.171-2.006,3.408-2.685,5.113-1.572a30.063,30.063,0,0,1,6.188,5.506l4.735-5.163Q775.693,1170.324,777.809,1172.978Z" transform="translate(-718.077 -1152.267)" fill="#3c8f7c"/>
        <path id="パス_1245" data-name="パス 1245" d="M952.779,1427.953q-21.41-18.332-41.23-38.816l-6.788,8.827q20.082,20.751,41.808,39.36Z" transform="translate(-842.816 -1313.856)" fill="#50bfa5"/>
      </g>
    </g>
    <g id="グループ_563" data-name="グループ 563" transform="translate(151.266 390.849)">
      <path id="パス_1246" data-name="パス 1246" d="M493.189,1119.368c-78.672-9.977-155.827-36.3-227.4-77.58l-40.82,95.641c82.756,47.73,171.965,78.164,262.928,89.7Z" transform="translate(-224.966 -1041.788)" fill="#3c8f7c"/>
      <path id="パス_1247" data-name="パス 1247" d="M297.378,1101.075l-25.021,59.955c7.554,4.277,11.443,13.484,8.608,20.777,70.12,37.69,144.536,63.077,220.45,75.208.642-8.04,7.847-13.463,16.117-12.342q1.9-33.6,3.806-67.193c-7.61-1.033-13.241-8.554-12.6-16.589-66.664-10.653-132.013-32.947-193.589-66.044C312.318,1102.135,304.33,1105.01,297.378,1101.075Z" transform="translate(-259.403 -1080.345)" fill="#96d9c9"/>
      <g id="グループ_562" data-name="グループ 562" transform="translate(108.492 68.48)">
        <path id="パス_1248" data-name="パス 1248" d="M693.9,1340.423c3.151-20.017-9.411-40.164-27.792-46.289-18.391-6.078-37.471,3.57-42.917,22.825-5.441,19.219,6.645,41.515,27.333,48.367C671.2,1372.2,690.757,1360.405,693.9,1340.423Z" transform="translate(-621.886 -1292.325)" fill="#50bfa5"/>
        <path id="パス_1249" data-name="パス 1249" d="M723.918,1321.652q-.816,3.412-1.633,6.824c7.088,3.948,10.074,10.393,8.75,16.391-1.343,6.044-5.362,8.728-14,8.747-6.2.132-8.9.646-9.458,2.849-.473,1.861.467,4.258,4.869,5.831a21.374,21.374,0,0,0,6.151,1.255,4.647,4.647,0,0,1,4.27,4.434h0a3.55,3.55,0,0,1-3.878,3.76,29.855,29.855,0,0,1-6.459-1.29q-.713,2.941-1.427,5.882-3.38-1.193-6.751-2.424.8-3.164,1.6-6.328c-6.954-4.07-9.9-10.282-8.322-16.1,1.737-6.426,7.443-7.856,15.095-7.692,5.3.1,7.788-.783,8.392-3.323.634-2.679-1.563-5.037-5.268-6.378a23.242,23.242,0,0,0-7.367-1.355,4.434,4.434,0,0,1-4.114-4.515c0-.086,0-.172,0-.259a3.562,3.562,0,0,1,3.663-3.664,31.563,31.563,0,0,1,8.055,1.444q.79-3.167,1.579-6.335Q720.787,1320.545,723.918,1321.652Z" transform="translate(-676.624 -1312.004)" fill="#3c8f7c"/>
      </g>
    </g>
    <path id="パス_1250" data-name="パス 1250" d="M980.421,731.911a48.622,48.622,0,0,1-5.6-2.235,28.163,28.163,0,0,0-6.386-2.4c-3.533-.544-9.6-.181-12.954,3.442-4.176,4.514-11.6.815-10.1,24.459C947.072,781.942,962,779,962.366,778.552s13.317-17.121,13.317-17.121,4.529,9.874,4.529,9.512S1003.34,739.6,980.421,731.911Z" transform="translate(-597.058 -422.248)" fill="#0e2e35"/>
    <g id="グループ_565" data-name="グループ 565" transform="translate(197.816 486.093)">
      <path id="パス_1251" data-name="パス 1251" d="M596.554,1390.24c-61.9,24.456-130.191,35.635-201.285,32.949q7.078,45.377,14.155,90.754c82.2,3.106,161.163-9.82,232.73-38.1Z" transform="translate(-395.269 -1390.24)" fill="#3c8f7c"/>
      <path id="パス_1252" data-name="パス 1252" d="M422.492,1467.052l9.288,56.659c7.467.222,14.526,5.761,15.807,12.566,68.385.5,134.255-10.281,195.131-31.941-3.222-6.488-.461-13.635,6.078-16.149L620.73,1434.6c-6.019,2.313-13.573-1.207-16.793-7.691-53.459,19.021-111.3,28.49-171.355,28.05C433.864,1461.762,429.363,1467.256,422.492,1467.052Z" transform="translate(-415.051 -1416.888)" fill="#96d9c9"/>
      <g id="グループ_564" data-name="グループ 564" transform="translate(91.708 41.16)">
        <path id="パス_1253" data-name="パス 1253" d="M794.352,1565.744c-6.892-16.788-25.29-27.25-41.493-24.473-16.189,2.817-25.662,18.091-20.792,35.229,4.856,17.107,23.895,29.427,42.112,26.271C792.4,1599.634,801.235,1582.5,794.352,1565.744Z" transform="translate(-730.787 -1540.826)" fill="#50bfa5"/>
        <path id="パス_1254" data-name="パス 1254" d="M801.378,1560.059q.972,2.976,1.942,5.952c6.976.158,12.109,3.927,13.9,9.112,1.8,5.229.1,8.952-6.185,12.5-4.456,2.639-6.189,4.142-5.583,6.075.509,1.634,2.295,3.106,6.223,2.523a16.992,16.992,0,0,0,5.057-1.544,4.175,4.175,0,0,1,5.146,1.686h0a3,3,0,0,1-1.1,4.5,23.726,23.726,0,0,1-5.3,1.643q.83,2.569,1.66,5.138-3.011.459-6.031.885-.869-2.777-1.74-5.554c-6.935-.307-11.93-3.913-13.453-9.062-1.684-5.686,1.817-9.127,7.467-12.13,3.907-2.088,5.314-3.792,4.589-6.006-.767-2.334-3.45-3.261-6.766-2.784a18.433,18.433,0,0,0-5.99,1.964,4,4,0,0,1-5.07-1.813l-.116-.2a3.009,3.009,0,0,1,.987-4.336,25,25,0,0,1,6.532-2.177q-.878-2.775-1.757-5.551Q798.589,1560.483,801.378,1560.059Z" transform="translate(-773.468 -1554.802)" fill="#3c8f7c"/>
        <path id="パス_1255" data-name="パス 1255" d="M1035.45,1569.26q-22.083,7.828-45.056,13.618l3.547,8.549q23.275-5.868,45.687-13.809Z" transform="translate(-919.435 -1561.488)" fill="#50bfa5"/>
      </g>
    </g>
    <g id="グループ_567" data-name="グループ 567" transform="translate(296.977 579.138)">
      <path id="パス_1256" data-name="パス 1256" d="M758.053,1755.244V1777.4c0,3.583,39.967,6.487,89.269,6.487s89.269-2.9,89.269-6.487v-22.161Z" transform="translate(-758.053 -1748.522)" fill="#e59f39"/>
      <g id="グループ_566" data-name="グループ 566" transform="translate(0 6.722)">
        <path id="パス_1257" data-name="パス 1257" d="M822.655,1783.641v-28.4h-64.6V1777.4C758.053,1780.366,785.351,1782.863,822.655,1783.641Z" transform="translate(-758.053 -1755.244)" fill="#eab054"/>
        <path id="パス_1258" data-name="パス 1258" d="M1005.4,1783.7c6.935.126,14.19.193,21.66.193,11.131,0,21.786-.148,31.612-.419v-28.229H1005.4Z" transform="translate(-937.794 -1755.244)" fill="#eab054"/>
        <path id="パス_1259" data-name="パス 1259" d="M1213.385,1783.369c31.805-.992,54.08-3.289,54.08-5.964v-22.161h-54.08Z" transform="translate(-1088.927 -1755.244)" fill="#eab054"/>
      </g>
      <ellipse id="楕円形_17" data-name="楕円形 17" cx="89.269" cy="6.487" rx="89.269" ry="6.487" transform="translate(0)" fill="#e59f39"/>
      <path id="パス_1260" data-name="パス 1260" d="M962.726,1742.427c0,2.484-32.912,4.5-73.511,4.5s-73.511-2.014-73.511-4.5,32.912-4.5,73.511-4.5S962.726,1739.943,962.726,1742.427Z" transform="translate(-799.946 -1735.939)" fill="#f7cc7f"/>
    </g>
    <g id="グループ_569" data-name="グループ 569" transform="translate(281.704 555.688)">
      <path id="パス_1261" data-name="パス 1261" d="M702.176,1669.449v22.161c0,3.583,39.967,6.487,89.269,6.487s89.269-2.9,89.269-6.487v-22.161Z" transform="translate(-702.176 -1662.727)" fill="#e59f39"/>
      <g id="グループ_568" data-name="グループ 568" transform="translate(0 6.722)">
        <path id="パス_1262" data-name="パス 1262" d="M766.779,1697.846v-28.4h-64.6v22.161C702.176,1694.571,729.474,1697.069,766.779,1697.846Z" transform="translate(-702.176 -1669.449)" fill="#eab054"/>
        <path id="パス_1263" data-name="パス 1263" d="M949.526,1697.905c6.935.125,14.19.192,21.66.192,11.13,0,21.785-.148,31.612-.418v-28.23H949.526Z" transform="translate(-881.917 -1669.449)" fill="#eab054"/>
        <path id="パス_1264" data-name="パス 1264" d="M1157.508,1697.574c31.805-.992,54.08-3.289,54.08-5.964v-22.161h-54.08Z" transform="translate(-1033.05 -1669.449)" fill="#eab054"/>
      </g>
      <ellipse id="楕円形_18" data-name="楕円形 18" cx="89.269" cy="6.487" rx="89.269" ry="6.487" transform="translate(0 0)" fill="#e59f39"/>
      <path id="パス_1265" data-name="パス 1265" d="M906.849,1656.632c0,2.484-32.912,4.5-73.511,4.5s-73.511-2.014-73.511-4.5,32.912-4.5,73.511-4.5S906.849,1654.148,906.849,1656.632Z" transform="translate(-744.069 -1650.145)" fill="#f7cc7f"/>
    </g>
    <g id="グループ_571" data-name="グループ 571" transform="translate(291.88 531.614)">
      <path id="パス_1266" data-name="パス 1266" d="M739.405,1581.375v22.161c0,3.583,39.967,6.487,89.269,6.487s89.269-2.9,89.269-6.487v-22.161Z" transform="translate(-739.405 -1574.653)" fill="#e59f39"/>
      <g id="グループ_570" data-name="グループ 570" transform="translate(0 6.722)">
        <path id="パス_1267" data-name="パス 1267" d="M804.008,1609.772v-28.4h-64.6v22.161C739.405,1606.5,766.7,1608.994,804.008,1609.772Z" transform="translate(-739.405 -1581.375)" fill="#eab054"/>
        <path id="パス_1268" data-name="パス 1268" d="M986.755,1609.83c6.935.126,14.19.193,21.66.193,11.131,0,21.786-.148,31.612-.419v-28.229H986.755Z" transform="translate(-919.146 -1581.375)" fill="#eab054"/>
        <path id="パス_1269" data-name="パス 1269" d="M1194.737,1609.5c31.805-.993,54.08-3.289,54.08-5.964v-22.161h-54.08Z" transform="translate(-1070.279 -1581.375)" fill="#eab054"/>
      </g>
      <ellipse id="楕円形_19" data-name="楕円形 19" cx="89.269" cy="6.487" rx="89.269" ry="6.487" transform="translate(0 0)" fill="#e59f39"/>
      <path id="パス_1270" data-name="パス 1270" d="M944.078,1568.557c0,2.484-32.912,4.5-73.511,4.5s-73.511-2.013-73.511-4.5,32.912-4.5,73.511-4.5S944.078,1566.073,944.078,1568.557Z" transform="translate(-781.298 -1562.07)" fill="#f7cc7f"/>
    </g>
    <g id="グループ_573" data-name="グループ 573" transform="translate(281.704 507.87)">
      <path id="パス_1271" data-name="パス 1271" d="M702.176,1494.507v22.161c0,3.583,39.967,6.487,89.269,6.487s89.269-2.9,89.269-6.487v-22.161Z" transform="translate(-702.176 -1487.785)" fill="#e59f39"/>
      <g id="グループ_572" data-name="グループ 572" transform="translate(0 6.722)">
        <path id="パス_1272" data-name="パス 1272" d="M766.779,1522.9v-28.4h-64.6v22.161C702.176,1519.629,729.474,1522.126,766.779,1522.9Z" transform="translate(-702.176 -1494.507)" fill="#eab054"/>
        <path id="パス_1273" data-name="パス 1273" d="M949.526,1522.962c6.935.126,14.19.192,21.66.192,11.13,0,21.785-.148,31.612-.419v-28.229H949.526Z" transform="translate(-881.917 -1494.507)" fill="#eab054"/>
        <path id="パス_1274" data-name="パス 1274" d="M1157.508,1522.631c31.805-.992,54.08-3.289,54.08-5.963v-22.161h-54.08Z" transform="translate(-1033.05 -1494.507)" fill="#eab054"/>
      </g>
      <ellipse id="楕円形_20" data-name="楕円形 20" cx="89.269" cy="6.487" rx="89.269" ry="6.487" transform="translate(0 0)" fill="#e59f39"/>
      <path id="パス_1275" data-name="パス 1275" d="M906.849,1481.689c0,2.484-32.912,4.5-73.511,4.5s-73.511-2.014-73.511-4.5,32.912-4.5,73.511-4.5S906.849,1479.2,906.849,1481.689Z" transform="translate(-744.069 -1475.202)" fill="#f7cc7f"/>
    </g>
    <g id="グループ_575" data-name="グループ 575" transform="translate(735.028 577.503)">
      <path id="パス_1276" data-name="パス 1276" d="M2532.367,1748.316v21.311c0,3.445-38.435,6.238-85.846,6.238s-85.846-2.793-85.846-6.238v-21.311Z" transform="translate(-2360.675 -1741.852)" fill="#e59f39"/>
      <g id="グループ_574" data-name="グループ 574" transform="translate(0 6.464)">
        <path id="パス_1277" data-name="パス 1277" d="M2761.529,1775.625v-27.308h62.125v21.311C2823.654,1772.475,2797.4,1774.876,2761.529,1775.625Z" transform="translate(-2651.962 -1748.316)" fill="#eab054"/>
        <path id="パス_1278" data-name="パス 1278" d="M2614.756,1775.681c-6.668.12-13.646.185-20.829.185-10.7,0-20.95-.142-30.4-.4v-27.147h51.229Z" transform="translate(-2508.081 -1748.316)" fill="#eab054"/>
        <path id="パス_1279" data-name="パス 1279" d="M2412.682,1775.362c-30.586-.954-52.007-3.163-52.007-5.735v-21.311h52.007Z" transform="translate(-2360.675 -1748.316)" fill="#eab054"/>
      </g>
      <ellipse id="楕円形_21" data-name="楕円形 21" cx="85.846" cy="6.238" rx="85.846" ry="6.238" transform="translate(0)" fill="#e59f39"/>
      <path id="パス_1280" data-name="パス 1280" d="M2416.115,1735.99c0,2.389,31.65,4.325,70.693,4.325s70.692-1.937,70.692-4.325-31.65-4.325-70.692-4.325S2416.115,1733.6,2416.115,1735.99Z" transform="translate(-2400.961 -1729.752)" fill="#f7cc7f"/>
    </g>
    <g id="グループ_577" data-name="グループ 577" transform="translate(749.716 554.951)">
      <path id="パス_1281" data-name="パス 1281" d="M2586.1,1665.811v21.311c0,3.445-38.435,6.238-85.846,6.238s-85.846-2.793-85.846-6.238v-21.311Z" transform="translate(-2414.409 -1659.347)" fill="#e59f39"/>
      <g id="グループ_576" data-name="グループ 576" transform="translate(0 6.464)">
        <path id="パス_1282" data-name="パス 1282" d="M2815.264,1693.12v-27.309h62.126v21.311C2877.39,1689.97,2851.139,1692.371,2815.264,1693.12Z" transform="translate(-2705.697 -1665.811)" fill="#eab054"/>
        <path id="パス_1283" data-name="パス 1283" d="M2668.491,1693.176c-6.669.12-13.646.185-20.83.185-10.7,0-20.95-.142-30.4-.4v-27.147h51.229Z" transform="translate(-2561.815 -1665.811)" fill="#eab054"/>
        <path id="パス_1284" data-name="パス 1284" d="M2466.416,1692.857c-30.586-.954-52.007-3.163-52.007-5.735v-21.311h52.007Z" transform="translate(-2414.409 -1665.811)" fill="#eab054"/>
      </g>
      <ellipse id="楕円形_22" data-name="楕円形 22" cx="85.846" cy="6.238" rx="85.846" ry="6.238" transform="translate(0)" fill="#e59f39"/>
      <ellipse id="楕円形_23" data-name="楕円形 23" cx="70.693" cy="4.325" rx="70.693" ry="4.325" transform="translate(15.154 1.913)" fill="#f7cc7f"/>
    </g>
    <g id="グループ_579" data-name="グループ 579" transform="translate(739.93 531.8)">
      <path id="パス_1285" data-name="パス 1285" d="M2550.3,1581.113v21.311c0,3.445-38.435,6.238-85.846,6.238s-85.847-2.793-85.847-6.238v-21.311Z" transform="translate(-2378.607 -1574.649)" fill="#e59f39"/>
      <g id="グループ_578" data-name="グループ 578" transform="translate(0 6.464)">
        <path id="パス_1286" data-name="パス 1286" d="M2779.463,1608.422v-27.308h62.125v21.311C2841.588,1605.272,2815.337,1607.673,2779.463,1608.422Z" transform="translate(-2669.895 -1581.113)" fill="#eab054"/>
        <path id="パス_1287" data-name="パス 1287" d="M2632.689,1608.478c-6.669.121-13.646.185-20.829.185-10.7,0-20.95-.142-30.4-.4v-27.147h51.229Z" transform="translate(-2526.013 -1581.113)" fill="#eab054"/>
        <path id="パス_1288" data-name="パス 1288" d="M2430.614,1608.159c-30.585-.954-52.007-3.163-52.007-5.735v-21.311h52.007Z" transform="translate(-2378.607 -1581.113)" fill="#eab054"/>
      </g>
      <ellipse id="楕円形_24" data-name="楕円形 24" cx="85.846" cy="6.238" rx="85.846" ry="6.238" transform="translate(0)" fill="#e59f39"/>
      <ellipse id="楕円形_25" data-name="楕円形 25" cx="70.692" cy="4.325" rx="70.692" ry="4.325" transform="translate(15.154 1.913)" fill="#f7cc7f"/>
    </g>
    <g id="グループ_581" data-name="グループ 581" transform="translate(749.716 508.967)">
      <path id="パス_1289" data-name="パス 1289" d="M2586.1,1497.576v21.311c0,3.445-38.435,6.238-85.846,6.238s-85.846-2.793-85.846-6.238v-21.311Z" transform="translate(-2414.409 -1491.112)" fill="#e59f39"/>
      <g id="グループ_580" data-name="グループ 580" transform="translate(0 6.464)">
        <path id="パス_1290" data-name="パス 1290" d="M2815.264,1524.884v-27.308h62.126v21.311C2877.39,1521.735,2851.139,1524.136,2815.264,1524.884Z" transform="translate(-2705.697 -1497.576)" fill="#eab054"/>
        <path id="パス_1291" data-name="パス 1291" d="M2668.491,1524.941c-6.669.121-13.646.185-20.83.185-10.7,0-20.95-.142-30.4-.4v-27.147h51.229Z" transform="translate(-2561.815 -1497.576)" fill="#eab054"/>
        <path id="パス_1292" data-name="パス 1292" d="M2466.416,1524.622c-30.586-.954-52.007-3.163-52.007-5.735v-21.311h52.007Z" transform="translate(-2414.409 -1497.576)" fill="#eab054"/>
      </g>
      <ellipse id="楕円形_26" data-name="楕円形 26" cx="85.846" cy="6.238" rx="85.846" ry="6.238" transform="translate(0)" fill="#e59f39"/>
      <ellipse id="楕円形_27" data-name="楕円形 27" cx="70.693" cy="4.325" rx="70.693" ry="4.325" transform="translate(15.154 1.913)" fill="#f7cc7f"/>
    </g>
    <g id="グループ_583" data-name="グループ 583" transform="translate(811.134 447.134)">
      <path id="パス_1293" data-name="パス 1293" d="M2789.329,1292.381l-5.157,18c-.834,2.911-33.979-4.03-74.031-15.5s-71.846-23.132-71.013-26.043l5.157-18Z" transform="translate(-2639.111 -1249.982)" fill="#e59f39"/>
      <g id="グループ_582" data-name="グループ 582" transform="translate(0 0.855)">
        <path id="パス_1294" data-name="パス 1294" d="M2972.5,1370.9l6.608-23.07,52.483,15.033-5.157,18C3025.744,1383.275,3002.986,1378.952,2972.5,1370.9Z" transform="translate(-2881.373 -1321.32)" fill="#eab054"/>
        <path id="パス_1295" data-name="パス 1295" d="M2848.6,1335.435c-5.663-1.512-11.573-3.146-17.641-4.884-9.042-2.59-17.664-5.19-25.584-7.7l6.569-22.934,43.278,12.4Z" transform="translate(-2759.927 -1286.504)" fill="#eab054"/>
        <path id="パス_1296" data-name="パス 1296" d="M2681.675,1286.269c-25.607-8.207-43.169-15.256-42.547-17.429l5.157-18,43.935,12.584Z" transform="translate(-2639.111 -1250.836)" fill="#eab054"/>
      </g>
      <path id="パス_1297" data-name="パス 1297" d="M2658.194,1248.373c-.833,2.91,30.96,14.57,71.013,26.043s73.2,18.413,74.031,15.5-30.959-14.57-71.013-26.043S2659.028,1245.463,2658.194,1248.373Z" transform="translate(-2652.966 -1247.71)" fill="#e59f39"/>
      <path id="パス_1298" data-name="パス 1298" d="M2705.047,1262.516c-.578,2.018,25.692,11.313,58.674,20.76s60.189,15.47,60.767,13.452-25.691-11.312-58.674-20.76S2705.625,1260.5,2705.047,1262.516Z" transform="translate(-2687.018 -1258.186)" fill="#f7cc7f"/>
    </g>
    <g id="グループ_585" data-name="グループ 585" transform="translate(770.123 364.817)">
      <path id="パス_1299" data-name="パス 1299" d="M2633.6,949.5l5.491,17.9c.888,2.895-30.683,15.144-70.516,27.359s-72.843,19.772-73.73,16.878l-5.491-17.9Z" transform="translate(-2489.275 -948.696)" fill="#e59f39"/>
      <g id="グループ_584" data-name="グループ 584" transform="translate(0.077 0.808)">
        <path id="パス_1300" data-name="パス 1300" d="M2833.162,988.454l-7.036-22.943L2878.32,949.5l5.491,17.9C2884.545,969.8,2863.109,978.582,2833.162,988.454Z" transform="translate(-2734.074 -949.504)" fill="#eab054"/>
        <path id="パス_1301" data-name="パス 1301" d="M2709.866,1033.78c-5.572,1.82-11.417,3.671-17.452,5.522-8.993,2.758-17.638,5.278-25.644,7.495l-6.994-22.808,43.04-13.2Z" transform="translate(-2613.193 -994.038)" fill="#eab054"/>
        <path id="パス_1302" data-name="パス 1302" d="M2540.013,1085.045c-25.942,7.079-44.508,10.743-45.171,8.582l-5.491-17.9,43.693-13.4Z" transform="translate(-2489.352 -1031.485)" fill="#eab054"/>
      </g>
      <path id="パス_1303" data-name="パス 1303" d="M2489.09,991.4c.888,2.895,33.9-4.662,73.73-16.878s71.4-24.464,70.516-27.359-33.9,4.662-73.73,16.878S2488.2,988.509,2489.09,991.4Z" transform="translate(-2489.072 -946.549)" fill="#e59f39"/>
      <path id="パス_1304" data-name="パス 1304" d="M2535.688,998.557c.615,2.007,27.7-4.521,60.506-14.58s58.893-19.841,58.277-21.848-27.7,4.521-60.506,14.58S2535.072,996.55,2535.688,998.557Z" transform="translate(-2522.938 -957.607)" fill="#f7cc7f"/>
    </g>
    <path id="パス_1305" data-name="パス 1305" d="M1295.066,1757.483s2.122,11.259,2.124,11.283c.119,1.467.074,5.176.391,6.457,1.191,4.815,21.443-6.887,16.13-7.828-.481-.085-3.966-3.612-4.764-5.1a44.708,44.708,0,0,1-2.665-7.438Z" transform="translate(-851.305 -1169.099)" fill="#f7a491"/>
    <path id="パス_1306" data-name="パス 1306" d="M1308.785,1793.854a79.187,79.187,0,0,1-7.889,1.56c-2.66.266-6.075-3.867-7.983-3.085-2.1.86-3.244,13.973-3.244,13.973s33.4,1.521,41.3-.659C1334.1,1804.779,1319.179,1797.837,1308.785,1793.854Z" transform="translate(-847.383 -1196.26)" fill="#f47458"/>
    <path id="パス_1307" data-name="パス 1307" d="M1465.474,1755.6s2.122,11.26,2.124,11.284c.119,1.467.074,5.176.391,6.458,1.192,4.814,21.07-6.117,15.757-7.058-.481-.085-3.593-4.382-4.391-5.875a44.7,44.7,0,0,1-2.665-7.439Z" transform="translate(-975.135 -1167.733)" fill="#f7a491"/>
    <path id="パス_1308" data-name="パス 1308" d="M1477.314,1793.854a79.194,79.194,0,0,1-7.889,1.56c-2.66.266-6.075-3.867-7.983-3.085-2.1.86-3.244,13.973-3.244,13.973s33.4,1.521,41.3-.659C1502.625,1804.779,1487.708,1797.837,1477.314,1793.854Z" transform="translate(-969.847 -1196.26)" fill="#f47458"/>
    <path id="パス_1309" data-name="パス 1309" d="M1038.875,1305.147l60.77-14.1s27.252-7.2,33.831,1.253,34.513,125.183,34.513,125.183-14.409,1.253-15.349.626l-33.73-59.868a52.218,52.218,0,0,1-6.222-18.415l-2.392-17.143-24.747,7.205s-28.506,6.265-40.1-.94S1038.875,1305.147,1038.875,1305.147Z" transform="translate(-664.357 -829.991)" fill="#0e2e35"/>
    <path id="パス_1310" data-name="パス 1310" d="M1102.692,966.929c.96.04,3.59.917,7.436,8.161,4.912,9.251,12.091,37.2,12.091,37.2l-21.428,7.953-2.753-5.833L1093.5,969.5S1102.427,966.918,1102.692,966.929Z" transform="translate(-704.837 -596.542)" fill="#eab054"/>
    <path id="パス_1311" data-name="パス 1311" d="M922.451,952.191c6.127.008,21.289,1.79,28.326,4.031,0,0,5.169,44.281-4.654,77.929-2.2,7.532,1.819,31.223,1.819,31.223l-63.5-.835s7.522-57.275,4.689-66.526-2.9-41.493-2.9-41.493.435-.068,14.266-2.45A144.224,144.224,0,0,1,922.451,952.191Z" transform="translate(-552.921 -585.832)" fill="#f7cc7f"/>
    <path id="パス_1312" data-name="パス 1312" d="M862.133,985.855c5.937-2.219,8.841,51.09,9.641,73.033,10.513,1.008,28.838.008,33.4-.334,2.146-.161,7.094-1.967,9.228-2.245a21.436,21.436,0,0,1,5.245-.248c.395.068,11.353,4.535,12.291,5.514,1.163,1.214,4.305,4.278,3.775,5.6s-6.044-3.692-6.044-3.692l-2.695-1.507c3.355,3.266,9.754,7.568,8.832,9.134-.9,1.528-6.671-2.838-10.785-5.813,3.528,3.176,7.912,8.86,6.9,9.747-.908.8-5.894-5.784-11.223-7.679-1.975-.7-3.943,1.242-5.5,1.477a11.207,11.207,0,0,1-4.025.224l-5.352-.517a27.9,27.9,0,0,0-4.418.643c-2.3.489-6.085,1-9.019,1.718-16.9,4.115-22.534,6.026-27.708,6.022C849.011,1076.927,848.1,991.1,862.133,985.855Z" transform="translate(-529.512 -610.246)" fill="#f7a491"/>
    <path id="パス_1313" data-name="パス 1313" d="M846.095,1022.661c-1.112-22.476-.949-50.179,11.693-54.905,4.988-1.865,13.782,9.348,12.2,55.362C863.239,1023.673,853.331,1024.12,846.095,1022.661Z" transform="translate(-524.741 -597.003)" fill="#eab054"/>
    <path id="パス_1314" data-name="パス 1314" d="M1061.182,1118.864l-59.822,3.908a3.908,3.908,0,0,0-3.451,2.656l-15.485,46.128-32.98,2.154a1.673,1.673,0,0,0-1.561,1.778h0a1.673,1.673,0,0,0,1.779,1.559l93.865-6.131a6.567,6.567,0,0,0,5.725-4.259l15.848-42.527A3.909,3.909,0,0,0,1061.182,1118.864Z" transform="translate(-599.016 -706.941)" fill="#f47458"/>
    <path id="パス_1315" data-name="パス 1315" d="M1235.971,1212.747a3.3,3.3,0,1,1-3.049-3.916A3.527,3.527,0,0,1,1235.971,1212.747Z" transform="translate(-803.613 -772.32)" fill="#fff"/>
    <path id="パス_1316" data-name="パス 1316" d="M883.122,1324.54l66.223-11.434s28.632-4.362,35.21,4.1,25.686,118.094,25.686,118.094-14.409,1.253-15.349.627c-.728-.485-18.173-37.036-26.009-53.5a62.6,62.6,0,0,1-5.2-16.478l-2.518-14.922-8.333,2.869a101.71,101.71,0,0,1-45.617,4.882c-6.435-.8-12.44-2.174-16.166-4.489C879.46,1347.074,883.122,1324.54,883.122,1324.54Z" transform="translate(-551.56 -847.28)" fill="#184655"/>
    <path id="パス_1317" data-name="パス 1317" d="M991.859,882.593l1.289,9.563s2.887,13.777-.827,16.433-15.8-16.826-15.8-16.826l1.276-24.231Z" transform="translate(-619.831 -524.313)" fill="#f7a491"/>
    <path id="パス_1318" data-name="パス 1318" d="M979.684,875.385c3.068,8.265,10.377,13.345,15.564,15.315l-1.093-8.107L980.1,867.532Z" transform="translate(-622.128 -524.313)" fill="#f47458"/>
    <path id="パス_1319" data-name="パス 1319" d="M986.707,770.63a12.78,12.78,0,0,1,14.735,12.9,96.639,96.639,0,0,1-1.078,12.265c-1.712,11.039-9.269,20.759-14.266,19.891s-17.57-10.391-15.356-26.1C972.11,779.884,978.447,771.959,986.707,770.63Z" transform="translate(-615.442 -453.78)" fill="#f7a491"/>
    <path id="パス_1320" data-name="パス 1320" d="M964.79,833.8c-.422,2.427-2.373,4.116-4.357,3.771s-3.253-2.592-2.831-5.02,2.373-4.116,4.358-3.771S965.212,831.37,964.79,833.8Z" transform="translate(-606.022 -496.119)" fill="#f7a491"/>
    <path id="パス_1321" data-name="パス 1321" d="M968.689,776.7s6.042,1.5,8.284-2.377,10.259-12.23,20.451-8.764-8.968-8.425-9.784-8.425-10.6-.068-10.6-.068-7.542,6.183-7.814,6.862-2.446,8.085-2.446,8.085Z" transform="translate(-612.751 -444.041)" fill="#0e2e35"/>
    <g id="グループ_587" data-name="グループ 587" transform="translate(651.985 555.809)">
      <rect id="長方形_73" data-name="長方形 73" width="150.391" height="54.736" transform="translate(150.391 54.736) rotate(180)" fill="#50bfa5"/>
      <g id="グループ_586" data-name="グループ 586" transform="translate(0 0)">
        <rect id="長方形_74" data-name="長方形 74" width="150.391" height="7.041" transform="translate(150.391 15.018) rotate(180)" fill="#96d9c9"/>
        <rect id="長方形_75" data-name="長方形 75" width="150.391" height="7.041" transform="translate(150.391 28.772) rotate(180)" fill="#96d9c9"/>
        <rect id="長方形_76" data-name="長方形 76" width="150.391" height="7.041" transform="translate(150.391 42.527) rotate(180)" fill="#96d9c9"/>
        <rect id="長方形_77" data-name="長方形 77" width="150.391" height="7.041" transform="translate(150.391 54.736) rotate(180)" fill="#96d9c9"/>
        <rect id="長方形_78" data-name="長方形 78" width="31.278" height="54.736" transform="translate(87.262 54.736) rotate(180)" fill="#f7cc7f"/>
      </g>
      <rect id="長方形_79" data-name="長方形 79" width="22.712" height="54.736" transform="translate(171.278 54.736) rotate(180)" fill="#3c8f7c"/>
    </g>
    <rect id="長方形_80" data-name="長方形 80" width="831.043" height="4.742" transform="translate(138.465 609.767)" fill="#0e2e35"/>
    <path id="パス_1322" data-name="パス 1322" d="M1147.775,243.772a14.941,14.941,0,0,0-18.317-11.1,21.993,21.993,0,0,0-26.446-11.682,27.093,27.093,0,0,0-48.664,4.733,18.584,18.584,0,0,0-27.62,16.241c0,.608.031,1.21.088,1.8Z" transform="translate(-656.312 -44.974)" fill="#fff" opacity="0.8"/>
    <path id="パス_1323" data-name="パス 1323" d="M1425.468,536.843a11.307,11.307,0,0,0-13.862-8.4,16.645,16.645,0,0,0-20.013-8.84,20.5,20.5,0,0,0-36.827,3.582,14.064,14.064,0,0,0-20.9,12.291c0,.461.024.915.067,1.365Z" transform="translate(-879.497 -264.281)" fill="#fff" opacity="0.8"/>
    <path id="パス_1324" data-name="パス 1324" d="M736.453,508.149a9.859,9.859,0,0,1,12.087-7.322,14.514,14.514,0,0,1,17.452-7.709,17.879,17.879,0,0,1,32.114,3.124,12.264,12.264,0,0,1,18.227,10.717c0,.4-.021.8-.059,1.19Z" transform="translate(-445.38 -245.956)" fill="#fff" opacity="0.8"/>
    <g id="グループ_588" data-name="グループ 588" transform="translate(449.015 309.164)">
      <path id="パス_1325" data-name="パス 1325" d="M1354.678,758.409l1.066,12.969,7.533-8.484,24.364-19.954-20.776,6.546s-10.229,4.969-10.7,5.625A26.869,26.869,0,0,0,1354.678,758.409Z" transform="translate(-1343.638 -742.94)" fill="#50bfa5"/>
      <path id="パス_1326" data-name="パス 1326" d="M1314.287,752.836l44-9.9-32.963,15.469Z" transform="translate(-1314.287 -742.94)" fill="#96d9c9"/>
      <path id="パス_1327" data-name="パス 1327" d="M1380.532,768.013l-13.563-6.767,29.6-18.305Z" transform="translate(-1352.569 -742.94)" fill="#96d9c9"/>
    </g>
    <g id="グループ_591" data-name="グループ 591" transform="translate(433.202 329.96)">
      <g id="グループ_589" data-name="グループ 589" transform="translate(21.383 0)">
        <path id="パス_1328" data-name="パス 1328" d="M1335,820.9a16.057,16.057,0,0,1,3.544-.931l-.1-.943a16.8,16.8,0,0,0-3.778.986Z" transform="translate(-1334.664 -819.023)" fill="#3c8f7c"/>
      </g>
      <g id="グループ_590" data-name="グループ 590" transform="translate(0 4.825)">
        <path id="パス_1329" data-name="パス 1329" d="M1256.435,910.379a38.555,38.555,0,0,0,4.771-5.217l.757.571a39.455,39.455,0,0,1-4.889,5.346Zm8.436-11.251c.465-.976.892-1.993,1.271-3.022.429-1.166.808-2.385,1.128-3.623l.918.237c-.328,1.268-.717,2.518-1.156,3.713-.389,1.057-.828,2.1-1.305,3.1Zm3.829-20.734.948-.021a61.252,61.252,0,0,1-.234,7.217l-.944-.089A60.248,60.248,0,0,0,1268.7,878.394Zm-1.349-14.211.938-.134c.4,2.774.68,5.041.892,7.134l-.943.1C1268.028,869.2,1267.746,866.944,1267.351,864.182Zm-1.061-7.139a34.9,34.9,0,0,1-.358-7.2l.946.059a33.979,33.979,0,0,0,.35,7l.008.055-.939.129Zm1.192-14.32a17.217,17.217,0,0,1,4.115-6.047l.651.689a16.277,16.277,0,0,0-3.889,5.716Z" transform="translate(-1256.435 -836.676)" fill="#3c8f7c"/>
      </g>
    </g>
  </g>
</svg>
