<svg xmlns="http://www.w3.org/2000/svg" width="145.199" height="145.2" viewBox="0 0 145.199 145.2">
  <g id="グループ_1647" data-name="グループ 1647" transform="translate(-2861.424 -2126.554)">
    <path id="パス_2407" data-name="パス 2407" d="M3086.725,2156.74l-13.915-13.916a5.243,5.243,0,0,0-7.414,0l-58.75,58.75-13.583-13.583a5.243,5.243,0,0,0-7.414,0l-13.915,13.916a5.242,5.242,0,0,0,0,7.414l17.1,17.1c.059.065.119.129.182.191l13.915,13.915a5.243,5.243,0,0,0,7.414,0l76.376-76.377a5.242,5.242,0,0,0,0-7.414Z" transform="translate(-84.124 -11.396)" fill="#31a36e"/>
    <path id="パス_2408" data-name="パス 2408" d="M2998.089,2164.976l-10.435,10.435a58.539,58.539,0,1,1-28.719-29.352l10.368-10.368a72.519,72.519,0,1,0,31.611,35.2Q2999.632,2167.859,2998.089,2164.976Z" transform="translate(0)" fill="#3b3938"/>
  </g>
</svg>
