<svg xmlns="http://www.w3.org/2000/svg" width="458.113" height="339.853" viewBox="0 0 458.113 339.853">
  <g id="グループ_137" data-name="グループ 137" transform="translate(-86.325 -54.337)">
    <path id="パス_186" data-name="パス 186" d="M139.9,126.209s41.8-36.572,93.17-19.157,91.429,96.654,141.061,99.265,95.782-24.381,134.966-.87,46.15,125.387-28.734,135.837-116.681-26.993-148.9-25.252-110.585,40.925-172.407,23.51S41.511,201.963,139.9,126.209Z" transform="translate(0 -8.03)" fill="#e8f4ff"/>
    <g id="グループ_136" data-name="グループ 136" transform="translate(99.058 54.337)">
      <g id="グループ_115" data-name="グループ 115" transform="translate(83.218)">
        <g id="グループ_91" data-name="グループ 91" transform="translate(55.349)" opacity="0.46">
          <path id="パス_187" data-name="パス 187" d="M449.543,124.157H270.881a2.869,2.869,0,0,1-2.776-3.592l16.679-64.082a2.869,2.869,0,0,1,2.777-2.146H466.221A2.869,2.869,0,0,1,469,57.929L452.32,122.01A2.871,2.871,0,0,1,449.543,124.157Z" transform="translate(-268.01 -54.337)" fill="#bfd9ff"/>
          <g id="グループ_90" data-name="グループ 90" transform="translate(22.592 13.709)">
            <line id="線_3" data-name="線 3" x2="62.168" transform="translate(4.782)" fill="none" stroke="#a9c2ff" stroke-linecap="round" stroke-linejoin="round" stroke-width="3.446"/>
            <line id="線_4" data-name="線 4" x2="62.168" transform="translate(0 28.693)" fill="none" stroke="#a9c2ff" stroke-linecap="round" stroke-linejoin="round" stroke-width="3.446"/>
            <line id="線_5" data-name="線 5" x2="62.168" transform="translate(26.143 17.853)" fill="none" stroke="#a9c2ff" stroke-linecap="round" stroke-linejoin="round" stroke-width="3.446"/>
            <line id="線_6" data-name="線 6" x2="18.65" transform="translate(3.188 9.564)" fill="none" stroke="#a9c2ff" stroke-linecap="round" stroke-linejoin="round" stroke-width="3.446"/>
            <line id="線_7" data-name="線 7" x2="18.65" transform="translate(0.638 17.853)" fill="none" stroke="#a9c2ff" stroke-linecap="round" stroke-linejoin="round" stroke-width="3.446"/>
            <line id="線_8" data-name="線 8" x2="22.157" transform="translate(76.834)" fill="none" stroke="#a9c2ff" stroke-linecap="round" stroke-linejoin="round" stroke-width="3.446"/>
            <path id="パス_188" data-name="パス 188" d="M393.744,120.173H360.658a.255.255,0,0,1-.247-.319l1.482-5.689a.254.254,0,0,1,.246-.191h33.086a.254.254,0,0,1,.247.319l-1.481,5.689A.255.255,0,0,1,393.744,120.173Z" transform="translate(-306.053 -78.019)" fill="none" stroke="#84aee5" stroke-miterlimit="10" stroke-width="1.149"/>
            <path id="パス_189" data-name="パス 189" d="M344.358,120.173H311.272a.254.254,0,0,1-.246-.319l1.481-5.689a.255.255,0,0,1,.246-.191h33.086a.255.255,0,0,1,.247.319l-1.481,5.689A.254.254,0,0,1,344.358,120.173Z" transform="translate(-297.794 -78.019)" fill="none" stroke="#84aee5" stroke-miterlimit="10" stroke-width="1.149"/>
          </g>
          <path id="パス_190" data-name="パス 190" d="M461.3,104.446c-1.7-2.259-8.576-3.9-10.477-6.161-.972-1.154-.972-3.3-.74-5.121A7.048,7.048,0,0,0,451.66,91.9a30.554,30.554,0,0,0,1.86-3.28,1.066,1.066,0,0,0,.792.33c.9-.027,4.342-4.708,3.455-5.794-.506-.62-1.326-.082-1.935.493.91-2.084,1.551-3.682,1.551-3.682h-.034c.086-.262.166-.527.232-.8,1.365-5.473-1.965-9.909-7.438-9.909S439.13,73.7,437.765,79.168c-.067.268-.119.533-.163.8h-.035s-.157,1.6-.286,3.682c-.322-.575-.873-1.113-1.689-.493-1.428,1.085-.323,5.766.567,5.794a1.714,1.714,0,0,0,.955-.33,20.129,20.129,0,0,0,.226,3.28,4.014,4.014,0,0,0,1.267,1.555,11.131,11.131,0,0,1-3.184,4.833c-3.027,2.259-10.728,3.9-13.55,6.161-2.538,2.032-4.8,7.966-5.233,9.139h45.339C462.134,112.412,462.828,106.478,461.3,104.446Z" transform="translate(-292.867 -56.833)" fill="#8dbcf8"/>
        </g>
        <g id="グループ_97" data-name="グループ 97" transform="translate(20.918 46.227)">
          <g id="グループ_92" data-name="グループ 92">
            <path id="パス_191" data-name="パス 191" d="M412.217,185.411H233.554a2.87,2.87,0,0,1-2.777-3.593l16.679-64.081a2.868,2.868,0,0,1,2.776-2.146H428.9a2.869,2.869,0,0,1,2.776,3.592l-16.679,64.081A2.87,2.87,0,0,1,412.217,185.411Z" transform="translate(-227.336 -110.808)" fill="none" stroke="#7094d8" stroke-miterlimit="10" stroke-width="1.149"/>
            <path id="パス_192" data-name="パス 192" d="M408.2,179.668H229.535a2.869,2.869,0,0,1-2.776-3.592l16.679-64.081a2.87,2.87,0,0,1,2.776-2.147H424.875a2.869,2.869,0,0,1,2.776,3.592l-16.679,64.081A2.869,2.869,0,0,1,408.2,179.668Z" transform="translate(-226.664 -109.848)" fill="#a5c5ff"/>
            <line id="線_9" data-name="線 9" x2="89.427" transform="translate(58.936 69.82)" fill="none" stroke="#7094d8" stroke-miterlimit="10" stroke-width="1.149"/>
            <line id="線_10" data-name="線 10" x2="75.558" transform="translate(34.069)" fill="none" stroke="#7094d8" stroke-miterlimit="10" stroke-width="1.149"/>
          </g>
          <g id="グループ_96" data-name="グループ 96" transform="translate(124.322 12.912)">
            <path id="パス_193" data-name="パス 193" d="M418.74,172.7H378.57a2.53,2.53,0,0,1-2.513-3.348L386.191,128.7a4.573,4.573,0,0,1,4.182-3.348h40.171a2.529,2.529,0,0,1,2.512,3.348l-10.135,40.648A4.573,4.573,0,0,1,418.74,172.7Z" transform="translate(-375.953 -125.353)" fill="#b7deff"/>
            <g id="グループ_95" data-name="グループ 95" transform="translate(3.318 3.985)">
              <path id="パス_194" data-name="パス 194" d="M399.692,179.074l3.515-14.1-5.764-2.441s-10.741,3.932-11.655,4.881c-.767.8-4.623,9.02-5.851,11.659Z" transform="translate(-379.937 -135.556)" fill="#023f61"/>
              <path id="パス_195" data-name="パス 195" d="M423.576,179.074c.088-2.64.333-10.864-.037-11.659-.441-.949-9.222-4.881-9.222-4.881l-6.98,2.441-3.516,14.1Z" transform="translate(-383.931 -135.556)" fill="#023f61"/>
              <path id="パス_196" data-name="パス 196" d="M406.523,179.945l5.507-12.2-11.828.678-1.157,11.523Z" transform="translate(-383.133 -136.427)" fill="#bebecf"/>
              <path id="パス_197" data-name="パス 197" d="M402.577,159.333,400,160.959l-1.692,4.067-.437,5.558,3.625-1.491,2.815,3.389,3.76-3.118,2.306,2.169,3.486-7.456-.613-4.609-1.458-.678Z" transform="translate(-382.937 -134.93)" fill="#dee0e8"/>
              <g id="グループ_94" data-name="グループ 94" transform="translate(17.107)">
                <path id="パス_198" data-name="パス 198" d="M403.8,146.4a1.638,1.638,0,0,0-2.638-.658c-1.775,1.307.3,6.357,1.586,4.838S403.8,146.4,403.8,146.4Z" transform="translate(-400.479 -132.673)" fill="#fb8e74"/>
                <path id="パス_199" data-name="パス 199" d="M419.483,146.244s1.685-2.084,2.958-.916-2.91,6.506-3.6,5.077S419.483,146.244,419.483,146.244Z" transform="translate(-403.517 -132.619)" fill="#fb8e74"/>
                <g id="グループ_93" data-name="グループ 93" transform="translate(1.008 18.715)">
                  <path id="パス_200" data-name="パス 200" d="M412.7,162.236l1.815-9.625-10.5.911-2.319,9.04s1.836,4.279,3.8,6.177C405.492,168.738,411.6,163.462,412.7,162.236Z" transform="translate(-401.689 -152.611)" fill="#fb8877"/>
                </g>
                <path id="パス_201" data-name="パス 201" d="M421.653,139.878c-.391,1.17-1.356,1.463-1.427,2.146a6.751,6.751,0,0,1-1.174,3.121,5.432,5.432,0,0,1-1.012.878s-9.01,2.537-13.586-.975a7.844,7.844,0,0,1,.014-2.926c.311-1.577-.455-1.854.434-2.634a2.931,2.931,0,0,0,1.178-2.341,3.71,3.71,0,0,1,1-2.829c.913-.879,1.731-.585,2.62-1.366,0,0,1.314-2.206,3.05-2.457s5.395-1.171,7.571,1.506,1.174,5.019,1.8,5.856S421.653,139.878,421.653,139.878Z" transform="translate(-401.122 -130.138)" fill="#713336"/>
                <path id="パス_202" data-name="パス 202" d="M404.16,142.782s-4.252,11.711,3.756,12.589c7.075.164,9.588-8.47,10.6-12.9s.387-9.064-5.276-8.911S404.783,140.159,404.16,142.782Z" transform="translate(-400.906 -130.71)" fill="#fba990"/>
                <path id="パス_203" data-name="パス 203" d="M406.4,138.356a2.146,2.146,0,0,1,.038,1.885c-.486.947-1.8,1.311-2,2.56s-.775,3.847-1.129,3.961-.1-2.537-.044-3.445a15.355,15.355,0,0,1,2.626-7.051c1.889-2.386,3.055-3.394,6.418-3.941s5.91.869,6.846,2.92-.561,7.277-.561,7.277.224-2.483-.608-3.066-1.52-1.013-1.382-1.354-2.661.894-5.459-.005-3.7-.49-4.168-.2A1.925,1.925,0,0,0,406.4,138.356Z" transform="translate(-400.921 -130.484)" fill="#713336"/>
              </g>
              <path id="パス_204" data-name="パス 204" d="M396.758,166.442c-.067.271-3.908,9.422-3.908,9.422l3.374,1.695-.948,1.9" transform="translate(-382.097 -136.209)" fill="none" stroke="#022755" stroke-miterlimit="10" stroke-width="0.488"/>
              <path id="パス_205" data-name="パス 205" d="M416.479,166.442c-.067.271-.789,9.422-.789,9.422l-4.219,1.695,0,1.9" transform="translate(-385.211 -136.209)" fill="none" stroke="#022755" stroke-miterlimit="10" stroke-width="0.488"/>
            </g>
          </g>
          <path id="パス_206" data-name="パス 206" d="M418.74,172.7H378.57a2.53,2.53,0,0,1-2.513-3.348L386.191,128.7a4.573,4.573,0,0,1,4.182-3.348h40.171a2.529,2.529,0,0,1,2.512,3.348l-10.135,40.648A4.573,4.573,0,0,1,418.74,172.7Z" transform="translate(-251.631 -112.441)" fill="none" stroke="#fff" stroke-miterlimit="10" stroke-width="1.149"/>
          <line id="線_11" data-name="線 11" x2="62.168" transform="translate(27.374 15.303)" fill="none" stroke="#73a5ff" stroke-linecap="round" stroke-linejoin="round" stroke-width="3.446"/>
          <line id="線_12" data-name="線 12" x2="62.168" transform="translate(22.592 43.996)" fill="none" stroke="#73a5ff" stroke-linecap="round" stroke-linejoin="round" stroke-width="3.446"/>
          <line id="線_13" data-name="線 13" x2="62.168" transform="translate(48.734 33.156)" fill="none" stroke="#73a5ff" stroke-linecap="round" stroke-linejoin="round" stroke-width="3.446"/>
          <line id="線_14" data-name="線 14" x2="18.651" transform="translate(25.78 24.867)" fill="none" stroke="#73a5ff" stroke-linecap="round" stroke-linejoin="round" stroke-width="3.446"/>
          <line id="線_15" data-name="線 15" x2="18.651" transform="translate(23.229 33.156)" fill="none" stroke="#73a5ff" stroke-linecap="round" stroke-linejoin="round" stroke-width="3.446"/>
          <line id="線_16" data-name="線 16" x2="22.157" transform="translate(99.425 15.303)" fill="none" stroke="#73a5ff" stroke-linecap="round" stroke-linejoin="round" stroke-width="3.446"/>
          <path id="パス_207" data-name="パス 207" d="M352.4,177.6H319.311a.255.255,0,0,1-.246-.319l1.481-5.69a.255.255,0,0,1,.247-.19h33.087a.255.255,0,0,1,.246.319l-1.481,5.689A.256.256,0,0,1,352.4,177.6Z" transform="translate(-242.116 -120.142)" fill="none" stroke="#7094d8" stroke-miterlimit="10" stroke-width="1.149"/>
          <path id="パス_208" data-name="パス 208" d="M303.012,177.6H269.925a.255.255,0,0,1-.247-.319l1.481-5.69a.256.256,0,0,1,.247-.19h33.086a.255.255,0,0,1,.247.319l-1.481,5.689A.256.256,0,0,1,303.012,177.6Z" transform="translate(-233.856 -120.142)" fill="none" stroke="#7094d8" stroke-miterlimit="10" stroke-width="1.149"/>
        </g>
        <line id="線_17" data-name="線 17" x2="38.736" transform="translate(128.153 39.054)" fill="none" stroke="#7094d8" stroke-miterlimit="10" stroke-width="1.149"/>
        <g id="グループ_99" data-name="グループ 99" transform="translate(22.83 137.726)">
          <path id="パス_209" data-name="パス 209" d="M410.494,289.542H231.832a2.869,2.869,0,0,1-2.776-3.592l16.679-64.081a2.87,2.87,0,0,1,2.776-2.147H427.172a2.869,2.869,0,0,1,2.776,3.592L413.27,287.4A2.869,2.869,0,0,1,410.494,289.542Z" transform="translate(-228.961 -219.722)" fill="#bfd9ff"/>
          <g id="グループ_98" data-name="グループ 98" transform="translate(22.592 13.709)">
            <line id="線_18" data-name="線 18" x2="62.168" transform="translate(4.782)" fill="none" stroke="#a9c2ff" stroke-linecap="round" stroke-linejoin="round" stroke-width="3.446"/>
            <line id="線_19" data-name="線 19" x2="62.168" transform="translate(0 28.693)" fill="none" stroke="#a9c2ff" stroke-linecap="round" stroke-linejoin="round" stroke-width="3.446"/>
            <line id="線_20" data-name="線 20" x2="62.168" transform="translate(26.143 17.853)" fill="none" stroke="#a9c2ff" stroke-linecap="round" stroke-linejoin="round" stroke-width="3.446"/>
            <line id="線_21" data-name="線 21" x2="18.65" transform="translate(3.188 9.564)" fill="none" stroke="#a9c2ff" stroke-linecap="round" stroke-linejoin="round" stroke-width="3.446"/>
            <line id="線_22" data-name="線 22" x2="18.65" transform="translate(0.638 17.853)" fill="none" stroke="#a9c2ff" stroke-linecap="round" stroke-linejoin="round" stroke-width="3.446"/>
            <line id="線_23" data-name="線 23" x2="22.157" transform="translate(76.834)" fill="none" stroke="#a9c2ff" stroke-linecap="round" stroke-linejoin="round" stroke-width="3.446"/>
            <path id="パス_210" data-name="パス 210" d="M354.7,285.558H321.608a.255.255,0,0,1-.246-.318l1.481-5.69a.255.255,0,0,1,.246-.191h33.087a.255.255,0,0,1,.246.319l-1.481,5.69A.255.255,0,0,1,354.7,285.558Z" transform="translate(-267.004 -243.405)" fill="none" stroke="#84aee5" stroke-miterlimit="10" stroke-width="1.149"/>
            <path id="パス_211" data-name="パス 211" d="M305.309,285.558H272.222a.255.255,0,0,1-.247-.318l1.481-5.69a.256.256,0,0,1,.247-.191H306.79a.255.255,0,0,1,.247.319l-1.481,5.69A.255.255,0,0,1,305.309,285.558Z" transform="translate(-258.745 -243.405)" fill="none" stroke="#84aee5" stroke-miterlimit="10" stroke-width="1.149"/>
          </g>
          <path id="パス_212" data-name="パス 212" d="M422.254,269.832c-1.7-2.259-8.577-3.9-10.478-6.162-.971-1.153-.971-3.3-.739-5.121a7.115,7.115,0,0,0,1.574-1.267,30.5,30.5,0,0,0,1.86-3.281,1.066,1.066,0,0,0,.792.33c.9-.027,4.342-4.708,3.455-5.793-.507-.62-1.326-.082-1.935.492.91-2.084,1.551-3.682,1.551-3.682H418.3c.087-.262.167-.527.233-.8,1.364-5.472-1.965-9.908-7.438-9.908s-11.015,4.436-12.379,9.908c-.067.268-.119.533-.164.8h-.034s-.157,1.6-.286,3.682c-.322-.575-.873-1.113-1.689-.492-1.428,1.084-.323,5.766.566,5.793a1.714,1.714,0,0,0,.956-.33,20.146,20.146,0,0,0,.225,3.281,4.016,4.016,0,0,0,1.268,1.554,11.138,11.138,0,0,1-3.184,4.833c-3.028,2.259-10.728,3.9-13.55,6.162-2.538,2.032-4.8,7.965-5.233,9.138H422.93C423.085,277.8,423.779,271.864,422.254,269.832Z" transform="translate(-253.818 -222.218)" fill="#8dbcf8"/>
        </g>
        <g id="グループ_101" data-name="グループ 101" transform="translate(4.339 223.168)" opacity="0.46">
          <path id="パス_213" data-name="パス 213" d="M388.289,392.142H209.627a2.869,2.869,0,0,1-2.777-3.592l16.679-64.081a2.87,2.87,0,0,1,2.777-2.147H404.967a2.87,2.87,0,0,1,2.777,3.593L391.066,390A2.869,2.869,0,0,1,388.289,392.142Z" transform="translate(-206.756 -322.322)" fill="#bfd9ff"/>
          <g id="グループ_100" data-name="グループ 100" transform="translate(22.592 13.709)">
            <line id="線_24" data-name="線 24" x2="62.168" transform="translate(4.782)" fill="none" stroke="#a9c2ff" stroke-linecap="round" stroke-linejoin="round" stroke-width="3.446"/>
            <line id="線_25" data-name="線 25" x2="62.168" transform="translate(0 28.693)" fill="none" stroke="#a9c2ff" stroke-linecap="round" stroke-linejoin="round" stroke-width="3.446"/>
            <line id="線_26" data-name="線 26" x2="62.168" transform="translate(26.143 17.853)" fill="none" stroke="#a9c2ff" stroke-linecap="round" stroke-linejoin="round" stroke-width="3.446"/>
            <line id="線_27" data-name="線 27" x2="18.651" transform="translate(3.188 9.564)" fill="none" stroke="#a9c2ff" stroke-linecap="round" stroke-linejoin="round" stroke-width="3.446"/>
            <line id="線_28" data-name="線 28" x2="18.65" transform="translate(0.638 17.853)" fill="none" stroke="#a9c2ff" stroke-linecap="round" stroke-linejoin="round" stroke-width="3.446"/>
            <line id="線_29" data-name="線 29" x2="22.157" transform="translate(76.834)" fill="none" stroke="#a9c2ff" stroke-linecap="round" stroke-linejoin="round" stroke-width="3.446"/>
            <path id="パス_214" data-name="パス 214" d="M332.49,388.159H299.4a.254.254,0,0,1-.246-.319l1.481-5.689a.255.255,0,0,1,.247-.191h33.087a.255.255,0,0,1,.246.319l-1.481,5.689A.255.255,0,0,1,332.49,388.159Z" transform="translate(-244.8 -346.005)" fill="none" stroke="#84aee5" stroke-miterlimit="10" stroke-width="1.149"/>
            <path id="パス_215" data-name="パス 215" d="M283.1,388.159H250.018a.255.255,0,0,1-.247-.319l1.481-5.689a.255.255,0,0,1,.246-.191h33.087a.255.255,0,0,1,.246.319l-1.481,5.689A.255.255,0,0,1,283.1,388.159Z" transform="translate(-236.54 -346.005)" fill="none" stroke="#84aee5" stroke-miterlimit="10" stroke-width="1.149"/>
          </g>
          <path id="パス_216" data-name="パス 216" d="M400.049,372.432c-1.7-2.259-8.577-3.9-10.478-6.161-.971-1.154-.971-3.3-.74-5.122a7.072,7.072,0,0,0,1.574-1.267,30.349,30.349,0,0,0,1.861-3.281,1.063,1.063,0,0,0,.791.33c.9-.027,4.342-4.708,3.456-5.793-.507-.62-1.326-.082-1.935.492.91-2.084,1.551-3.682,1.551-3.682H396.1c.087-.263.166-.528.232-.8,1.365-5.472-1.965-9.908-7.437-9.908s-11.015,4.436-12.38,9.908c-.067.268-.119.533-.163.8h-.035s-.157,1.6-.286,3.682c-.322-.575-.873-1.113-1.689-.492-1.427,1.084-.322,5.766.567,5.793a1.715,1.715,0,0,0,.956-.33,20.049,20.049,0,0,0,.225,3.281,4.019,4.019,0,0,0,1.267,1.555,11.133,11.133,0,0,1-3.184,4.833c-3.027,2.258-10.727,3.9-13.549,6.161-2.539,2.032-4.8,7.966-5.234,9.138h45.34C400.881,380.4,401.574,374.464,400.049,372.432Z" transform="translate(-231.613 -324.818)" fill="#8dbcf8"/>
        </g>
        <line id="線_30" data-name="線 30" x2="31.881" transform="translate(150.151 293.306)" fill="none" stroke="#7094d8" stroke-miterlimit="10" stroke-width="1.149"/>
        <line id="線_31" data-name="線 31" x2="75.877" transform="translate(41.756 207.865)" fill="none" stroke="#7094d8" stroke-miterlimit="10" stroke-width="1.149"/>
        <line id="線_32" data-name="線 32" x2="18.491" transform="translate(135.008 207.865)" fill="none" stroke="#7094d8" stroke-miterlimit="10" stroke-width="1.149"/>
        <path id="パス_217" data-name="パス 217" d="M459.567,220.1h6.409a2.8,2.8,0,0,1,2.677,3.625l-2.71,8.808" transform="translate(-244.697 -82.06)" fill="none" stroke="#7094d8" stroke-miterlimit="10" stroke-width="1.149"/>
        <g id="グループ_105" data-name="グループ 105" transform="translate(0 19.129)">
          <g id="グループ_102" data-name="グループ 102" transform="translate(7.448)">
            <path id="パス_218" data-name="パス 218" d="M214.92,83.549h-3.269a1.122,1.122,0,0,1-1.115-1.486l.814-3.269a2.03,2.03,0,0,1,1.857-1.486h3.269a1.123,1.123,0,0,1,1.116,1.486l-.815,3.269A2.031,2.031,0,0,1,214.92,83.549Z" transform="translate(-210.49 -77.307)" fill="#bfd9ff"/>
          </g>
          <g id="グループ_103" data-name="グループ 103" transform="translate(5.058 9.586)">
            <path id="パス_219" data-name="パス 219" d="M212.05,95.06h-3.269a1.122,1.122,0,0,1-1.115-1.486l.814-3.27a2.031,2.031,0,0,1,1.857-1.486h3.269a1.123,1.123,0,0,1,1.116,1.486l-.815,3.27A2.031,2.031,0,0,1,212.05,95.06Z" transform="translate(-207.62 -88.818)" fill="#edf4ff"/>
            <path id="パス_220" data-name="パス 220" d="M224.543,95.06h-3.269a1.123,1.123,0,0,1-1.116-1.486l.815-3.27a2.03,2.03,0,0,1,1.856-1.486h3.27a1.122,1.122,0,0,1,1.115,1.486l-.815,3.27A2.03,2.03,0,0,1,224.543,95.06Z" transform="translate(-209.709 -88.818)" fill="#bfd9ff"/>
            <path id="パス_221" data-name="パス 221" d="M237.035,95.06h-3.269a1.123,1.123,0,0,1-1.116-1.486l.815-3.27a2.031,2.031,0,0,1,1.857-1.486h3.269a1.123,1.123,0,0,1,1.116,1.486l-.815,3.27A2.031,2.031,0,0,1,237.035,95.06Z" transform="translate(-211.798 -88.818)" fill="#edf4ff"/>
          </g>
          <g id="グループ_104" data-name="グループ 104" transform="translate(0 19.394)">
            <path id="パス_222" data-name="パス 222" d="M209.114,106.838h-3.269a1.123,1.123,0,0,1-1.116-1.486l.815-3.269A2.03,2.03,0,0,1,207.4,100.6h3.27a1.123,1.123,0,0,1,1.115,1.486l-.815,3.269A2.029,2.029,0,0,1,209.114,106.838Z" transform="translate(-202.07 -100.596)" fill="#edf4ff"/>
            <path id="パス_223" data-name="パス 223" d="M205.977,119.42h-3.269a1.123,1.123,0,0,1-1.116-1.486l.815-3.269a2.03,2.03,0,0,1,1.856-1.486h3.27a1.123,1.123,0,0,1,1.115,1.486l-.815,3.269A2.03,2.03,0,0,1,205.977,119.42Z" transform="translate(-201.546 -102.7)" fill="#edf4ff"/>
            <path id="パス_224" data-name="パス 224" d="M221.606,106.838h-3.269a1.123,1.123,0,0,1-1.116-1.486l.815-3.269a2.03,2.03,0,0,1,1.857-1.486h3.269a1.123,1.123,0,0,1,1.116,1.486l-.815,3.269A2.03,2.03,0,0,1,221.606,106.838Z" transform="translate(-204.16 -100.596)" fill="#edf4ff"/>
            <path id="パス_225" data-name="パス 225" d="M216.133,128.789h-3.269a1.123,1.123,0,0,1-1.116-1.486l.815-3.269a2.03,2.03,0,0,1,1.857-1.486h3.269a1.123,1.123,0,0,1,1.116,1.486l-.815,3.269A2.03,2.03,0,0,1,216.133,128.789Z" transform="translate(-203.244 -104.267)" fill="#bfd9ff"/>
          </g>
        </g>
        <g id="グループ_113" data-name="グループ 113" transform="translate(40.374 4.499)">
          <g id="グループ_109" data-name="グループ 109" transform="translate(0 1.789)">
            <g id="グループ_108" data-name="グループ 108">
              <g id="グループ_107" data-name="グループ 107">
                <g id="グループ_106" data-name="グループ 106">
                  <path id="パス_226" data-name="パス 226" d="M273.975,61.936v0l-.049,0c-.05,0-.1-.01-.148-.012l0,0c-.336-.021-.676-.037-1.023-.037-9.7,0-19.507,7.772-22.089,17.425l-.116.461h0c-.012.049-.02.1-.032.145l-.073.3h.01c-2.128,9.783,4.15,17.57,14.2,17.163,9.164-.371,18.406-7.685,21.157-16.751C288.79,70.794,283.361,62.592,273.975,61.936Zm6.686,18.357c-1.935,6.446-8.541,11.648-15.042,11.854-6.991.222-11.352-5.2-9.91-12.025l.2-.81H255.9c1.86-6.759,8.742-12.186,15.544-12.186.352,0,.7.018,1.033.047C278.977,67.722,282.718,73.441,280.662,80.293Z" transform="translate(-250.03 -61.887)" fill="#ebedfc"/>
                  <path id="パス_227" data-name="パス 227" d="M273.019,65.046h0a1.975,1.975,0,0,0,1.359,2.542c5.3,1.4,8.129,6.642,6.282,12.795-1.935,6.446-8.541,11.648-15.042,11.854-6.376.2-10.568-4.292-10.162-10.26a1.926,1.926,0,0,0-2.042-2.114h0a3.529,3.529,0,0,0-3.348,3.06c-.576,8.515,5.447,14.914,14.582,14.543,9.164-.371,18.406-7.685,21.157-16.751,2.655-8.751-1.353-16.214-8.885-18.212A3.465,3.465,0,0,0,273.019,65.046Z" transform="translate(-250.028 -61.977)" fill="#a5c5ff"/>
                </g>
              </g>
            </g>
          </g>
          <g id="グループ_112" data-name="グループ 112" transform="translate(44.154)">
            <g id="グループ_111" data-name="グループ 111">
              <g id="グループ_110" data-name="グループ 110">
                <path id="パス_228" data-name="パス 228" d="M327,59.788v0l-.047,0-.185-.011c-.326-.019-.655-.034-.99-.034-9.8,0-19.735,7.948-22.179,17.753s3.522,17.752,13.327,17.752c.334,0,.669-.014,1-.033l.189-.011.053,0v0c9.334-.631,18.487-8.231,20.891-17.55.013-.052.029-.1.042-.154C341.444,68.1,336.067,60.422,327,59.788Zm-7.886,30.183-.049,0q-.31.02-.62.025h0c-.072,0-.142.006-.213.006-6.911,0-11.117-5.6-9.394-12.514s8.722-12.514,15.633-12.514c.071,0,.14,0,.211,0q.309.006.61.026l.052,0c6.387.452,10.171,5.864,8.522,12.479-.013.052-.029.1-.042.154C332.109,84.193,325.674,89.526,319.111,89.971Z" transform="translate(-303.049 -59.739)" fill="#fff"/>
                <path id="パス_229" data-name="パス 229" d="M336.016,83.428a17.536,17.536,0,0,1-12.386,9.943,3.66,3.66,0,0,0-2.817,2.58h0a2.021,2.021,0,0,0,2.484,2.572A24.87,24.87,0,0,0,340.94,84.36c.7-1.618-.15-3.118-1.8-3.118h0A3.623,3.623,0,0,0,336.016,83.428Z" transform="translate(-306.006 -63.335)" fill="#bfd9ff"/>
              </g>
            </g>
          </g>
        </g>
        <path id="パス_230" data-name="パス 230" d="M268.557,133.572H235.47a.255.255,0,0,1-.246-.319l1.481-5.689a.256.256,0,0,1,.246-.191h33.087a.255.255,0,0,1,.246.319l-1.481,5.689A.255.255,0,0,1,268.557,133.572Z" transform="translate(-207.177 -66.551)" fill="#edf4ff"/>
        <g id="グループ_114" data-name="グループ 114" transform="translate(185.206 62.952)">
          <ellipse id="楕円形_2" data-name="楕円形 2" cx="16.635" cy="12.973" rx="16.635" ry="12.973" transform="translate(0 22.023) rotate(-41.447)" fill="#73a5ff"/>
          <path id="パス_231" data-name="パス 231" d="M473.666,172.975A5.493,5.493,0,0,1,468.643,177a3.038,3.038,0,0,1-3.018-4.021,5.492,5.492,0,0,1,5.023-4.021A3.037,3.037,0,0,1,473.666,172.975Z" transform="translate(-430.895 -136.458)" fill="#73a5ff"/>
          <path id="パス_232" data-name="パス 232" d="M443.636,161.184a1.392,1.392,0,0,1-1.145-.529l-3.8-5.057a1.932,1.932,0,0,1,.637-2.554,1.794,1.794,0,0,1,2.554,0l2.837,3.78,10.139-8.115a1.794,1.794,0,0,1,2.554,0,1.932,1.932,0,0,1-.637,2.554l-11.734,9.393A2.3,2.3,0,0,1,443.636,161.184Z" transform="translate(-426.368 -132.984)" fill="#fff"/>
        </g>
      </g>
      <g id="グループ_127" data-name="グループ 127" transform="translate(320.087 46.543)">
        <ellipse id="楕円形_3" data-name="楕円形 3" cx="62.646" cy="5.26" rx="62.646" ry="5.26" transform="translate(0 282.788)" fill="#bfd9ff"/>
        <g id="グループ_123" data-name="グループ 123" transform="translate(1.777)">
          <g id="グループ_121" data-name="グループ 121">
            <path id="パス_233" data-name="パス 233" d="M563.526,119.8s-1.594,3.188-2.55,10.2,1.594,47.5,1.594,47.5l27.418-2.869-12.434-52.923Z" transform="translate(-500.265 -111.829)" fill="#024470"/>
            <g id="グループ_119" data-name="グループ 119">
              <path id="パス_234" data-name="パス 234" d="M542.636,325.193l-9.564,47.344,18.651.478s4.782-42.083,2.869-42.083S542.636,325.193,542.636,325.193Z" transform="translate(-495.635 -146.178)" fill="#45242c"/>
              <g id="グループ_116" data-name="グループ 116" transform="translate(80.477 177.661)">
                <path id="パス_235" data-name="パス 235" d="M594.638,446.8s-7.014,7.333-9.883,8.927c.637,1.275,10.839,1.275,14.665-.638s6.7-6.376,6.7-6.376L605.8,453.5h1.913s1.913-6.7,1.913-8.289-1.913-3.826-1.913-3.826Z" transform="translate(-584.755 -343.27)" fill="#713336"/>
                <path id="パス_236" data-name="パス 236" d="M593.177,332.732l7.014,86.079,8.289-.638s9.564-63.124,5.739-84.8S593.177,332.732,593.177,332.732Z" transform="translate(-586.164 -323.567)" fill="#ff8d68"/>
                <path id="パス_237" data-name="パス 237" d="M600.222,437.811s-2.55,6.695-6.057,9.883,5.42,3.188,9.246,0,4.145-5.1,5.42-5.739-.319-4.783-.319-4.783Z" transform="translate(-586.195 -342.566)" fill="#ff8d68"/>
              </g>
              <g id="グループ_117" data-name="グループ 117" transform="translate(21.546 179.425)">
                <path id="パス_238" data-name="パス 238" d="M525.235,445.527s-8.149,6.046-11.246,7.133c.414,1.364,10.469,3.084,14.563,1.843s7.674-5.156,7.674-5.156l-1.12,4.66,1.885.322s3.014-6.277,3.283-7.848-1.241-4.093-1.241-4.093Z" transform="translate(-513.989 -345.203)" fill="#713336"/>
                <path id="パス_239" data-name="パス 239" d="M541.674,332.508l-7.6,86.03,8.278.769s20.068-60.609,19.951-82.623S541.674,332.508,541.674,332.508Z" transform="translate(-517.349 -325.686)" fill="#ff8d68"/>
                <path id="パス_240" data-name="パス 240" d="M532.341,437.185s-3.643,6.169-7.637,8.721,4.805,4.056,9.114,1.558,4.945-4.33,6.31-4.743.491-4.768.491-4.768Z" transform="translate(-515.611 -344.333)" fill="#ff8d68"/>
              </g>
              <g id="グループ_118" data-name="グループ 118" transform="translate(0 43.986)">
                <path id="パス_241" data-name="パス 241" d="M504.613,168.992l-16.481-3.246s-.25,2.248,1.248,2.746l1.5.5s3.746,8.99,5.494,9.989,12.24,5.328,12.24,5.328l2.743-10.572Z" transform="translate(-488.116 -163.498)" fill="#ff7759"/>
                <path id="パス_242" data-name="パス 242" d="M518.779,181.87s-.16-1.116-2.365-5.588a46.177,46.177,0,0,1-3-6.992s-7.741-3-8.99-4.5a5.525,5.525,0,0,0-2-1.748,3.953,3.953,0,0,0,.749,4.744c2.248,2,4.245,3.5,4.245,3.5s-.25,5.744.5,8.49a7.312,7.312,0,0,0,3,4.08Z" transform="translate(-490.428 -163.047)" fill="#ff8d68"/>
                <path id="パス_243" data-name="パス 243" d="M546.248,194.767s-11.158,17.854-11.477,16.259-14.347-26.142-14.347-26.142l-7.695,2.626s11.52,35.95,18.854,41.689c0,0,.637.957,2.869.638S553.9,211.664,553.9,211.664Z" transform="translate(-492.232 -166.699)" fill="#ff8d68"/>
              </g>
              <path id="パス_244" data-name="パス 244" d="M561.5,171.293s-5.978,2.392-8.847,6.536-11.158,22.955-11.158,22.955a25.588,25.588,0,0,0,14.666,10.839L570.187,185.8Z" transform="translate(-497.043 -120.44)" fill="#e86d5e"/>
              <path id="パス_245" data-name="パス 245" d="M554.308,244.126s.478,7.651.478,10.52c0,0-11.477,55.474-11.955,68.386s9.086,39.214,9.086,39.214,41.127-.957,54.517-3.826l1.435-27.737s1.913-48.3,0-62.168-10.043-21.041-10.043-21.041l-2.391-6.7Z" transform="translate(-497.264 -132.061)" fill="#713336"/>
              <path id="パス_246" data-name="パス 246" d="M589.934,167.273s10.76,5.022,14.107,10.282,13.39,33.714,13.39,33.714-11.238,4.065-21.041,4.065c0,0,.957,9.086,1.913,11.955s-2.391,4.066-2.391,4.066-23.432,6.456-40.888,2.63c0,0-2.152-.478-2.152-1.435s.239-3.348.239-3.348-1.674-16.259-2.152-19.129-5.739-10.68-5.261-13.789,8.608-17.534,8.608-17.534,5.5-6.456,7.89-8.13,8.369-1.674,8.369-1.674Z" transform="translate(-497.741 -119.768)" fill="#e86d5e"/>
              <path id="パス_247" data-name="パス 247" d="M573.565,154.685c.009.374,1.374,8.49-3.121,14.234-4.5,5.868,13.235,5.619,17.356-.375,3.746-5.369,3.371-6.242,3.371-6.242s-3-9.739-2.123-16.107C588.8,140.451,573.315,143.947,573.565,154.685Z" transform="translate(-501.763 -115.784)" fill="#ff8d68"/>
              <path id="パス_248" data-name="パス 248" d="M572.275,115.894s-5.169,1.322-8.1,9.26-.976,24.8.976,26.787,7.882,1.226,16.1-1.488c8.689-2.867,11.625-11.9,13.178-17.859C597.409,121.186,587.488,109.446,572.275,115.894Z" transform="translate(-500.587 -110.868)" fill="#ff8d68"/>
              <path id="パス_249" data-name="パス 249" d="M562.143,124.258s4.783,11.477,22.954,12.114l4.225,20.284s7.736,3.717,10.76,5.38c0,0,3.507-36.823-4.782-45.749s-22.954-6.7-28.693-1.594S562.143,124.258,562.143,124.258Z" transform="translate(-500.476 -110.228)" fill="#024470"/>
              <path id="パス_250" data-name="パス 250" d="M593.343,166.5l-4.065-3.826s-3.587,10.282-16.26,11a8.742,8.742,0,0,1-.717-6.456l-2.153,1.674s-4.543,6.456-4.065,8.368,6.536-1.435,6.536-1.435,7.173,4.3,10.043,4.544S592.865,167.223,593.343,166.5Z" transform="translate(-501.15 -118.999)" fill="#fff"/>
              <path id="パス_251" data-name="パス 251" d="M589.773,140.815s1.917-3.162,3.834-2-1.22,8.32-3.834,8.487S588.553,142.646,589.773,140.815Z" transform="translate(-504.869 -114.966)" fill="#ff7759"/>
            </g>
            <line id="線_33" data-name="線 33" x2="7.333" y2="26.143" transform="translate(89.403 68.228)" fill="none" stroke="#bb524f" stroke-miterlimit="10" stroke-width="1.149"/>
            <path id="パス_252" data-name="パス 252" d="M590.019,193.976a17.286,17.286,0,0,0,7.173,8.369" transform="translate(-505.158 -124.233)" fill="none" stroke="#bb524f" stroke-miterlimit="10" stroke-width="1.149"/>
            <path id="パス_253" data-name="パス 253" d="M600.068,185.07a8.815,8.815,0,0,1,8.608-7.173" transform="translate(-506.839 -121.544)" fill="none" stroke="#bb524f" stroke-miterlimit="10" stroke-width="1.149"/>
            <path id="パス_254" data-name="パス 254" d="M553.436,183.065s-7.81,12.833-7.731,15.861,5.1,11.637,5.1,11.637l6.217,16.26" transform="translate(-497.747 -122.409)" fill="none" stroke="#bb524f" stroke-miterlimit="10" stroke-width="1.149"/>
            <line id="線_34" data-name="線 34" y1="9.564" x2="8.369" transform="translate(82.708 104.413)" fill="none" stroke="#bb524f" stroke-miterlimit="10" stroke-width="1.149"/>
            <g id="グループ_120" data-name="グループ 120" transform="translate(2.763 49.48)">
              <path id="パス_255" data-name="パス 255" d="M501.241,172.452l-9.807-2.808a12.687,12.687,0,0,0,1.518,2.808c.637.638,7.492,3.029,7.492,3.029" transform="translate(-491.434 -169.644)" fill="none" stroke="#e66657" stroke-miterlimit="10" stroke-width="1.026"/>
              <path id="パス_256" data-name="パス 256" d="M493.257,173.016a17.357,17.357,0,0,0,1.434,3.348c.479.478,6.536,2.232,6.536,2.232" transform="translate(-491.739 -170.208)" fill="none" stroke="#e66657" stroke-miterlimit="10" stroke-width="1.026"/>
              <path id="パス_257" data-name="パス 257" d="M504.933,170.145l2.992,2.33,2.268-.576" transform="translate(-493.692 -169.728)" fill="none" stroke="#e66657" stroke-miterlimit="10" stroke-width="1.026"/>
            </g>
          </g>
          <g id="グループ_122" data-name="グループ 122" transform="translate(63.659 25.986)">
            <path id="パス_258" data-name="パス 258" d="M575.567,158.783a15.078,15.078,0,0,0,9.245-7.014" transform="translate(-566.401 -143.161)" fill="none" stroke="#e66657" stroke-miterlimit="10" stroke-width="1.026"/>
            <path id="パス_259" data-name="パス 259" d="M569.026,143.346,567.91,149.4l2.072.478" transform="translate(-565.12 -141.752)" fill="none" stroke="#e66657" stroke-miterlimit="10" stroke-width="1.026"/>
            <path id="パス_260" data-name="パス 260" d="M568.867,154.224a9.823,9.823,0,0,0,6.217-1.115" transform="translate(-565.28 -143.385)" fill="none" stroke="#e66657" stroke-miterlimit="10" stroke-width="1.026"/>
            <path id="パス_261" data-name="パス 261" d="M581.273,146.487a2.949,2.949,0,1,1-2.95-2.949A2.949,2.949,0,0,1,581.273,146.487Z" transform="translate(-566.369 -141.784)" fill="#fa6157"/>
            <path id="パス_262" data-name="パス 262" d="M575.279,142.149a.717.717,0,1,1-.718-.717A.718.718,0,0,1,575.279,142.149Z" transform="translate(-566.113 -141.432)" fill="#024470"/>
            <path id="パス_263" data-name="パス 263" d="M565.995,142.149a.717.717,0,1,1-.718-.717A.718.718,0,0,1,565.995,142.149Z" transform="translate(-564.56 -141.432)" fill="#024470"/>
          </g>
          <path id="パス_264" data-name="パス 264" d="M560.157,255.182s13.151,4.065,25.585-1.2" transform="translate(-500.164 -134.269)" fill="none" stroke="#562525" stroke-miterlimit="10" stroke-width="1.149"/>
          <path id="パス_265" data-name="パス 265" d="M564.847,260.684s6.7,2.232,17.535-1.913" transform="translate(-500.949 -135.07)" fill="none" stroke="#562525" stroke-miterlimit="10" stroke-width="1.149"/>
        </g>
        <rect id="長方形_17" data-name="長方形 17" width="29.171" height="38.736" transform="matrix(0.866, -0.5, 0.5, 0.866, 37.541, 136.777)" fill="#fff"/>
        <g id="グループ_126" data-name="グループ 126" transform="translate(66.791 92.618)">
          <g id="グループ_124" data-name="グループ 124" transform="translate(0.121)">
            <path id="パス_266" data-name="パス 266" d="M586.137,271.273s-3.985,4.384-5.181,5.34-9.325,1.674-9.325,1.674-3.587,5.978-4.543,5.739-.718-.957-.718-.957-.239-10.759.479-11.955,12.433-4.543,12.433-4.543l1.435-1.674,5.42,6.376" transform="translate(-566.332 -228.712)" fill="#ff8d68"/>
            <path id="パス_267" data-name="パス 267" d="M620.269,221.445c.319.956,2.87,8.448,4.145,12.274S597,257.63,592.532,261.137l-3.507,2.869-5.42-6.376,25.186-25.186-3.666-8.289Z" transform="translate(-569.221 -221.445)" fill="#ff8d68"/>
          </g>
          <g id="グループ_125" data-name="グループ 125" transform="translate(0 42.402)">
            <line id="線_35" data-name="線 35" y1="6.695" x2="1.514" transform="translate(0.877 6.217)" fill="none" stroke="#e66657" stroke-miterlimit="10" stroke-width="1.026"/>
            <line id="線_36" data-name="線 36" y1="3.826" x2="1.753" transform="translate(0 3.029)" fill="none" stroke="#e66657" stroke-miterlimit="10" stroke-width="1.026"/>
            <path id="パス_268" data-name="パス 268" d="M566.825,272.362l-.638,12.912h2.072l3.348-5.739" transform="translate(-566.187 -272.362)" fill="none" stroke="#e66657" stroke-miterlimit="10" stroke-width="1.026"/>
          </g>
        </g>
      </g>
      <g id="グループ_135" data-name="グループ 135" transform="translate(0 43.677)">
        <ellipse id="楕円形_4" data-name="楕円形 4" cx="62.646" cy="5.26" rx="62.646" ry="5.26" transform="translate(0 285.655)" fill="#bfd9ff"/>
        <g id="グループ_134" data-name="グループ 134" transform="translate(16.584)">
          <g id="グループ_133" data-name="グループ 133">
            <g id="グループ_132" data-name="グループ 132">
              <g id="グループ_128" data-name="グループ 128" transform="translate(13.631 195.915)">
                <path id="パス_269" data-name="パス 269" d="M146.2,435.357s1.329-2.848,6.266-2.089,5.506,1.709,6.076,4.177,2.278,5.127,3.418,5.7,5.316,3.418,8.733,3.987,3.8,2.658,3.038,3.608-13.67,1.709-16.518,1.328c0,0-9.683-.189-11.962-.948S146.007,436.306,146.2,435.357Z" transform="translate(-138.986 -357.28)" fill="#2d2737"/>
                <path id="パス_270" data-name="パス 270" d="M139.627,353.383a9.351,9.351,0,0,1,6.859-10.5c8.3-2.64,9.875,1.2,12.388,8.369s-2.16,68.436-2.16,68.436-9.561,1.632-12.014.185c0,0-7.283-39.881-6.777-50.826S139.627,353.383,139.627,353.383Z" transform="translate(-137.898 -342.045)" fill="#3d4776"/>
                <path id="パス_271" data-name="パス 271" d="M144.847,432.3s10.823-.949,14.24-1.519l-.19,4.937s-8.544,1.519-13.86.759Z" transform="translate(-139.06 -356.886)" fill="#51598d"/>
              </g>
              <path id="パス_272" data-name="パス 272" d="M138.289,171.33s-6.834.38-11.012,15.949-6.835,34.555-5.316,39.491S139.808,245,145.884,245s6.456-4.557,5.316-8.354-12.911-14.05-12.911-14.05,9.493-30.377,9.114-38.352S142.466,171.33,138.289,171.33Z" transform="translate(-121.529 -117.58)" fill="#7e78c7"/>
              <g id="グループ_130" data-name="グループ 130" transform="translate(101.213 20.202)">
                <path id="パス_273" data-name="パス 273" d="M244.2,164.762l-1.133.115,2.541-5.03s6.458-.407,7.494,2.32l-2.962,6.57Z" transform="translate(-243.068 -135.858)" fill="#ff8d68"/>
                <g id="グループ_129" data-name="グループ 129" transform="translate(0.944)">
                  <path id="パス_274" data-name="パス 274" d="M248.786,147.368s-.251-5.141,1.577-5.871,3.877.692,3.877.692,2.96-.3,3.9.962a5.68,5.68,0,0,1,.867,3.174,2.971,2.971,0,0,1,2.1,1.961c.434,1.587-.341,4.657-.341,4.657s-1.933,2.373-4.168,1.785S248.786,147.368,248.786,147.368Z" transform="translate(-244.966 -132.758)" fill="#ff7759"/>
                  <path id="パス_275" data-name="パス 275" d="M244.666,149.806s-.685-6.728.039-7.617,8.138-11.144,8.138-11.144a3.74,3.74,0,0,1,.653,3.741c-.884,1.994-4.374,8.04-4.374,8.04l-.017,5.168A11.347,11.347,0,0,1,244.666,149.806Z" transform="translate(-244.23 -131.045)" fill="#ff7759"/>
                  <path id="パス_276" data-name="パス 276" d="M245.186,157.4s-1.771-10.8-.563-12.287,7.133-.618,8.264-.19,4.261,4.46,4.7,6.048-2.517,7.327-4.29,8.595S246.213,159.473,245.186,157.4Z" transform="translate(-244.201 -133.259)" fill="#ff8d68"/>
                </g>
              </g>
              <path id="パス_277" data-name="パス 277" d="M240.376,167.737l2.278-4.176s5.316-.949,7.975,3.227c.759,1.519.38,1.519.38,1.519l-1.709,3.418Z" transform="translate(-141.405 -116.265)" fill="#dee0e8"/>
              <path id="パス_278" data-name="パス 278" d="M170.474,113.3s5.618,1.437,8.8,10.063,1.061,26.954-1.061,29.111-8.566,1.332-17.5-1.617c-9.443-3.117-12.633-12.933-14.32-19.408C143.16,119.053,153.942,106.294,170.474,113.3Z" transform="translate(-125.592 -107.542)" fill="#ff8d68"/>
              <path id="パス_279" data-name="パス 279" d="M151.231,167.479l4.557-16.328s9.114-2.658,14.809,3.418l1.9,2.658v10.632A60.814,60.814,0,0,1,151.231,167.479Z" transform="translate(-126.497 -114.108)" fill="#ff8d68"/>
              <path id="パス_280" data-name="パス 280" d="M135.651,275.448a150.394,150.394,0,0,0,0,42.719c3.418,22.784,10.252,25.062,16.518,25.062s7.975-18.227,9.114-26.2,5.7-35.314-2.848-41.58S140.207,268.613,135.651,275.448Z" transform="translate(-123.637 -134.17)" fill="#3d4776"/>
              <path id="パス_281" data-name="パス 281" d="M164.293,302.313s-6.835-18.227,5.126-26.2,21.075-6.835,23.923,6.266,3.418,58.1-.57,67.211S174.545,344.463,164.293,302.313Z" transform="translate(-128.356 -134.264)" fill="#3d4776"/>
              <path id="パス_282" data-name="パス 282" d="M180.989,113.326a8.219,8.219,0,0,1,1.078,7.547c-1.617,4.043-7.547,5.66-7.547,5.66a6.487,6.487,0,0,1,0,6.469l-1.347,2.157s1.887,4.313,1.347,5.39-2.426.809-2.426.809-2.156-5.929-2.965-5.39-2.965,3.234-2.965,5.66.809,4.313.269,5.93-8.895,1.617-12.4,1.078-8.895-11.321-10.243-16.173c0,0-1.886-6.739.809-12.4,0,0-.539-4.852,4.044-9.7s19.138-3.234,21.564-1.348c0,0-.27-2.695,2.426-2.156A12.9,12.9,0,0,1,180.989,113.326Z" transform="translate(-125.145 -106.785)" fill="#c53a45"/>
              <path id="パス_283" data-name="パス 283" d="M177.891,143.629s-.809-3.5-3.773-1.887.539,9.973,2.965,9.434S178.431,144.977,177.891,143.629Z" transform="translate(-130.134 -112.56)" fill="#ff7759"/>
              <path id="パス_284" data-name="パス 284" d="M148.336,169.687s1.272-4.471,2.411-4.85,15.19-1.9,22.784,2.657c3.418,2.658,3.038,4.557,3.038,4.557S153.9,167.7,148.336,169.687Z" transform="translate(-126.013 -116.402)" fill="#dee0e8"/>
              <path id="パス_285" data-name="パス 285" d="M142.529,169.04s23.543-1.519,40.252,5.7c7.595,3.8,24.967,20.98,24.967,20.98l13.67-28.48s7.69-2.752,10.728,4.462c0,0-8.639,33.606-15.853,44.239-4.557,3.8-26.3-8.544-26.3-8.544s3.417,44.048,2.278,63.795c-1.519,3.8-31.138,5.7-36.454,5.316s-23.923-6.455-24.3-7.594,2.658-46.707,1.9-52.023-3.038-31.518-2.278-35.315S135.314,170.559,142.529,169.04Z" transform="translate(-123.111 -116.809)" fill="#7e78c7"/>
              <g id="グループ_131" data-name="グループ 131" transform="translate(42.688 198.414)">
                <path id="パス_286" data-name="パス 286" d="M174.583,436.725s1.328-2.848,6.265-2.089,5.506,1.709,6.076,4.177,2.278,5.126,3.418,5.7,5.316,3.418,8.734,3.987,3.8,2.657,3.037,3.608-13.67,1.708-16.518,1.329c0,0-9.683-.19-11.962-.949S174.393,437.674,174.583,436.725Z" transform="translate(-172.79 -360.007)" fill="#3e3343"/>
                <path id="パス_287" data-name="パス 287" d="M176.882,355.122a9.352,9.352,0,0,1,7.975-9.683c8.544-1.709,9.683,2.278,11.392,9.683s-9.683,67.781-9.683,67.781-9.683.57-11.961-1.139c0,0-2.848-40.441-1.14-51.263S176.882,355.122,176.882,355.122Z" transform="translate(-172.811 -345.046)" fill="#3d4776"/>
                <path id="パス_288" data-name="パス 288" d="M173.992,437.433s7.4,2.089,13.671.949l.57-4.367-14.43-.949Z" transform="translate(-172.959 -359.766)" fill="#51598d"/>
              </g>
              <path id="パス_289" data-name="パス 289" d="M161.947,303.452s7.975,25.632,13.955,38.163" transform="translate(-128.289 -139.676)" fill="none" stroke="#2a2e59" stroke-miterlimit="10" stroke-width="1.026"/>
              <path id="パス_290" data-name="パス 290" d="M181.44,355.181s4.842-2.848,9.683,0" transform="translate(-131.549 -148.115)" fill="none" stroke="#2a2e59" stroke-miterlimit="10" stroke-width="1.026"/>
              <path id="パス_291" data-name="パス 291" d="M180.414,359.089s3.987-2.278,10.823,2.562" transform="translate(-131.377 -148.891)" fill="none" stroke="#2a2e59" stroke-miterlimit="10" stroke-width="1.026"/>
              <path id="パス_292" data-name="パス 292" d="M144.505,351.093s3.133-2.848,10.253.285" transform="translate(-125.372 -147.445)" fill="none" stroke="#2a2e59" stroke-miterlimit="10" stroke-width="1.026"/>
              <path id="パス_293" data-name="パス 293" d="M147.241,354.6a8.565,8.565,0,0,1,8.829,1.139" transform="translate(-125.829 -148.105)" fill="none" stroke="#2a2e59" stroke-miterlimit="10" stroke-width="1.026"/>
              <line id="線_37" data-name="線 37" x1="1.709" y2="58.098" transform="translate(30.241 211.053)" fill="none" stroke="#2a2e59" stroke-miterlimit="10" stroke-width="1.026"/>
              <path id="パス_294" data-name="パス 294" d="M188.166,301.284s6.456,3.8,9.114-2.278" transform="translate(-132.674 -138.932)" fill="none" stroke="#2a2e59" stroke-miterlimit="10" stroke-width="1.026"/>
              <path id="パス_295" data-name="パス 295" d="M195.918,302.654s3.038,23.543,2.278,39.112" transform="translate(-133.97 -139.542)" fill="none" stroke="#2a2e59" stroke-miterlimit="10" stroke-width="1.026"/>
              <line id="線_38" data-name="線 38" x2="3.038" y2="32.657" transform="translate(8.026 74.635)" fill="none" stroke="#524b81" stroke-miterlimit="10" stroke-width="1.026"/>
              <path id="パス_296" data-name="パス 296" d="M193.752,210.089s22.5,16.234,33.036,13.1" transform="translate(-133.608 -124.062)" fill="none" stroke="#524b81" stroke-miterlimit="10" stroke-width="1.026"/>
              <path id="パス_297" data-name="パス 297" d="M225.9,205.3a9.394,9.394,0,0,1,4.272,8.544" transform="translate(-138.984 -123.261)" fill="none" stroke="#524b81" stroke-miterlimit="10" stroke-width="1.026"/>
              <path id="パス_298" data-name="パス 298" d="M224.531,202.526a6.856,6.856,0,0,1,7.69,3.418" transform="translate(-138.755 -122.764)" fill="none" stroke="#524b81" stroke-miterlimit="10" stroke-width="1.026"/>
              <path id="パス_299" data-name="パス 299" d="M191.375,178.968s-11.962,6.266-3.987,20.79" transform="translate(-132.085 -118.857)" fill="none" stroke="#524b81" stroke-miterlimit="10" stroke-width="1.026"/>
              <path id="パス_300" data-name="パス 300" d="M172.378,156.226s1.993,5.126,8.686,4.272" transform="translate(-130.033 -115.054)" fill="none" stroke="#e66657" stroke-miterlimit="10" stroke-width="1.026"/>
              <path id="パス_301" data-name="パス 301" d="M249.781,143.172l2.231-1.994a3.433,3.433,0,0,1,2.4.993" transform="translate(-142.978 -112.537)" fill="none" stroke="#e66657" stroke-miterlimit="10" stroke-width="1.026"/>
              <path id="パス_302" data-name="パス 302" d="M252.973,143.6a36.694,36.694,0,0,1,3.18-1.851s2.9.712,3.323,2.231a3.851,3.851,0,0,1,.095,2.326" transform="translate(-143.512 -112.633)" fill="none" stroke="#e66657" stroke-miterlimit="10" stroke-width="1.026"/>
              <path id="パス_303" data-name="パス 303" d="M257.476,147.276c.142-.047,4.035.19,4.035.19a3.408,3.408,0,0,1,1.377,2.8,14.477,14.477,0,0,1-.658,3.677,4.828,4.828,0,0,1-3.757,1.924" transform="translate(-144.265 -113.556)" fill="none" stroke="#e66657" stroke-miterlimit="10" stroke-width="1.026"/>
              <path id="パス_304" data-name="パス 304" d="M259.313,152.065a2.358,2.358,0,0,1-.142,2.136c-.617,1.377-1.364,4.982-4.052,6.668" transform="translate(-143.871 -114.358)" fill="none" stroke="#e66657" stroke-miterlimit="10" stroke-width="1.026"/>
            </g>
            <path id="パス_305" data-name="パス 305" d="M160.6,121.482c-5.554-2.706-12.674.57-12.674.57a7.379,7.379,0,0,1,4.842-4.984" transform="translate(-125.944 -108.505)" fill="none" stroke="#a03a45" stroke-miterlimit="10" stroke-width="1.368"/>
            <path id="パス_306" data-name="パス 306" d="M148.267,125.789s1.424-.142,3.275,2.706" transform="translate(-126.001 -109.963)" fill="none" stroke="#a03a45" stroke-miterlimit="10" stroke-width="1.368"/>
            <path id="パス_307" data-name="パス 307" d="M177.678,110.456s7.025,1.139,7.215,8.164" transform="translate(-130.92 -107.399)" fill="none" stroke="#a03a45" stroke-miterlimit="10" stroke-width="1.368"/>
          </g>
        </g>
      </g>
    </g>
  </g>
</svg>
