<svg xmlns="http://www.w3.org/2000/svg" width="120.748" height="120.742" viewBox="0 0 120.748 120.742">
  <g id="グループ_542" data-name="グループ 542" transform="translate(-74.134 -78.238)">
    <g id="グループ_515" data-name="グループ 515">
      <path id="パス_1192" data-name="パス 1192" d="M144.849,85.509a2.987,2.987,0,0,1-.57-.053,54.038,54.038,0,0,0-19.541,0,3.162,3.162,0,1,1-1.134-6.222,60.185,60.185,0,0,1,21.808,0,3.163,3.163,0,0,1-.563,6.275Z" fill="#16283a"/>
    </g>
    <g id="グループ_516" data-name="グループ 516">
      <path id="パス_1193" data-name="パス 1193" d="M90.759,104.919a3.164,3.164,0,0,1-2.418-5.2A60.455,60.455,0,0,1,123.6,79.234a3.163,3.163,0,1,1,1.137,6.222,54.113,54.113,0,0,0-31.56,18.338A3.162,3.162,0,0,1,90.759,104.919Z" fill="#16283a"/>
    </g>
    <g id="グループ_517" data-name="グループ 517">
      <path id="パス_1194" data-name="パス 1194" d="M90.762,178.622a3.161,3.161,0,0,1-2.421-1.124,60.415,60.415,0,0,1-14.207-38.891,3.163,3.163,0,0,1,6.327,0A54.082,54.082,0,0,0,93.179,173.42a3.163,3.163,0,0,1-2.417,5.2Z" fill="#16283a"/>
    </g>
    <g id="グループ_518" data-name="グループ 518">
      <path id="パス_1195" data-name="パス 1195" d="M124.174,198.032a3.013,3.013,0,0,1-.572-.052A60.484,60.484,0,0,1,88.341,177.5a3.164,3.164,0,1,1,4.838-4.078,54.126,54.126,0,0,0,31.56,18.338,3.163,3.163,0,0,1-.565,6.274Z" fill="#16283a"/>
    </g>
    <g id="グループ_519" data-name="グループ 519">
      <path id="パス_1196" data-name="パス 1196" d="M77.3,141.77a3.162,3.162,0,0,1-3.163-3.163A60.415,60.415,0,0,1,88.341,99.716a3.164,3.164,0,1,1,4.838,4.078,54.08,54.08,0,0,0-12.718,34.813A3.162,3.162,0,0,1,77.3,141.77Z" fill="#16283a"/>
    </g>
    <g id="グループ_520" data-name="グループ 520">
      <path id="パス_1197" data-name="パス 1197" d="M134.509,198.98a60.917,60.917,0,0,1-10.905-1,3.162,3.162,0,1,1,1.134-6.222,54.105,54.105,0,0,0,19.541,0,3.162,3.162,0,1,1,1.133,6.222A60.887,60.887,0,0,1,134.509,198.98Z" fill="#16283a"/>
    </g>
    <g id="グループ_521" data-name="グループ 521">
      <path id="パス_1198" data-name="パス 1198" d="M144.843,198.032a3.163,3.163,0,0,1-.566-6.274,54.126,54.126,0,0,0,31.56-18.338,3.164,3.164,0,1,1,4.838,4.078,60.481,60.481,0,0,1-35.261,20.482A3,3,0,0,1,144.843,198.032Z" fill="#16283a"/>
    </g>
    <g id="グループ_522" data-name="グループ 522">
      <path id="パス_1199" data-name="パス 1199" d="M191.719,141.77a3.162,3.162,0,0,1-3.163-3.163,54.081,54.081,0,0,0-12.719-34.813,3.164,3.164,0,1,1,4.838-4.078,60.415,60.415,0,0,1,14.207,38.891A3.162,3.162,0,0,1,191.719,141.77Z" fill="#16283a"/>
    </g>
    <g id="グループ_523" data-name="グループ 523">
      <path id="パス_1200" data-name="パス 1200" d="M178.258,104.919a3.162,3.162,0,0,1-2.421-1.125,54.113,54.113,0,0,0-31.56-18.338,3.163,3.163,0,1,1,1.137-6.222,60.455,60.455,0,0,1,35.261,20.482,3.164,3.164,0,0,1-2.417,5.2Z" fill="#16283a"/>
    </g>
    <g id="グループ_524" data-name="グループ 524">
      <path id="パス_1201" data-name="パス 1201" d="M178.255,178.622a3.163,3.163,0,0,1-2.418-5.2,54.083,54.083,0,0,0,12.719-34.813,3.163,3.163,0,0,1,6.326,0A60.415,60.415,0,0,1,180.675,177.5,3.159,3.159,0,0,1,178.255,178.622Z" fill="#16283a"/>
    </g>
    <g id="グループ_525" data-name="グループ 525">
      <path id="パス_1202" data-name="パス 1202" d="M115.436,108.99c-.1,0-.209-.006-.314-.015a195,195,0,0,1-25.08-4.14,3.163,3.163,0,1,1,1.436-6.16,188.964,188.964,0,0,0,24.265,4,3.163,3.163,0,0,1-.307,6.311Z" fill="#16283a"/>
    </g>
    <g id="グループ_526" data-name="グループ 526">
      <path id="パス_1203" data-name="パス 1203" d="M134.509,109.933c-6.444,0-12.967-.322-19.388-.958a3.163,3.163,0,1,1,.624-6.3,191.44,191.44,0,0,0,37.527,0,3.163,3.163,0,0,1,.624,6.3C147.475,109.611,140.952,109.933,134.509,109.933Z" fill="#16283a"/>
    </g>
    <g id="グループ_527" data-name="グループ 527">
      <path id="パス_1204" data-name="パス 1204" d="M153.581,108.99a3.163,3.163,0,0,1-.308-6.311,188.935,188.935,0,0,0,24.265-4,3.163,3.163,0,1,1,1.436,6.16,195,195,0,0,1-25.08,4.14C153.789,108.984,153.684,108.99,153.581,108.99Z" fill="#16283a"/>
    </g>
    <g id="グループ_528" data-name="グループ 528">
      <path id="パス_1205" data-name="パス 1205" d="M178.259,178.622a3.186,3.186,0,0,1-.721-.083,189.109,189.109,0,0,0-24.265-4,3.163,3.163,0,0,1,.621-6.3,195.177,195.177,0,0,1,25.08,4.14,3.163,3.163,0,0,1-.715,6.243Z" fill="#16283a"/>
    </g>
    <g id="グループ_529" data-name="グループ 529">
      <path id="パス_1206" data-name="パス 1206" d="M153.587,174.551c-.1,0-.209-.007-.315-.016a191.439,191.439,0,0,0-37.527,0,3.163,3.163,0,0,1-.624-6.3,197.942,197.942,0,0,1,38.775,0,3.164,3.164,0,0,1-.309,6.312Z" fill="#16283a"/>
    </g>
    <g id="グループ_530" data-name="グループ 530">
      <path id="パス_1207" data-name="パス 1207" d="M90.757,178.622a3.163,3.163,0,0,1-.715-6.243,195.177,195.177,0,0,1,25.08-4.14,3.163,3.163,0,1,1,.621,6.3,189.138,189.138,0,0,0-24.265,4A3.179,3.179,0,0,1,90.757,178.622Z" fill="#16283a"/>
    </g>
    <g id="グループ_531" data-name="グループ 531">
      <path id="パス_1208" data-name="パス 1208" d="M111.188,141.77a3.162,3.162,0,0,1-3.163-3.163,131.839,131.839,0,0,1,4.349-33.587,3.163,3.163,0,0,1,6.117,1.613,125.566,125.566,0,0,0-4.14,31.974A3.162,3.162,0,0,1,111.188,141.77Z" fill="#16283a"/>
    </g>
    <g id="グループ_532" data-name="グループ 532">
      <path id="パス_1209" data-name="パス 1209" d="M115.434,108.99a3.165,3.165,0,0,1-3.06-3.97,130.909,130.909,0,0,1,8.954-24.065,3.164,3.164,0,0,1,5.685,2.78,124.441,124.441,0,0,0-8.522,22.9A3.164,3.164,0,0,1,115.434,108.99Z" fill="#16283a"/>
    </g>
    <g id="グループ_533" data-name="グループ 533">
      <path id="パス_1210" data-name="パス 1210" d="M115.431,174.551a3.166,3.166,0,0,1-3.057-2.357,131.839,131.839,0,0,1-4.349-33.587,3.163,3.163,0,0,1,6.326,0,125.566,125.566,0,0,0,4.14,31.974,3.165,3.165,0,0,1-3.06,3.97Z" fill="#16283a"/>
    </g>
    <g id="グループ_534" data-name="グループ 534">
      <path id="パス_1211" data-name="パス 1211" d="M124.174,198.032a3.168,3.168,0,0,1-2.846-1.773,130.909,130.909,0,0,1-8.954-24.065,3.163,3.163,0,1,1,6.117-1.613,124.441,124.441,0,0,0,8.522,22.9,3.162,3.162,0,0,1-2.839,4.553Z" fill="#16283a"/>
    </g>
    <g id="グループ_535" data-name="グループ 535">
      <path id="パス_1212" data-name="パス 1212" d="M157.828,141.77a3.162,3.162,0,0,1-3.163-3.163,125.521,125.521,0,0,0-4.14-31.974,3.163,3.163,0,0,1,6.117-1.613,131.8,131.8,0,0,1,4.35,33.587A3.162,3.162,0,0,1,157.828,141.77Z" fill="#16283a"/>
    </g>
    <g id="グループ_536" data-name="グループ 536">
      <path id="パス_1213" data-name="パス 1213" d="M153.585,174.551a3.165,3.165,0,0,1-3.06-3.97,125.521,125.521,0,0,0,4.14-31.974,3.164,3.164,0,0,1,6.327,0,131.8,131.8,0,0,1-4.35,33.587A3.165,3.165,0,0,1,153.585,174.551Z" fill="#16283a"/>
    </g>
    <g id="グループ_537" data-name="グループ 537">
      <path id="パス_1214" data-name="パス 1214" d="M153.582,108.99a3.165,3.165,0,0,1-3.057-2.357A124.438,124.438,0,0,0,142,83.735a3.164,3.164,0,1,1,5.684-2.78,130.765,130.765,0,0,1,8.954,24.065,3.165,3.165,0,0,1-3.06,3.97Z" fill="#16283a"/>
    </g>
    <g id="グループ_538" data-name="グループ 538">
      <path id="パス_1215" data-name="パス 1215" d="M144.843,198.032A3.162,3.162,0,0,1,142,193.479a124.438,124.438,0,0,0,8.521-22.9,3.163,3.163,0,0,1,6.117,1.613,130.764,130.764,0,0,1-8.954,24.065A3.165,3.165,0,0,1,144.843,198.032Z" fill="#16283a"/>
    </g>
    <g id="グループ_539" data-name="グループ 539">
      <path id="パス_1216" data-name="パス 1216" d="M111.188,141.77H77.3a3.163,3.163,0,0,1,0-6.326h33.891a3.163,3.163,0,0,1,0,6.326Z" fill="#16283a"/>
    </g>
    <g id="グループ_540" data-name="グループ 540">
      <path id="パス_1217" data-name="パス 1217" d="M157.828,141.77h-46.64a3.163,3.163,0,1,1,0-6.326h46.64a3.163,3.163,0,1,1,0,6.326Z" fill="#16283a"/>
    </g>
    <g id="グループ_541" data-name="グループ 541">
      <path id="パス_1218" data-name="パス 1218" d="M191.719,141.77H157.828a3.163,3.163,0,1,1,0-6.326h33.891a3.163,3.163,0,1,1,0,6.326Z" fill="#16283a"/>
    </g>
  </g>
</svg>
