<svg xmlns="http://www.w3.org/2000/svg" width="171.748" height="98.862" viewBox="0 0 171.748 98.862">
  <g id="グループ_555" data-name="グループ 555" transform="translate(-72.77 -342.476)">
    <g id="グループ_547" data-name="グループ 547" transform="translate(72.77 342.476)">
      <g id="グループ_544" data-name="グループ 544">
        <circle id="楕円形_8" data-name="楕円形 8" cx="27.053" cy="27.053" r="27.053" transform="translate(7.403 13.554)" fill="#16283a"/>
        <path id="パス_1219" data-name="パス 1219" d="M84.829,433.342h0A17.847,17.847,0,0,1,73.092,413.1l8.91-46.4,45.958,15.76-21.441,42.1A17.845,17.845,0,0,1,84.829,433.342Z" transform="translate(-72.77 -335.448)" fill="#16283a"/>
        <g id="グループ_543" data-name="グループ 543" transform="translate(17.857)">
          <path id="パス_1220" data-name="パス 1220" d="M121.441,371.113H86.611L88.5,352.8a7.849,7.849,0,0,1,7.808-7.043h15.433a7.848,7.848,0,0,1,7.808,7.043Z" transform="translate(-86.611 -341.525)" fill="#16283a"/>
          <path id="パス_1221" data-name="パス 1221" d="M117.817,364.963H88.9l1.57-16.242a6.692,6.692,0,0,1,6.481-6.245h12.812a6.693,6.693,0,0,1,6.482,6.245Z" transform="translate(-85.946 -342.476)" fill="#16283a"/>
        </g>
      </g>
      <g id="グループ_546" data-name="グループ 546" transform="translate(110.24)">
        <circle id="楕円形_9" data-name="楕円形 9" cx="27.053" cy="27.053" r="27.053" transform="translate(0 13.554)" fill="#16283a"/>
        <path id="パス_1222" data-name="パス 1222" d="M206.242,433.342h0A17.847,17.847,0,0,0,217.979,413.1l-8.91-46.4-45.958,15.76,21.441,42.1A17.845,17.845,0,0,0,206.242,433.342Z" transform="translate(-156.793 -335.448)" fill="#16283a"/>
        <g id="グループ_545" data-name="グループ 545" transform="translate(8.821)">
          <path id="パス_1223" data-name="パス 1223" d="M165.051,371.113h34.83l-1.89-18.318a7.85,7.85,0,0,0-7.808-7.043H174.748a7.848,7.848,0,0,0-7.807,7.043Z" transform="translate(-165.051 -341.525)" fill="#16283a"/>
          <path id="パス_1224" data-name="パス 1224" d="M167.344,364.963h28.912l-1.569-16.242a6.693,6.693,0,0,0-6.481-6.245H175.395a6.693,6.693,0,0,0-6.482,6.245Z" transform="translate(-164.386 -342.476)" fill="#16283a"/>
        </g>
      </g>
    </g>
    <rect id="長方形_61" data-name="長方形 61" width="82.173" height="56.135" transform="translate(117.558 357.27)" fill="#16283a"/>
    <g id="グループ_550" data-name="グループ 550" transform="translate(108.85 392.777)">
      <g id="グループ_548" data-name="グループ 548">
        <circle id="楕円形_10" data-name="楕円形 10" cx="17.584" cy="17.584" r="17.584" fill="#16283a"/>
        <circle id="楕円形_11" data-name="楕円形 11" cx="12.343" cy="12.343" r="12.343" transform="translate(5.241 5.241)" fill="#fff"/>
      </g>
      <g id="グループ_549" data-name="グループ 549" transform="translate(64.419)">
        <circle id="楕円形_12" data-name="楕円形 12" cx="17.584" cy="17.584" r="17.584" fill="#16283a"/>
        <circle id="楕円形_13" data-name="楕円形 13" cx="12.343" cy="12.343" r="12.343" transform="translate(5.241 5.241)" fill="#fff"/>
      </g>
    </g>
    <g id="グループ_553" data-name="グループ 553" transform="translate(91.357 371.172)">
      <g id="グループ_551" data-name="グループ 551" transform="translate(0 2.902)">
        <path id="パス_1225" data-name="パス 1225" d="M100.7,381.19l-2.8-1.406a.712.712,0,0,0-.628-.005l-2.942,1.415a.713.713,0,0,0-.4.643v5.3a.714.714,0,0,0,.713.713h5.745a.713.713,0,0,0,.712-.713v-5.305A.715.715,0,0,0,100.7,381.19Z" transform="translate(-85.219 -363.269)" fill="#fff"/>
        <path id="パス_1226" data-name="パス 1226" d="M100.7,373.623l-2.8,1.406a.712.712,0,0,1-.628.005l-2.942-1.415a.713.713,0,0,1-.4-.642v-5.3a.714.714,0,0,1,.713-.713h5.745a.713.713,0,0,1,.712.713v5.305A.715.715,0,0,1,100.7,373.623Z" transform="translate(-85.219 -366.967)" fill="#fff"/>
        <path id="パス_1227" data-name="パス 1227" d="M100.7,381.19l-2.8-1.406a.712.712,0,0,0-.628-.005l-2.942,1.415a.713.713,0,0,0-.4.643v5.3a.714.714,0,0,0,.713.713h5.745a.713.713,0,0,0,.712-.713v-5.305A.715.715,0,0,0,100.7,381.19Z" transform="translate(-85.219 -363.269)" fill="#fff"/>
        <path id="パス_1228" data-name="パス 1228" d="M93.831,380.491l1.408-2.8a.712.712,0,0,0,.005-.628l-1.415-2.942a.713.713,0,0,0-.643-.4h-5.3a.714.714,0,0,0-.713.713v5.745a.713.713,0,0,0,.713.712h5.305A.711.711,0,0,0,93.831,380.491Z" transform="translate(-87.176 -365.01)" fill="#fff"/>
        <path id="パス_1229" data-name="パス 1229" d="M101.4,380.491l-1.406-2.8a.712.712,0,0,1-.005-.628l1.415-2.942a.712.712,0,0,1,.641-.4h5.3a.714.714,0,0,1,.713.713v5.745a.713.713,0,0,1-.713.712h-5.305A.715.715,0,0,1,101.4,380.491Z" transform="translate(-83.478 -365.01)" fill="#fff"/>
        <path id="パス_1230" data-name="パス 1230" d="M93.831,380.491l1.408-2.8a.712.712,0,0,0,.005-.628l-1.415-2.942a.713.713,0,0,0-.643-.4h-5.3a.714.714,0,0,0-.713.713v5.745a.713.713,0,0,0,.713.712h5.305A.711.711,0,0,0,93.831,380.491Z" transform="translate(-87.176 -365.01)" fill="#fff"/>
      </g>
      <g id="グループ_552" data-name="グループ 552" transform="translate(106.705)">
        <circle id="楕円形_14" data-name="楕円形 14" cx="3.972" cy="3.972" r="3.972" transform="translate(9.963)" fill="#fff"/>
        <path id="パス_1231" data-name="パス 1231" d="M185.546,384.133a3.971,3.971,0,1,1-3.971-3.971A3.971,3.971,0,0,1,185.546,384.133Z" transform="translate(-167.639 -360.236)" fill="#fff"/>
        <circle id="楕円形_15" data-name="楕円形 15" cx="3.972" cy="3.972" r="3.972" transform="translate(19.927 9.963)" fill="#fff"/>
        <circle id="楕円形_16" data-name="楕円形 16" cx="3.972" cy="3.972" r="3.972" transform="translate(0 9.963)" fill="#fff"/>
      </g>
    </g>
    <g id="グループ_554" data-name="グループ 554" transform="translate(144.932 387.166)">
      <path id="長方形_62" data-name="長方形 62" d="M.424,0h5a.425.425,0,0,1,.425.425V2.53a.425.425,0,0,1-.425.425h-5A.425.425,0,0,1,0,2.53V.424A.424.424,0,0,1,.424,0Z" transform="translate(0 0.379)" fill="#fff"/>
      <path id="パス_1232" data-name="パス 1232" d="M146.842,377.142l3.913,1.5a.427.427,0,0,1,0,.8l-3.913,1.5a.427.427,0,0,1-.579-.4v-3A.427.427,0,0,1,146.842,377.142Z" transform="translate(-123.604 -377.114)" fill="#fff"/>
    </g>
  </g>
</svg>
