<svg xmlns="http://www.w3.org/2000/svg" width="84.929" height="84.929" viewBox="0 0 84.929 84.929">
  <g id="グループ_1646" data-name="グループ 1646" transform="translate(-633.728 -259.918)">
    <circle id="楕円形_72" data-name="楕円形 72" cx="42.464" cy="42.464" r="42.464" transform="translate(633.728 259.918)"/>
    <g id="グループ_1645" data-name="グループ 1645" transform="translate(647.862 280.577)">
      <path id="パス_2398" data-name="パス 2398" d="M641.433,269.132l19.685,22.34a5.9,5.9,0,0,0,8.85,0l19.344-21.951a2.106,2.106,0,0,1,.55-.434,6.679,6.679,0,0,0-2.676-.562H643.9a6.663,6.663,0,0,0-2.568.514C641.363,269.072,641.4,269.1,641.433,269.132Z" transform="translate(-637.213 -268.525)" fill="#fff"/>
      <path id="パス_2399" data-name="パス 2399" d="M695.247,269.831a2.071,2.071,0,0,1-.379.638l-19.344,21.951a10.1,10.1,0,0,1-15.151,0l-19.688-22.34a1.411,1.411,0,0,1-.1-.142,6.642,6.642,0,0,0-.965,3.445v30.235a6.686,6.686,0,0,0,6.687,6.687h43.286a6.686,6.686,0,0,0,6.685-6.687V273.384A6.649,6.649,0,0,0,695.247,269.831Z" transform="translate(-639.616 -266.696)" fill="#fff"/>
    </g>
  </g>
</svg>
